{
customParameters = (
{
name = description;
value = "Helvetica (Latin for Swiss) has the objective and functional style which was associated with Swiss typography in the 1950s and 1960s. It is perfect for international correspondence: no ornament, no emotion, just clear presentation of information. Helvetica is still one of the best selling sans-serif fonts.";
},
{
name = vendorID;
value = LINO;
},
{
name = glyphOrder;
value = (
    ".notdef",
    uni0000,
    uni000D,
    controlBS,
    controlHT,
    uni000A,
    controlCR,
    controlGS,
    space,
    exclam,
    quotedbl,
    numbersign,
    dollar,
    percent,
    ampersand,
    quotesingle,
    parenleft,
    parenright,
    asterisk,
    plus,
    comma,
    hyphen,
    period,
    slash,
    zero,
    one,
    two,
    three,
    four,
    five,
    six,
    seven,
    eight,
    nine,
    colon,
    semicolon,
    less,
    equal,
    greater,
    question,
    at,
    A,
    B,
    C,
    D,
    E,
    F,
    G,
    H,
    I,
    J,
    K,
    L,
    M,
    N,
    O,
    P,
    Q,
    R,
    S,
    T,
    U,
    V,
    W,
    X,
    Y,
    Z,
    bracketleft,
    backslash,
    bracketright,
    asciicircum,
    underscore,
    grave,
    a,
    b,
    c,
    d,
    e,
    f,
    g,
    h,
    i,
    j,
    k,
    l,
    m,
    n,
    o,
    p,
    q,
    r,
    s,
    t,
    u,
    v,
    w,
    x,
    y,
    z,
    braceleft,
    bar,
    braceright,
    asciitilde,
    uni00A0,
    exclamdown,
    cent,
    sterling,
    currency,
    yen,
    brokenbar,
    section,
    dieresis,
    copyright,
    ordfeminine,
    guillemotleft,
    logicalnot,
    uni00AD,
    registered,
    macron,
    degree,
    plusminus,
    twosuperior,
    threesuperior,
    acute,
    mu,
    paragraph,
    periodcentered,
    cedilla,
    onesuperior,
    ordmasculine,
    guillemotright,
    onequarter,
    onehalf,
    threequarters,
    questiondown,
    Agrave,
    Aacute,
    Acircumflex,
    Atilde,
    Adieresis,

glyphs = (
{
glyphname = .notdef;
layers = (
{
layerId = "B170CD55-4C38-4AB6-AD9A-F7E1CB90D307";
name = Regular;
paths = (
{
closed = 1;
nodes = (
"409 666 LINE",
"102 666 LINE",
"102 47 LINE",
"409 47 LINE"
);
},
{
closed = 1;
nodes = (
"460 712 LINE",
"460 1 LINE",
"51 1 LINE",
"51 712 LINE"
);
}
);
width = 500;
}
);
note = .notdef;
},
{
glyphname = exclam;
lastChange = "2016-01-24 00:01:35 +0000";
layers = (
{
layerId = "B170CD55-4C38-4AB6-AD9A-F7E1CB90D307";
name = Regular;
paths = (
{
closed = 1;
nodes = (
"74 111 LINE",
"74 0 LINE",
"185 0 LINE",
"185 111 LINE"
);
},
{
closed = 1;
nodes = (
"177 494 LINE",
"177 714 LINE",
"82 714 LINE",
"82 494 LINE",
"97 183 LINE",
"162 183 LINE"
);
}
);
width = 259;
}
);
note = exclam;
unicode = 0021;
},
{
glyphname = quotedbl;
layers = (
{
layerId = "B170CD55-4C38-4AB6-AD9A-F7E1CB90D307";
name = Regular;
paths = (
{
closed = 1;
nodes = (
"249 714 LINE",
"249 456 LINE",
"317 456 LINE",
"317 714 LINE"
);
},
{
closed = 1;
nodes = (
"109 714 LINE",
"109 456 LINE",
"177 456 LINE",
"177 714 LINE"
);
}
);
width = 426;
}
);
note = quotedbl;
unicode = 0022;
},
{
glyphname = numbersign;
layers = (
{
layerId = "B170CD55-4C38-4AB6-AD9A-F7E1CB90D307";
name = Regular;
paths = (
{
closed = 1;
nodes = (
"231 424 LINE",
"355 424 LINE",
"334 274 LINE",
"210 274 LINE"
);
},
{
closed = 1;
nodes = (
"131 206 LINE",
"102 0 LINE",
"171 0 LINE",
"200 206 LINE",
"324 206 LINE",
"295 0 LINE",
"364 0 LINE",
"393 206 LINE",
"494 206 LINE",
"494 274 LINE",
"403 274 LINE",
"424 424 LINE",
"522 424 LINE",
"522 492 LINE",
"433 492 LINE",
"462 697 LINE",
"393 697 LINE",
"364 492 LINE",
"240 492 LINE",
"269 697 LINE",
"200 697 LINE",
"171 492 LINE",
"60 492 LINE",
"60 424 LINE",
"162 424 LINE",
"141 274 LINE",
"34 274 LINE",
"34 206 LINE"
);
}
);
width = 556;
}
);
note = numbersign;
unicode = 0023;
},
{
glyphname = dollar;
lastChange = "2016-01-24 00:02:52 +0000";
layers = (
{
layerId = "B170CD55-4C38-4AB6-AD9A-F7E1CB90D307";
name = Regular;
paths = (
{
closed = 1;
nodes = (
"25 218 LINE",
"36 78 OFFCURVE",
"108 -3 OFFCURVE",
"241 -16 CURVE",
"241 -98 LINE",
"316 -98 LINE",
"316 -16 LINE",
"380 -11 OFFCURVE",
"424 11 OFFCURVE",
"463 48 CURVE SMOOTH",
"502 84 OFFCURVE",
"525 135 OFFCURVE",
"525 200 CURVE SMOOTH",
"525 261 OFFCURVE",
"498 305 OFFCURVE",
"465 334 CURVE SMOOTH",
"432 363 OFFCURVE",
"393 377 OFFCURVE",
"366 386 CURVE SMOOTH",
"316 402 LINE",
"316 648 LINE",
"377 637 OFFCURVE",
"405 598 OFFCURVE",
"418 532 CURVE",
"503 532 LINE",
"476 649 OFFCURVE",
"424 717 OFFCURVE",
"316 730 CURVE",
"316 797 LINE",
"241 797 LINE",
"241 731 LINE",
"184 727 OFFCURVE",
"142 705 OFFCURVE",
"106 669 CURVE SMOOTH",
"69 632 OFFCURVE",
"46 581 OFFCURVE",
"46 521 CURVE SMOOTH",
"46 462 OFFCURVE",
"62 422 OFFCURVE",
"96 394 CURVE SMOOTH",
"130 365 OFFCURVE",
"170 345 OFFCURVE",
"241 328 CURVE",
"241 63 LINE",
"161 76 OFFCURVE",
"113 129 OFFCURVE",
"110 218 CURVE"
);
},
{
closed = 1;
nodes = (
"316 316 LINE",
"352 305 OFFCURVE",
"375 292 OFFCURVE",
"398 273 CURVE SMOOTH",
"421 254 OFFCURVE",
"435 230 OFFCURVE",
"435 191 CURVE SMOOTH",
"435 148 OFFCURVE",
"422 117 OFFCURVE",
"399 97 CURVE SMOOTH",
"375 76 OFFCURVE",
"353 66 OFFCURVE",
"316 63 CURVE"
);
},
{
closed = 1;
nodes = (
"241 415 LINE",
"208 424 OFFCURVE",
"189 438 OFFCURVE",
"169 455 CURVE",
"148 471 OFFCURVE",
"136 495 OFFCURVE",
"136 530 CURVE SMOOTH",
"136 606 OFFCURVE",
"177 644 OFFCURVE",
"241 651 CURVE"
);
}
);
width = 556;
}
);
note = dollar;
unicode = 0024;
},
{
glyphname = percent;
layers = (
{
layerId = "B170CD55-4C38-4AB6-AD9A-F7E1CB90D307";
name = Regular;
paths = (
{
closed = 1;
nodes = (
"167 539 OFFCURVE",
"170 575 OFFCURVE",
"183 604 CURVE SMOOTH",
"195 632 OFFCURVE",
"217 654 OFFCURVE",
"254 654 CURVE SMOOTH",
"293 654 OFFCURVE",
"313 632 OFFCURVE",
"325 604 CURVE SMOOTH",
"337 575 OFFCURVE",
"339 538 OFFCURVE",
"339 509 CURVE SMOOTH",
"339 478 OFFCURVE",
"336 441 OFFCURVE",
"324 413 CURVE SMOOTH",
"311 384 OFFCURVE",
"290 363 OFFCURVE",
"251 363 CURVE SMOOTH",
"214 363 OFFCURVE",
"193 385 OFFCURVE",
"181 414 CURVE SMOOTH",
"169 442 OFFCURVE",
"167 479 OFFCURVE",
"167 508 CURVE SMOOTH"
);
},
{
closed = 1;
nodes = (
"92 451 OFFCURVE",
"103 402 OFFCURVE",
"128 366 CURVE SMOOTH",
"153 330 OFFCURVE",
"194 308 OFFCURVE",
"254 308 CURVE SMOOTH",
"313 308 OFFCURVE",
"352 333 OFFCURVE",
"378 370 CURVE SMOOTH",
"404 406 OFFCURVE",
"414 457 OFFCURVE",
"414 509 CURVE SMOOTH",
"414 564 OFFCURVE",
"405 614 OFFCURVE",
"381 650 CURVE SMOOTH",
"356 686 OFFCURVE",
"317 709 OFFCURVE",
"254 709 CURVE SMOOTH",
"193 709 OFFCURVE",
"152 685 OFFCURVE",
"127 648 CURVE SMOOTH",
"102 611 OFFCURVE",
"92 561 OFFCURVE",
"92 506 CURVE SMOOTH"
);
},
{
closed = 1;
nodes = (
"661 219 OFFCURVE",
"664 255 OFFCURVE",
"677 284 CURVE SMOOTH",
"689 312 OFFCURVE",
"711 334 OFFCURVE",
"748 334 CURVE SMOOTH",
"787 334 OFFCURVE",
"807 312 OFFCURVE",
"819 284 CURVE SMOOTH",
"831 255 OFFCURVE",
"833 218 OFFCURVE",
"833 189 CURVE SMOOTH",
"833 158 OFFCURVE",
"830 121 OFFCURVE",
"818 93 CURVE SMOOTH",
"805 64 OFFCURVE",
"784 43 OFFCURVE",
"745 43 CURVE SMOOTH",
"708 43 OFFCURVE",
"687 65 OFFCURVE",
"675 94 CURVE SMOOTH",
"663 122 OFFCURVE",
"661 159 OFFCURVE",
"661 188 CURVE SMOOTH"
);
},
{
closed = 1;
nodes = (
"586 131 OFFCURVE",
"597 82 OFFCURVE",
"622 47 CURVE SMOOTH",
"647 11 OFFCURVE",
"688 -11 OFFCURVE",
"748 -11 CURVE SMOOTH",
"807 -11 OFFCURVE",
"846 13 OFFCURVE",
"872 50 CURVE SMOOTH",
"898 86 OFFCURVE",
"908 137 OFFCURVE",
"908 189 CURVE SMOOTH",
"908 244 OFFCURVE",
"899 294 OFFCURVE",
"875 330 CURVE SMOOTH",
"850 366 OFFCURVE",
"811 389 OFFCURVE",
"748 389 CURVE SMOOTH",
"687 389 OFFCURVE",
"646 365 OFFCURVE",
"621 328 CURVE SMOOTH",
"596 291 OFFCURVE",
"586 241 OFFCURVE",
"586 186 CURVE SMOOTH"
);
},
{
closed = 1;
nodes = (
"726 722 LINE",
"188 -21 LINE",
"274 -21 LINE",
"811 722 LINE"
);
}
);
width = 1000;
}
);
note = percent;
unicode = 0025;
},
{
glyphname = ampersand;
layers = (
{
layerId = "B170CD55-4C38-4AB6-AD9A-F7E1CB90D307";
name = Regular;
paths = (
{
closed = 1;
nodes = (
"259 459 OFFCURVE",
"242 479 OFFCURVE",
"229 500 CURVE SMOOTH",
"216 520 OFFCURVE",
"206 542 OFFCURVE",
"206 563 CURVE SMOOTH",
"206 615 OFFCURVE",
"248 639 OFFCURVE",
"288 639 CURVE SMOOTH",
"339 639 OFFCURVE",
"370 604 OFFCURVE",
"370 563 CURVE SMOOTH",
"370 532 OFFCURVE",
"357 508 OFFCURVE",
"338 488 CURVE SMOOTH",
"319 468 OFFCURVE",
"295 452 OFFCURVE",
"275 439 CURVE"
);
},
{
closed = 1;
nodes = (
"534 0 LINE",
"645 0 LINE",
"506 161 LINE",
"521 193 OFFCURVE",
"531 216 OFFCURVE",
"539 241 CURVE",
"546 266 OFFCURVE",
"550 294 OFFCURVE",
"554 337 CURVE",
"473 337 LINE",
"471 300 OFFCURVE",
"463 263 OFFCURVE",
"450 226 CURVE",
"321 383 LINE",
"356 403 OFFCURVE",
"389 427 OFFCURVE",
"414 458 CURVE SMOOTH",
"439 489 OFFCURVE",
"455 525 OFFCURVE",
"455 568 CURVE SMOOTH",
"455 616 OFFCURVE",
"434 653 OFFCURVE",
"402 678 CURVE SMOOTH",
"370 702 OFFCURVE",
"326 714 OFFCURVE",
"282 714 CURVE SMOOTH",
"230 714 OFFCURVE",
"190 697 OFFCURVE",
"163 670 CURVE SMOOTH",
"135 642 OFFCURVE",
"121 606 OFFCURVE",
"121 567 CURVE SMOOTH",
"121 531 OFFCURVE",
"130 504 OFFCURVE",
"146 478 CURVE",
"153 465 OFFCURVE",
"162 452 OFFCURVE",
"171 439 CURVE SMOOTH",
"180 426 OFFCURVE",
"190 413 OFFCURVE",
"200 399 CURVE",
"155 375 OFFCURVE",
"113 349 OFFCURVE",
"83 315 CURVE SMOOTH",
"53 281 OFFCURVE",
"33 239 OFFCURVE",
"33 183 CURVE SMOOTH",
"33 154 OFFCURVE",
"40 105 OFFCURVE",
"72 64 CURVE SMOOTH",
"104 23 OFFCURVE",
"160 -11 OFFCURVE",
"256 -11 CURVE SMOOTH",
"335 -11 OFFCURVE",
"415 22 OFFCURVE",
"458 89 CURVE"
);
},
{
closed = 1;
nodes = (
"411 148 LINE",
"376 96 OFFCURVE",
"324 63 OFFCURVE",
"259 63 CURVE SMOOTH",
"224 63 OFFCURVE",
"190 76 OFFCURVE",
"165 97 CURVE SMOOTH",
"140 117 OFFCURVE",
"123 148 OFFCURVE",
"123 184 CURVE SMOOTH",
"123 227 OFFCURVE",
"137 257 OFFCURVE",
"160 282 CURVE SMOOTH",
"183 307 OFFCURVE",
"214 326 OFFCURVE",
"247 345 CURVE"
);
}
);
width = 630;
}
);
note = ampersand;
unicode = 0026;
},
{
glyphname = quotesingle;
layers = (
{
layerId = "B170CD55-4C38-4AB6-AD9A-F7E1CB90D307";
name = Regular;
paths = (
{
closed = 1;
nodes = (
"105 714 LINE",
"105 456 LINE",
"173 456 LINE",
"173 714 LINE"
);
}
);
width = 278;
}
);
note = quotesingle;
unicode = 0027;
},
{
glyphname = parenleft;
layers = (
{
layerId = "B170CD55-4C38-4AB6-AD9A-F7E1CB90D307";
name = Regular;
paths = (
{
closed = 1;
nodes = (
"269 -197 LINE",
"174 -44 OFFCURVE",
"137 102 OFFCURVE",
"137 270 CURVE SMOOTH",
"137 434 OFFCURVE",
"173 579 OFFCURVE",
"269 731 CURVE",
"204 731 LINE",
"100 594 OFFCURVE",
"47 427 OFFCURVE",
"47 270 CURVE SMOOTH",
"47 182 OFFCURVE",
"62 103 OFFCURVE",
"90 27 CURVE SMOOTH",
"117 -49 OFFCURVE",
"156 -122 OFFCURVE",
"204 -197 CURVE"
);
}
);
width = 259;
}
);
note = parenleft;
unicode = 0028;
},
{
glyphname = parenright;
layers = (
{
layerId = "B170CD55-4C38-4AB6-AD9A-F7E1CB90D307";
name = Regular;
paths = (
{
closed = 1;
nodes = (
"55 -197 LINE",
"159 -60 OFFCURVE",
"212 106 OFFCURVE",
"212 263 CURVE SMOOTH",
"212 351 OFFCURVE",
"197 430 OFFCURVE",
"170 507 CURVE SMOOTH",
"142 583 OFFCURVE",
"103 656 OFFCURVE",
"55 731 CURVE",
"-9 731 LINE",
"84 578 OFFCURVE",
"122 431 OFFCURVE",
"122 263 CURVE SMOOTH",
"122 100 OFFCURVE",
"86 -46 OFFCURVE",
"-9 -197 CURVE"
);
}
);
width = 259;
}
);
note = parenright;
unicode = 0029;
},
{
glyphname = asterisk;
layers = (
{
layerId = "B170CD55-4C38-4AB6-AD9A-F7E1CB90D307";
name = Regular;
paths = (
{
closed = 1;
nodes = (
"201 601 LINE",
"201 714 LINE",
"148 714 LINE",
"148 601 LINE",
"42 641 LINE",
"24 593 LINE",
"130 555 LINE",
"65 464 LINE",
"110 433 LINE",
"175 529 LINE",
"244 433 LINE",
"285 464 LINE",
"219 555 LINE",
"328 593 LINE",
"308 641 LINE"
);
}
);
width = 352;
}
);
note = asterisk;
unicode = 002A;
},
{
glyphname = plus;
layers = (
{
layerId = "B170CD55-4C38-4AB6-AD9A-F7E1CB90D307";
name = Regular;
paths = (
{
closed = 1;
nodes = (
"334 287 LINE",
"334 506 LINE",
"266 506 LINE",
"266 287 LINE",
"48 287 LINE",
"48 219 LINE",
"266 219 LINE",
"266 0 LINE",
"334 0 LINE",
"334 219 LINE",
"552 219 LINE",
"552 287 LINE"
);
}
);
width = 600;
}
);
note = plus;
unicode = 002B;
},
{
glyphname = comma;
layers = (
{
layerId = "B170CD55-4C38-4AB6-AD9A-F7E1CB90D307";
name = Regular;
paths = (
{
closed = 1;
nodes = (
"83 111 LINE",
"83 0 LINE",
"142 0 LINE",
"143 -16 OFFCURVE",
"140 -35 OFFCURVE",
"131 -53 CURVE SMOOTH",
"122 -71 OFFCURVE",
"107 -88 OFFCURVE",
"84 -96 CURVE",
"84 -146 LINE",
"161 -123 OFFCURVE",
"194 -66 OFFCURVE",
"194 10 CURVE SMOOTH",
"194 111 LINE"
);
}
);
width = 278;
}
);
note = comma;
unicode = 002C;
},
{
glyphname = hyphen;
layers = (
{
layerId = "B170CD55-4C38-4AB6-AD9A-F7E1CB90D307";
name = Regular;
paths = (
{
closed = 1;
nodes = (
"50 318 LINE",
"50 238 LINE",
"339 238 LINE",
"339 318 LINE"
);
}
);
width = 389;
}
);
note = hyphen;
unicode = 002D;
},
{
glyphname = period;
layers = (
{
layerId = "B170CD55-4C38-4AB6-AD9A-F7E1CB90D307";
name = Regular;
paths = (
{
closed = 1;
nodes = (
"83 111 LINE",
"83 0 LINE",
"194 0 LINE",
"194 111 LINE"
);
}
);
width = 278;
}
);
note = period;
unicode = 002E;
},
{
glyphname = slash;
layers = (
{
layerId = "B170CD55-4C38-4AB6-AD9A-F7E1CB90D307";
name = Regular;
paths = (
{
closed = 1;
nodes = (
"278 731 LINE",
"-17 -16 LINE",
"55 -16 LINE",
"351 731 LINE"
);
}
);
width = 333;
}
);
note = slash;
unicode = 002F;
},
{
glyphname = zero;
layers = (
{
layerId = "B170CD55-4C38-4AB6-AD9A-F7E1CB90D307";
name = Regular;
paths = (
{
closed = 1;
nodes = (
"132 384 OFFCURVE",
"132 428 OFFCURVE",
"138 470 CURVE SMOOTH",
"144 512 OFFCURVE",
"154 554 OFFCURVE",
"176 584 CURVE SMOOTH",
"198 614 OFFCURVE",
"230 634 OFFCURVE",
"278 634 CURVE SMOOTH",
"326 634 OFFCURVE",
"359 614 OFFCURVE",
"381 584 CURVE SMOOTH",
"403 554 OFFCURVE",
"413 512 OFFCURVE",
"419 470 CURVE SMOOTH",
"425 428 OFFCURVE",
"424 384 OFFCURVE",
"424 349 CURVE SMOOTH",
"424 296 OFFCURVE",
"424 225 OFFCURVE",
"406 167 CURVE SMOOTH",
"388 109 OFFCURVE",
"350 63 OFFCURVE",
"278 63 CURVE SMOOTH",
"206 63 OFFCURVE",
"169 109 OFFCURVE",
"151 167 CURVE SMOOTH",
"133 225 OFFCURVE",
"132 296 OFFCURVE",
"132 349 CURVE SMOOTH"
);
},
{
closed = 1;
nodes = (
"42 296 OFFCURVE",
"43 238 OFFCURVE",
"54 185 CURVE SMOOTH",
"65 132 OFFCURVE",
"83 83 OFFCURVE",
"118 47 CURVE SMOOTH",
"153 11 OFFCURVE",
"205 -11 OFFCURVE",
"278 -11 CURVE SMOOTH",
"353 -11 OFFCURVE",
"403 11 OFFCURVE",
"438 47 CURVE SMOOTH",
"473 83 OFFCURVE",
"491 132 OFFCURVE",
"502 185 CURVE SMOOTH",
"513 238 OFFCURVE",
"514 296 OFFCURVE",
"514 348 CURVE SMOOTH",
"514 400 OFFCURVE",
"513 458 OFFCURVE",
"502 511 CURVE SMOOTH",
"491 564 OFFCURVE",
"473 614 OFFCURVE",
"438 650 CURVE SMOOTH",
"403 686 OFFCURVE",
"351 709 OFFCURVE",
"278 709 CURVE SMOOTH",
"205 709 OFFCURVE",
"153 686 OFFCURVE",
"118 650 CURVE SMOOTH",
"83 614 OFFCURVE",
"65 564 OFFCURVE",
"54 511 CURVE SMOOTH",
"43 458 OFFCURVE",
"42 400 OFFCURVE",
"42 348 CURVE SMOOTH"
);
}
);
width = 556;
}
);
note = zero;
unicode = 0030;
},
{
glyphname = one;
layers = (
{
layerId = "B170CD55-4C38-4AB6-AD9A-F7E1CB90D307";
name = Regular;
paths = (
{
closed = 1;
nodes = (
"356 0 LINE",
"356 709 LINE",
"291 709 LINE",
"282 656 OFFCURVE",
"255 622 OFFCURVE",
"219 602 CURVE SMOOTH",
"182 582 OFFCURVE",
"135 576 OFFCURVE",
"87 576 CURVE",
"87 508 LINE",
"271 508 LINE",
"271 0 LINE"
);
}
);
width = 556;
}
);
note = one;
unicode = 0031;
},
{
glyphname = two;
lastChange = "2016-01-23 23:56:08 +0000";
layers = (
{
layerId = "B170CD55-4C38-4AB6-AD9A-F7E1CB90D307";
name = Regular;
paths = (
{
closed = 1;
nodes = (
"129 458 LINE",
"128 501 OFFCURVE",
"137 545 OFFCURVE",
"160 578 CURVE SMOOTH",
"183 611 OFFCURVE",
"218 634 OFFCURVE",
"267 634 CURVE SMOOTH",
"304 634 OFFCURVE",
"339 622 OFFCURVE",
"364 599 CURVE SMOOTH",
"388 576 OFFCURVE",
"404 545 OFFCURVE",
"404 506 CURVE SMOOTH",
"404 457 OFFCURVE",
"389 421 OFFCURVE",
"359 389 CURVE SMOOTH",
"329 357 OFFCURVE",
"283 327 OFFCURVE",
"223 290 CURVE SMOOTH",
"174 261 OFFCURVE",
"127 229 OFFCURVE",
"91 185 CURVE SMOOTH",
"55 141 OFFCURVE",
"31 84 OFFCURVE",
"24 0 CURVE",
"487 0 LINE",
"487 75 LINE",
"123 75 LINE",
"131 119 OFFCURVE",
"159 152 OFFCURVE",
"196 181 CURVE SMOOTH",
"214 196 OFFCURVE",
"234 210 OFFCURVE",
"256 223 CURVE SMOOTH",
"300 249 OFFCURVE",
"345 275 OFFCURVE",
"386 306 CURVE SMOOTH",
"427 337 OFFCURVE",
"460 374 OFFCURVE",
"480 422 CURVE",
"489 446 OFFCURVE",
"494 474 OFFCURVE",
"494 505 CURVE SMOOTH",
"494 572 OFFCURVE",
"469 623 OFFCURVE",
"429 657 CURVE SMOOTH",
"389 691 OFFCURVE",
"333 709 OFFCURVE",
"272 709 CURVE SMOOTH",
"197 709 OFFCURVE",
"138 682 OFFCURVE",
"99 638 CURVE SMOOTH",
"59 593 OFFCURVE",
"40 530 OFFCURVE",
"44 458 CURVE"
);
}
);
width = 556;
}
);
note = two;
unicode = 0032;
},
{
glyphname = three;
layers = (
{
layerId = "B170CD55-4C38-4AB6-AD9A-F7E1CB90D307";
name = Regular;
paths = (
{
closed = 1;
nodes = (
"218 333 LINE",
"234 335 OFFCURVE",
"251 336 OFFCURVE",
"269 336 CURVE SMOOTH",
"312 336 OFFCURVE",
"349 325 OFFCURVE",
"376 302 CURVE SMOOTH",
"403 278 OFFCURVE",
"420 244 OFFCURVE",
"420 200 CURVE SMOOTH",
"420 157 OFFCURVE",
"402 123 OFFCURVE",
"374 100 CURVE SMOOTH",
"346 76 OFFCURVE",
"307 63 OFFCURVE",
"266 63 CURVE SMOOTH",
"169 63 OFFCURVE",
"118 127 OFFCURVE",
"115 219 CURVE",
"30 219 LINE",
"29 146 OFFCURVE",
"52 88 OFFCURVE",
"93 49 CURVE SMOOTH",
"134 9 OFFCURVE",
"194 -11 OFFCURVE",
"266 -11 CURVE SMOOTH",
"333 -11 OFFCURVE",
"394 7 OFFCURVE",
"438 43 CURVE SMOOTH",
"482 79 OFFCURVE",
"510 133 OFFCURVE",
"510 204 CURVE SMOOTH",
"510 289 OFFCURVE",
"469 357 OFFCURVE",
"382 376 CURVE",
"382 378 LINE",
"438 403 OFFCURVE",
"480 455 OFFCURVE",
"480 519 CURVE SMOOTH",
"480 584 OFFCURVE",
"457 632 OFFCURVE",
"418 663 CURVE SMOOTH",
"379 694 OFFCURVE",
"325 709 OFFCURVE",
"264 709 CURVE SMOOTH",
"193 709 OFFCURVE",
"139 685 OFFCURVE",
"103 645 CURVE SMOOTH",
"67 605 OFFCURVE",
"48 548 OFFCURVE",
"45 480 CURVE",
"130 480 LINE",
"130 521 OFFCURVE",
"141 560 OFFCURVE",
"163 588 CURVE SMOOTH",
"185 616 OFFCURVE",
"219 634 OFFCURVE",
"264 634 CURVE SMOOTH",
"336 634 OFFCURVE",
"390 596 OFFCURVE",
"390 520 CURVE SMOOTH",
"390 483 OFFCURVE",
"374 453 OFFCURVE",
"350 434 CURVE SMOOTH",
"325 414 OFFCURVE",
"291 404 OFFCURVE",
"255 404 CURVE SMOOTH",
"237 404 LINE SMOOTH",
"234 404 OFFCURVE",
"230 404 OFFCURVE",
"227 404 CURVE SMOOTH",
"224 404 OFFCURVE",
"221 404 OFFCURVE",
"218 405 CURVE"
);
}
);
width = 556;
}
);
note = three;
unicode = 0033;
},
{
glyphname = four;
lastChange = "2016-01-23 23:54:10 +0000";
layers = (
{
layerId = "B170CD55-4C38-4AB6-AD9A-F7E1CB90D307";
name = Regular;
paths = (
{
closed = 1;
nodes = (
"339 241 LINE",
"111 241 LINE",
"337 578 LINE",
"339 578 LINE"
);
},
{
closed = 1;
nodes = (
"419 241 LINE",
"419 709 LINE",
"351 709 LINE",
"28 248 LINE",
"28 166 LINE",
"339 166 LINE",
"339 0 LINE",
"419 0 LINE",
"419 166 LINE",
"515 166 LINE",
"515 241 LINE"
);
}
);
width = 556;
}
);
note = four;
unicode = 0034;
},
{
glyphname = five;
layers = (
{
layerId = "B170CD55-4C38-4AB6-AD9A-F7E1CB90D307";
name = Regular;
paths = (
{
closed = 1;
nodes = (
"470 622 LINE",
"470 697 LINE",
"120 697 LINE",
"54 329 LINE",
"127 325 LINE",
"160 365 OFFCURVE",
"203 392 OFFCURVE",
"259 392 CURVE SMOOTH",
"307 392 OFFCURVE",
"347 375 OFFCURVE",
"375 347 CURVE SMOOTH",
"403 318 OFFCURVE",
"419 278 OFFCURVE",
"419 231 CURVE SMOOTH",
"419 175 OFFCURVE",
"402 133 OFFCURVE",
"375 105 CURVE SMOOTH",
"347 77 OFFCURVE",
"309 63 OFFCURVE",
"269 63 CURVE SMOOTH",
"226 63 OFFCURVE",
"191 76 OFFCURVE",
"165 100 CURVE SMOOTH",
"139 123 OFFCURVE",
"123 155 OFFCURVE",
"120 191 CURVE",
"35 191 LINE",
"36 127 OFFCURVE",
"62 76 OFFCURVE",
"103 42 CURVE SMOOTH",
"144 8 OFFCURVE",
"200 -11 OFFCURVE",
"261 -11 CURVE SMOOTH",
"344 -11 OFFCURVE",
"406 17 OFFCURVE",
"447 61 CURVE SMOOTH",
"488 105 OFFCURVE",
"509 164 OFFCURVE",
"509 224 CURVE SMOOTH",
"509 305 OFFCURVE",
"483 366 OFFCURVE",
"442 407 CURVE SMOOTH",
"401 447 OFFCURVE",
"343 467 OFFCURVE",
"280 467 CURVE SMOOTH",
"232 467 OFFCURVE",
"179 451 OFFCURVE",
"148 416 CURVE",
"146 418 LINE",
"184 622 LINE"
);
}
);
width = 556;
}
);
note = five;
unicode = 0035;
},
{
glyphname = six;
layers = (
{
layerId = "B170CD55-4C38-4AB6-AD9A-F7E1CB90D307";
name = Regular;
paths = (
{
closed = 1;
nodes = (
"499 528 LINE",
"488 645 OFFCURVE",
"416 709 OFFCURVE",
"299 709 CURVE SMOOTH",
"198 709 OFFCURVE",
"133 663 OFFCURVE",
"93 592 CURVE SMOOTH",
"53 521 OFFCURVE",
"38 426 OFFCURVE",
"38 329 CURVE SMOOTH",
"38 254 OFFCURVE",
"46 170 OFFCURVE",
"81 103 CURVE SMOOTH",
"116 36 OFFCURVE",
"177 -11 OFFCURVE",
"282 -11 CURVE SMOOTH",
"371 -11 OFFCURVE",
"431 23 OFFCURVE",
"468 69 CURVE SMOOTH",
"504 115 OFFCURVE",
"519 174 OFFCURVE",
"519 226 CURVE SMOOTH",
"519 291 OFFCURVE",
"498 349 OFFCURVE",
"462 390 CURVE SMOOTH",
"425 431 OFFCURVE",
"370 456 OFFCURVE",
"302 456 CURVE SMOOTH",
"225 456 OFFCURVE",
"165 428 OFFCURVE",
"125 363 CURVE",
"123 365 LINE",
"124 420 OFFCURVE",
"132 487 OFFCURVE",
"157 541 CURVE SMOOTH",
"181 595 OFFCURVE",
"223 634 OFFCURVE",
"295 634 CURVE SMOOTH",
"363 634 OFFCURVE",
"406 592 OFFCURVE",
"414 528 CURVE"
);
},
{
closed = 1;
nodes = (
"334 381 OFFCURVE",
"370 362 OFFCURVE",
"394 334 CURVE SMOOTH",
"418 305 OFFCURVE",
"429 264 OFFCURVE",
"429 220 CURVE SMOOTH",
"429 179 OFFCURVE",
"416 139 OFFCURVE",
"392 110 CURVE SMOOTH",
"368 81 OFFCURVE",
"333 63 OFFCURVE",
"286 63 CURVE SMOOTH",
"239 63 OFFCURVE",
"202 81 OFFCURVE",
"178 109 CURVE SMOOTH",
"153 137 OFFCURVE",
"139 177 OFFCURVE",
"139 221 CURVE SMOOTH",
"139 265 OFFCURVE",
"152 306 OFFCURVE",
"177 335 CURVE SMOOTH",
"202 363 OFFCURVE",
"238 381 OFFCURVE",
"286 381 CURVE SMOOTH"
);
}
);
width = 556;
}
);
note = six;
unicode = 0036;
},
{
glyphname = seven;
lastChange = "2016-01-23 23:53:35 +0000";
layers = (
{
layerId = "B170CD55-4C38-4AB6-AD9A-F7E1CB90D307";
name = Regular;
paths = (
{
closed = 1;
nodes = (
"509 697 LINE",
"50 697 LINE",
"50 617 LINE",
"412 617 LINE",
"142 0 LINE",
"237 0 LINE",
"509 619 LINE"
);
}
);
width = 556;
}
);
note = seven;
unicode = 0037;
},
{
glyphname = eight;
layers = (
{
layerId = "B170CD55-4C38-4AB6-AD9A-F7E1CB90D307";
name = Regular;
paths = (
{
closed = 1;
nodes = (
"155 561 OFFCURVE",
"170 587 OFFCURVE",
"192 606 CURVE SMOOTH",
"214 625 OFFCURVE",
"246 634 OFFCURVE",
"279 634 CURVE SMOOTH",
"348 634 OFFCURVE",
"398 597 OFFCURVE",
"398 525 CURVE SMOOTH",
"398 453 OFFCURVE",
"349 411 OFFCURVE",
"281 411 CURVE SMOOTH",
"246 411 OFFCURVE",
"215 420 OFFCURVE",
"192 439 CURVE SMOOTH",
"169 458 OFFCURVE",
"155 486 OFFCURVE",
"155 525 CURVE SMOOTH"
);
},
{
closed = 1;
nodes = (
"65 464 OFFCURVE",
"104 405 OFFCURVE",
"164 381 CURVE",
"84 353 OFFCURVE",
"40 288 OFFCURVE",
"40 204 CURVE SMOOTH",
"40 132 OFFCURVE",
"66 78 OFFCURVE",
"110 42 CURVE SMOOTH",
"153 6 OFFCURVE",
"213 -11 OFFCURVE",
"281 -11 CURVE SMOOTH",
"346 -11 OFFCURVE",
"406 8 OFFCURVE",
"448 45 CURVE SMOOTH",
"490 81 OFFCURVE",
"516 135 OFFCURVE",
"516 204 CURVE SMOOTH",
"516 292 OFFCURVE",
"475 354 OFFCURVE",
"390 381 CURVE",
"450 408 OFFCURVE",
"488 464 OFFCURVE",
"488 528 CURVE SMOOTH",
"488 573 OFFCURVE",
"473 619 OFFCURVE",
"439 653 CURVE SMOOTH",
"405 687 OFFCURVE",
"350 709 OFFCURVE",
"273 709 CURVE SMOOTH",
"218 709 OFFCURVE",
"167 693 OFFCURVE",
"128 662 CURVE SMOOTH",
"89 631 OFFCURVE",
"65 587 OFFCURVE",
"65 528 CURVE SMOOTH"
);
},
{
closed = 1;
nodes = (
"130 241 OFFCURVE",
"146 275 OFFCURVE",
"174 299 CURVE SMOOTH",
"201 323 OFFCURVE",
"239 336 OFFCURVE",
"280 336 CURVE SMOOTH",
"320 336 OFFCURVE",
"356 321 OFFCURVE",
"383 297 CURVE SMOOTH",
"410 273 OFFCURVE",
"426 240 OFFCURVE",
"426 201 CURVE SMOOTH",
"426 161 OFFCURVE",
"412 127 OFFCURVE",
"386 103 CURVE SMOOTH",
"360 78 OFFCURVE",
"324 63 OFFCURVE",
"281 63 CURVE SMOOTH",
"193 63 OFFCURVE",
"130 115 OFFCURVE",
"130 200 CURVE SMOOTH"
);
}
);
width = 556;
}
);
note = eight;
unicode = 0038;
},
{
glyphname = nine;
layers = (
{
layerId = "B170CD55-4C38-4AB6-AD9A-F7E1CB90D307";
name = Regular;
paths = (
{
closed = 1;
nodes = (
"49 171 LINE",
"60 48 OFFCURVE",
"145 -11 OFFCURVE",
"264 -11 CURVE SMOOTH",
"436 -11 OFFCURVE",
"510 125 OFFCURVE",
"510 370 CURVE SMOOTH",
"510 505 OFFCURVE",
"482 589 OFFCURVE",
"438 640 CURVE SMOOTH",
"394 691 OFFCURVE",
"334 709 OFFCURVE",
"267 709 CURVE SMOOTH",
"199 709 OFFCURVE",
"140 685 OFFCURVE",
"99 645 CURVE SMOOTH",
"58 604 OFFCURVE",
"34 546 OFFCURVE",
"34 478 CURVE SMOOTH",
"34 409 OFFCURVE",
"54 348 OFFCURVE",
"92 307 CURVE SMOOTH",
"130 266 OFFCURVE",
"186 241 OFFCURVE",
"258 241 CURVE SMOOTH",
"327 241 OFFCURVE",
"390 279 OFFCURVE",
"422 339 CURVE",
"424 337 LINE",
"419 152 OFFCURVE",
"368 63 OFFCURVE",
"264 63 CURVE SMOOTH",
"196 63 OFFCURVE",
"141 102 OFFCURVE",
"134 171 CURVE"
);
},
{
closed = 1;
nodes = (
"409 431 OFFCURVE",
"395 391 OFFCURVE",
"370 363 CURVE SMOOTH",
"345 334 OFFCURVE",
"308 316 OFFCURVE",
"264 316 CURVE SMOOTH",
"223 316 OFFCURVE",
"188 334 OFFCURVE",
"164 362 CURVE SMOOTH",
"139 390 OFFCURVE",
"124 427 OFFCURVE",
"124 466 CURVE SMOOTH",
"124 510 OFFCURVE",
"134 551 OFFCURVE",
"156 583 CURVE SMOOTH",
"178 614 OFFCURVE",
"212 634 OFFCURVE",
"263 634 CURVE SMOOTH",
"311 634 OFFCURVE",
"347 616 OFFCURVE",
"372 586 CURVE SMOOTH",
"396 556 OFFCURVE",
"409 516 OFFCURVE",
"409 472 CURVE SMOOTH"
);
}
);
width = 556;
}
);
note = nine;
unicode = 0039;
},
{
glyphname = colon;
layers = (
{
layerId = "B170CD55-4C38-4AB6-AD9A-F7E1CB90D307";
name = Regular;
paths = (
{
closed = 1;
nodes = (
"194 406 LINE",
"194 517 LINE",
"83 517 LINE",
"83 406 LINE"
);
},
{
closed = 1;
nodes = (
"83 111 LINE",
"83 0 LINE",
"194 0 LINE",
"194 111 LINE"
);
}
);
width = 278;
}
);
note = colon;
unicode = 003A;
},
{
glyphname = semicolon;
layers = (
{
layerId = "B170CD55-4C38-4AB6-AD9A-F7E1CB90D307";
name = Regular;
paths = (
{
closed = 1;
nodes = (
"194 406 LINE",
"194 517 LINE",
"83 517 LINE",
"83 406 LINE"
);
},
{
closed = 1;
nodes = (
"83 111 LINE",
"83 0 LINE",
"142 0 LINE",
"143 -16 OFFCURVE",
"140 -35 OFFCURVE",
"131 -53 CURVE SMOOTH",
"122 -71 OFFCURVE",
"107 -88 OFFCURVE",
"84 -96 CURVE",
"84 -146 LINE",
"161 -123 OFFCURVE",
"195 -66 OFFCURVE",
"194 10 CURVE",
"194 111 LINE"
);
}
);
width = 278;
}
);
note = semicolon;
unicode = 003B;
},
{
glyphname = less;
layers = (
{
layerId = "B170CD55-4C38-4AB6-AD9A-F7E1CB90D307";
name = Regular;
paths = (
{
closed = 1;
nodes = (
"554 446 LINE",
"554 514 LINE",
"46 284 LINE",
"46 222 LINE",
"554 -7 LINE",
"554 60 LINE",
"129 253 LINE"
);
}
);
width = 600;
}
);
note = less;
unicode = 003C;
},
{
glyphname = equal;
layers = (
{
layerId = "B170CD55-4C38-4AB6-AD9A-F7E1CB90D307";
name = Regular;
paths = (
{
closed = 1;
nodes = (
"48 186 LINE",
"48 118 LINE",
"552 118 LINE",
"552 186 LINE"
);
},
{
closed = 1;
nodes = (
"552 320 LINE",
"552 388 LINE",
"48 388 LINE",
"48 320 LINE"
);
}
);
width = 600;
}
);
note = equal;
unicode = 003D;
},
{
glyphname = greater;
layers = (
{
layerId = "B170CD55-4C38-4AB6-AD9A-F7E1CB90D307";
name = Regular;
paths = (
{
closed = 1;
nodes = (
"46 60 LINE",
"46 -7 LINE",
"554 222 LINE",
"554 284 LINE",
"46 514 LINE",
"46 446 LINE",
"471 253 LINE"
);
}
);
width = 600;
}
);
note = greater;
unicode = 003E;
},
{
glyphname = question;
layers = (
{
layerId = "B170CD55-4C38-4AB6-AD9A-F7E1CB90D307";
name = Regular;
paths = (
{
closed = 1;
nodes = (
"218 111 LINE",
"218 0 LINE",
"329 0 LINE",
"329 111 LINE"
);
},
{
closed = 1;
nodes = (
"140 491 LINE",
"140 538 OFFCURVE",
"150 579 OFFCURVE",
"174 608 CURVE SMOOTH",
"197 637 OFFCURVE",
"231 656 OFFCURVE",
"279 656 CURVE SMOOTH",
"351 656 OFFCURVE",
"395 612 OFFCURVE",
"400 539 CURVE SMOOTH",
"403 490 OFFCURVE",
"386 457 OFFCURVE",
"362 429 CURVE SMOOTH",
"349 414 OFFCURVE",
"336 401 OFFCURVE",
"322 388 CURVE SMOOTH",
"293 362 OFFCURVE",
"266 332 OFFCURVE",
"248 293 CURVE SMOOTH",
"239 273 OFFCURVE",
"233 249 OFFCURVE",
"232 221 CURVE",
"232 174 LINE",
"317 174 LINE",
"317 213 LINE SMOOTH",
"317 248 OFFCURVE",
"328 274 OFFCURVE",
"345 298 CURVE SMOOTH",
"361 321 OFFCURVE",
"383 341 OFFCURVE",
"404 361 CURVE SMOOTH",
"425 382 OFFCURVE",
"447 404 OFFCURVE",
"463 431 CURVE SMOOTH",
"479 458 OFFCURVE",
"490 490 OFFCURVE",
"490 531 CURVE SMOOTH",
"490 595 OFFCURVE",
"468 645 OFFCURVE",
"431 679 CURVE SMOOTH",
"394 713 OFFCURVE",
"342 731 OFFCURVE",
"279 731 CURVE SMOOTH",
"210 731 OFFCURVE",
"153 706 OFFCURVE",
"114 663 CURVE SMOOTH",
"75 619 OFFCURVE",
"54 559 OFFCURVE",
"55 491 CURVE"
);
}
);
width = 556;
}
);
note = question;
unicode = 003F;
},
{
glyphname = at;
lastChange = "2016-01-24 00:10:23 +0000";
layers = (
{
layerId = "B170CD55-4C38-4AB6-AD9A-F7E1CB90D307";
name = Regular;
paths = (
{
closed = 1;
nodes = (
"610 544 LINE",
"547 544 LINE",
"524 481 LINE",
"501 541 OFFCURVE",
"459 561 OFFCURVE",
"412 561 CURVE SMOOTH",
"341 561 OFFCURVE",
"294 528 OFFCURVE",
"254 475 CURVE SMOOTH",
"213 422 OFFCURVE",
"194 376 OFFCURVE",
"191 299 CURVE SMOOTH",
"189 255 OFFCURVE",
"206 215 OFFCURVE",
"231 187 CURVE SMOOTH",
"255 159 OFFCURVE",
"291 141 OFFCURVE",
"334 141 CURVE SMOOTH",
"383 141 OFFCURVE",
"413 173 OFFCURVE",
"444 208 CURVE",
"447 208 LINE",
"450 164 OFFCURVE",
"476 143 OFFCURVE",
"511 143 CURVE SMOOTH",
"558 143 OFFCURVE",
"624 162 OFFCURVE",
"671 213 CURVE SMOOTH",
"718 264 OFFCURVE",
"753 336 OFFCURVE",
"753 423 CURVE SMOOTH",
"753 514 OFFCURVE",
"715 591 OFFCURVE",
"653 645 CURVE SMOOTH",
"591 699 OFFCURVE",
"505 731 OFFCURVE",
"413 731 CURVE SMOOTH",
"312 731 OFFCURVE",
"219 690 OFFCURVE",
"152 623 CURVE SMOOTH",
"84 555 OFFCURVE",
"42 463 OFFCURVE",
"42 360 CURVE SMOOTH",
"42 253 OFFCURVE",
"83 160 OFFCURVE",
"151 93 CURVE SMOOTH",
"218 25 OFFCURVE",
"312 -16 OFFCURVE",
"417 -16 CURVE SMOOTH",
"481 -16 OFFCURVE",
"544 0 OFFCURVE",
"598 30 CURVE SMOOTH",
"652 60 OFFCURVE",
"698 103 OFFCURVE",
"730 159 CURVE",
"667 159 LINE",
"610 86 OFFCURVE",
"515 38 OFFCURVE",
"419 38 CURVE SMOOTH",
"335 38 OFFCURVE",
"258 73 OFFCURVE",
"202 130 CURVE SMOOTH",
"145 186 OFFCURVE",
"110 266 OFFCURVE",
"110 355 CURVE SMOOTH",
"110 443 OFFCURVE",
"143 522 OFFCURVE",
"198 581 CURVE SMOOTH",
"253 640 OFFCURVE",
"329 676 OFFCURVE",
"414 676 CURVE SMOOTH",
"485 676 OFFCURVE",
"551 651 OFFCURVE",
"602 607 CURVE SMOOTH",
"653 562 OFFCURVE",
"685 497 OFFCURVE",
"685 418 CURVE SMOOTH",
"685 365 OFFCURVE",
"666 307 OFFCURVE",
"639 263 CURVE SMOOTH",
"612 219 OFFCURVE",
"570 198 OFFCURVE",
"539 198 CURVE SMOOTH",
"523 198 OFFCURVE",
"515 208 OFFCURVE",
"515 229 CURVE SMOOTH",
"515 244 OFFCURVE",
"521 263 OFFCURVE",
"526 280 CURVE SMOOTH"
);
},
{
closed = 1;
nodes = (
"433 495 OFFCURVE",
"453 483 OFFCURVE",
"469 467 CURVE",
"484 450 OFFCURVE",
"491 411 OFFCURVE",
"486 384 CURVE SMOOTH",
"475 323 OFFCURVE",
"444 280 OFFCURVE",
"434 268 CURVE SMOOTH",
"391 216 OFFCURVE",
"370 213 OFFCURVE",
"339 213 CURVE SMOOTH",
"288 213 OFFCURVE",
"266 255 OFFCURVE",
"266 305 CURVE SMOOTH",
"266 360 OFFCURVE",
"295 411 OFFCURVE",
"303 423 CURVE SMOOTH",
"330 463 OFFCURVE",
"365 495 OFFCURVE",
"412 495 CURVE SMOOTH"
);
}
);
width = 800;
}
);
note = at;
unicode = 0040;
},
{
glyphname = A;
layers = (
{
layerId = "B170CD55-4C38-4AB6-AD9A-F7E1CB90D307";
name = Regular;
paths = (
{
closed = 1;
nodes = (
"201 295 LINE",
"322 628 LINE",
"324 628 LINE",
"443 295 LINE"
);
},
{
closed = 1;
nodes = (
"272 714 LINE",
"-6 0 LINE",
"91 0 LINE",
"171 215 LINE",
"473 215 LINE",
"551 0 LINE",
"656 0 LINE",
"377 714 LINE"
);
}
);
width = 648;
}
);
note = A;
unicode = 0041;
},
{
glyphname = B;
layers = (
{
layerId = "B170CD55-4C38-4AB6-AD9A-F7E1CB90D307";
name = Regular;
paths = (
{
closed = 1;
nodes = (
"173 407 LINE",
"173 634 LINE",
"363 634 LINE SMOOTH",
"404 634 OFFCURVE",
"442 631 OFFCURVE",
"470 615 CURVE SMOOTH",
"498 599 OFFCURVE",
"515 572 OFFCURVE",
"515 521 CURVE SMOOTH",
"515 445 OFFCURVE",
"471 407 OFFCURVE",
"363 407 CURVE SMOOTH"
);
},
{
closed = 1;
nodes = (
"78 714 LINE",
"78 0 LINE",
"423 0 LINE SMOOTH",
"494 0 OFFCURVE",
"548 26 OFFCURVE",
"585 64 CURVE SMOOTH",
"621 102 OFFCURVE",
"640 153 OFFCURVE",
"640 205 CURVE SMOOTH",
"640 293 OFFCURVE",
"592 358 OFFCURVE",
"504 377 CURVE",
"504 379 LINE",
"572 406 OFFCURVE",
"610 463 OFFCURVE",
"610 539 CURVE SMOOTH",
"610 611 OFFCURVE",
"573 660 OFFCURVE",
"526 688 CURVE SMOOTH",
"505 701 OFFCURVE",
"474 707 OFFCURVE",
"439 711 CURVE SMOOTH",
"404 714 OFFCURVE",
"368 714 OFFCURVE",
"337 714 CURVE SMOOTH"
);
},
{
closed = 1;
nodes = (
"173 80 LINE",
"173 327 LINE",
"390 327 LINE SMOOTH",
"430 327 OFFCURVE",
"469 321 OFFCURVE",
"498 303 CURVE SMOOTH",
"526 285 OFFCURVE",
"545 255 OFFCURVE",
"545 208 CURVE SMOOTH",
"545 128 OFFCURVE",
"495 80 OFFCURVE",
"411 80 CURVE SMOOTH"
);
}
);
width = 685;
}
);
note = B;
unicode = 0042;
},
{
glyphname = C;
lastChange = "2016-01-23 17:04:56 +0000";
layers = (
{
layerId = "B170CD55-4C38-4AB6-AD9A-F7E1CB90D307";
name = Regular;
paths = (
{
closed = 1;
nodes = (
"675 503 LINE",
"664 579 OFFCURVE",
"628 633 OFFCURVE",
"576 672 CURVE SMOOTH",
"524 711 OFFCURVE",
"456 731 OFFCURVE",
"381 731 CURVE SMOOTH",
"272 731 OFFCURVE",
"186 689 OFFCURVE",
"130 621 CURVE SMOOTH",
"73 553 OFFCURVE",
"43 459 OFFCURVE",
"43 355 CURVE SMOOTH",
"43 251 OFFCURVE",
"70 158 OFFCURVE",
"125 91 CURVE SMOOTH",
"180 24 OFFCURVE",
"262 -16 OFFCURVE",
"373 -16 CURVE SMOOTH",
"556 -16 OFFCURVE",
"663 78 OFFCURVE",
"682 258 CURVE",
"587 258 LINE",
"583 199 OFFCURVE",
"563 152 OFFCURVE",
"528 116 CURVE SMOOTH",
"492 79 OFFCURVE",
"444 63 OFFCURVE",
"381 63 CURVE SMOOTH",
"296 63 OFFCURVE",
"235 98 OFFCURVE",
"196 152 CURVE SMOOTH",
"156 206 OFFCURVE",
"138 281 OFFCURVE",
"138 362 CURVE SMOOTH",
"138 437 OFFCURVE",
"156 509 OFFCURVE",
"196 563 CURVE SMOOTH",
"235 617 OFFCURVE",
"295 651 OFFCURVE",
"380 651 CURVE SMOOTH",
"480 651 OFFCURVE",
"559 604 OFFCURVE",
"580 503 CURVE"
);
}
);
width = 722;
}
);
note = C;
unicode = 0043;
},
{
glyphname = D;
layers = (
{
layerId = "B170CD55-4C38-4AB6-AD9A-F7E1CB90D307";
name = Regular;
paths = (
{
closed = 1;
nodes = (
"173 80 LINE",
"173 634 LINE",
"333 634 LINE SMOOTH",
"421 634 OFFCURVE",
"480 609 OFFCURVE",
"518 562 CURVE SMOOTH",
"556 514 OFFCURVE",
"571 446 OFFCURVE",
"571 361 CURVE SMOOTH",
"571 273 OFFCURVE",
"551 212 OFFCURVE",
"523 171 CURVE SMOOTH",
"495 130 OFFCURVE",
"458 107 OFFCURVE",
"422 95 CURVE SMOOTH",
"386 82 OFFCURVE",
"352 80 OFFCURVE",
"331 80 CURVE SMOOTH"
);
},
{
closed = 1;
nodes = (
"78 714 LINE",
"78 0 LINE",
"323 0 LINE SMOOTH",
"442 0 OFFCURVE",
"528 34 OFFCURVE",
"584 98 CURVE SMOOTH",
"640 161 OFFCURVE",
"666 254 OFFCURVE",
"666 374 CURVE SMOOTH",
"666 603 OFFCURVE",
"543 714 OFFCURVE",
"323 714 CURVE SMOOTH"
);
}
);
width = 704;
}
);
note = D;
unicode = 0044;
},
{
glyphname = E;
layers = (
{
layerId = "B170CD55-4C38-4AB6-AD9A-F7E1CB90D307";
name = Regular;
paths = (
{
closed = 1;
nodes = (
"78 714 LINE",
"78 0 LINE",
"574 0 LINE",
"574 80 LINE",
"173 80 LINE",
"173 327 LINE",
"544 327 LINE",
"544 407 LINE",
"173 407 LINE",
"173 634 LINE",
"571 634 LINE",
"571 714 LINE"
);
}
);
width = 611;
}
);
note = E;
unicode = 0045;
},
{
glyphname = F;
layers = (
{
layerId = "B170CD55-4C38-4AB6-AD9A-F7E1CB90D307";
name = Regular;
paths = (
{
closed = 1;
nodes = (
"78 714 LINE",
"78 0 LINE",
"173 0 LINE",
"173 327 LINE",
"501 327 LINE",
"501 407 LINE",
"173 407 LINE",
"173 634 LINE",
"547 634 LINE",
"547 714 LINE"
);
}
);
width = 574;
}
);
note = F;
unicode = 0046;
},
{
glyphname = G;
lastChange = "2016-01-23 07:49:46 +0000";
layers = (
{
layerId = "B170CD55-4C38-4AB6-AD9A-F7E1CB90D307";
name = Regular;
paths = (
{
closed = 1;
nodes = (
"612 0 LINE",
"697 0 LINE",
"697 376 LINE",
"384 376 LINE",
"384 296 LINE",
"612 296 LINE",
"615 231 OFFCURVE",
"594 173 OFFCURVE",
"555 131 CURVE SMOOTH",
"515 89 OFFCURVE",
"458 63 OFFCURVE",
"383 63 CURVE SMOOTH",
"303 63 OFFCURVE",
"242 97 OFFCURVE",
"201 150 CURVE SMOOTH",
"160 202 OFFCURVE",
"138 273 OFFCURVE",
"138 348 CURVE SMOOTH",
"138 424 OFFCURVE",
"156 500 OFFCURVE",
"196 557 CURVE SMOOTH",
"235 613 OFFCURVE",
"296 651 OFFCURVE",
"383 651 CURVE SMOOTH",
"436 651 OFFCURVE",
"485 638 OFFCURVE",
"522 613 CURVE SMOOTH",
"559 588 OFFCURVE",
"586 549 OFFCURVE",
"595 494 CURVE",
"690 494 LINE",
"677 578 OFFCURVE",
"639 636 OFFCURVE",
"585 675 CURVE SMOOTH",
"531 714 OFFCURVE",
"460 731 OFFCURVE",
"383 731 CURVE SMOOTH",
"270 731 OFFCURVE",
"185 686 OFFCURVE",
"129 615 CURVE SMOOTH",
"72 544 OFFCURVE",
"43 447 OFFCURVE",
"43 343 CURVE SMOOTH",
"43 250 OFFCURVE",
"74 160 OFFCURVE",
"133 93 CURVE SMOOTH",
"192 26 OFFCURVE",
"276 -16 OFFCURVE",
"383 -16 CURVE SMOOTH",
"467 -16 OFFCURVE",
"556 14 OFFCURVE",
"612 89 CURVE"
);
}
);
width = 759;
}
);
note = G;
unicode = 0047;
},
{
glyphname = H;
lastChange = "2016-01-23 16:51:15 +0000";
layers = (
{
layerId = "B170CD55-4C38-4AB6-AD9A-F7E1CB90D307";
name = Regular;
paths = (
{
closed = 1;
nodes = (
"78 714 LINE",
"78 0 LINE",
"173 0 LINE",
"173 327 LINE",
"549 327 LINE",
"549 0 LINE",
"644 0 LINE",
"644 714 LINE",
"549 714 LINE",
"549 407 LINE",
"173 407 LINE",
"173 714 LINE"
);
}
);
width = 722;
}
);
note = H;
unicode = 0048;
},
{
glyphname = I;
layers = (
{
layerId = "B170CD55-4C38-4AB6-AD9A-F7E1CB90D307";
name = Regular;
paths = (
{
closed = 1;
nodes = (
"82 714 LINE",
"82 0 LINE",
"177 0 LINE",
"177 714 LINE"
);
}
);
width = 259;
}
);
note = I;
unicode = 0049;
},
{
glyphname = J;
lastChange = "2016-01-23 16:50:38 +0000";
layers = (
{
layerId = "B170CD55-4C38-4AB6-AD9A-F7E1CB90D307";
name = Regular;
paths = (
{
closed = 1;
nodes = (
"441 714 LINE",
"346 714 LINE",
"346 192 LINE SMOOTH",
"346 113 OFFCURVE",
"319 63 OFFCURVE",
"232 63 CURVE SMOOTH",
"185 63 OFFCURVE",
"156 72 OFFCURVE",
"140 97 CURVE SMOOTH",
"123 122 OFFCURVE",
"117 141 OFFCURVE",
"117 182 CURVE SMOOTH",
"117 212 LINE",
"22 212 LINE",
"22 168 LINE SMOOTH",
"22 32 OFFCURVE",
"97 -16 OFFCURVE",
"230 -16 CURVE SMOOTH",
"310 -16 OFFCURVE",
"363 8 OFFCURVE",
"396 45 CURVE SMOOTH",
"428 81 OFFCURVE",
"441 130 OFFCURVE",
"441 178 CURVE SMOOTH"
);
}
);
width = 519;
}
);
note = J;
unicode = 004A;
},
{
glyphname = K;
layers = (
{
layerId = "B170CD55-4C38-4AB6-AD9A-F7E1CB90D307";
name = Regular;
paths = (
{
closed = 1;
nodes = (
"78 714 LINE",
"78 0 LINE",
"173 0 LINE",
"173 250 LINE",
"292 361 LINE",
"550 0 LINE",
"670 0 LINE",
"357 426 LINE",
"658 714 LINE",
"535 714 LINE",
"173 358 LINE",
"173 714 LINE"
);
}
);
width = 667;
}
);
note = K;
unicode = 004B;
},
{
glyphname = L;
layers = (
{
layerId = "B170CD55-4C38-4AB6-AD9A-F7E1CB90D307";
name = Regular;
paths = (
{
closed = 1;
nodes = (
"78 714 LINE",
"78 0 LINE",
"551 0 LINE",
"551 80 LINE",
"173 80 LINE",
"173 714 LINE"
);
}
);
width = 556;
}
);
note = L;
unicode = 004C;
},
{
glyphname = M;
layers = (
{
layerId = "B170CD55-4C38-4AB6-AD9A-F7E1CB90D307";
name = Regular;
paths = (
{
closed = 1;
nodes = (
"80 714 LINE",
"80 0 LINE",
"170 0 LINE",
"170 594 LINE",
"172 594 LINE",
"395 0 LINE",
"476 0 LINE",
"699 594 LINE",
"701 594 LINE",
"701 0 LINE",
"791 0 LINE",
"791 714 LINE",
"661 714 LINE",
"435 114 LINE",
"210 714 LINE"
);
}
);
width = 871;
}
);
note = M;
unicode = 004D;
},
{
glyphname = N;
layers = (
{
layerId = "B170CD55-4C38-4AB6-AD9A-F7E1CB90D307";
name = Regular;
paths = (
{
closed = 1;
nodes = (
"77 714 LINE",
"77 0 LINE",
"167 0 LINE",
"167 573 LINE",
"169 573 LINE",
"542 0 LINE",
"646 0 LINE",
"646 714 LINE",
"556 714 LINE",
"556 135 LINE",
"554 135 LINE",
"178 714 LINE"
);
}
);
width = 722;
}
);
note = N;
unicode = 004E;
},
{
glyphname = O;
layers = (
{
layerId = "B170CD55-4C38-4AB6-AD9A-F7E1CB90D307";
name = Regular;
paths = (
{
closed = 1;
nodes = (
"133 429 OFFCURVE",
"151 502 OFFCURVE",
"191 558 CURVE SMOOTH",
"231 614 OFFCURVE",
"293 651 OFFCURVE",
"380 651 CURVE SMOOTH",
"467 651 OFFCURVE",
"529 614 OFFCURVE",
"569 558 CURVE SMOOTH",
"609 502 OFFCURVE",
"627 429 OFFCURVE",
"627 357 CURVE SMOOTH",
"627 285 OFFCURVE",
"609 212 OFFCURVE",
"569 156 CURVE SMOOTH",
"529 100 OFFCURVE",
"467 63 OFFCURVE",
"380 63 CURVE SMOOTH",
"293 63 OFFCURVE",
"231 100 OFFCURVE",
"191 156 CURVE SMOOTH",
"151 212 OFFCURVE",
"133 285 OFFCURVE",
"133 357 CURVE SMOOTH"
);
},
{
closed = 1;
nodes = (
"38 260 OFFCURVE",
"67 166 OFFCURVE",
"124 97 CURVE SMOOTH",
"181 28 OFFCURVE",
"267 -16 OFFCURVE",
"380 -16 CURVE SMOOTH",
"493 -16 OFFCURVE",
"579 28 OFFCURVE",
"636 97 CURVE SMOOTH",
"693 166 OFFCURVE",
"722 260 OFFCURVE",
"722 357 CURVE SMOOTH",
"722 454 OFFCURVE",
"693 548 OFFCURVE",
"636 617 CURVE SMOOTH",
"579 686 OFFCURVE",
"493 731 OFFCURVE",
"380 731 CURVE SMOOTH",
"267 731 OFFCURVE",
"181 686 OFFCURVE",
"124 617 CURVE SMOOTH",
"67 548 OFFCURVE",
"38 454 OFFCURVE",
"38 357 CURVE SMOOTH"
);
}
);
width = 760;
}
);
note = O;
unicode = 004F;
},
{
glyphname = P;
layers = (
{
layerId = "B170CD55-4C38-4AB6-AD9A-F7E1CB90D307";
name = Regular;
paths = (
{
closed = 1;
nodes = (
"173 372 LINE",
"173 634 LINE",
"359 634 LINE SMOOTH",
"467 634 OFFCURVE",
"515 588 OFFCURVE",
"515 503 CURVE SMOOTH",
"515 418 OFFCURVE",
"467 371 OFFCURVE",
"359 372 CURVE SMOOTH"
);
},
{
closed = 1;
nodes = (
"78 714 LINE",
"78 0 LINE",
"173 0 LINE",
"173 292 LINE",
"391 292 LINE SMOOTH",
"535 291 OFFCURVE",
"610 370 OFFCURVE",
"610 503 CURVE SMOOTH",
"610 636 OFFCURVE",
"535 714 OFFCURVE",
"391 714 CURVE SMOOTH"
);
}
);
width = 648;
}
);
note = P;
unicode = 0050;
},
{
glyphname = Q;
lastChange = "2016-01-23 07:29:07 +0000";
layers = (
{
layerId = "B170CD55-4C38-4AB6-AD9A-F7E1CB90D307";
name = Regular;
paths = (
{
closed = 1;
nodes = (
"469 212 LINE",
"414 151 LINE",
"483 87 LINE",
"451 74 OFFCURVE",
"414 63 OFFCURVE",
"380 63 CURVE SMOOTH",
"293 63 OFFCURVE",
"231 100 OFFCURVE",
"191 156 CURVE SMOOTH",
"151 212 OFFCURVE",
"133 285 OFFCURVE",
"133 357 CURVE SMOOTH",
"133 429 OFFCURVE",
"151 502 OFFCURVE",
"191 558 CURVE SMOOTH",
"231 614 OFFCURVE",
"293 651 OFFCURVE",
"380 651 CURVE SMOOTH",
"467 651 OFFCURVE",
"529 614 OFFCURVE",
"569 558 CURVE SMOOTH",
"609 502 OFFCURVE",
"627 429 OFFCURVE",
"627 357 CURVE SMOOTH",
"627 269 OFFCURVE",
"610 191 OFFCURVE",
"554 135 CURVE"
);
},
{
closed = 1;
nodes = (
"629 -47 LINE",
"686 15 LINE",
"619 75 LINE",
"691 147 OFFCURVE",
"722 248 OFFCURVE",
"722 357 CURVE SMOOTH",
"722 454 OFFCURVE",
"693 548 OFFCURVE",
"636 617 CURVE SMOOTH",
"579 686 OFFCURVE",
"493 731 OFFCURVE",
"380 731 CURVE SMOOTH",
"267 731 OFFCURVE",
"181 686 OFFCURVE",
"124 617 CURVE SMOOTH",
"67 548 OFFCURVE",
"38 454 OFFCURVE",
"38 357 CURVE SMOOTH",
"38 260 OFFCURVE",
"67 166 OFFCURVE",
"124 97 CURVE SMOOTH",
"181 28 OFFCURVE",
"267 -16 OFFCURVE",
"380 -16 CURVE SMOOTH",
"446 -16 OFFCURVE",
"503 -2 OFFCURVE",
"551 26 CURVE"
);
}
);
width = 760;
}
);
note = Q;
unicode = 0051;
},
{
glyphname = R;
lastChange = "2016-01-24 00:23:57 +0000";
layers = (
{
layerId = "B170CD55-4C38-4AB6-AD9A-F7E1CB90D307";
name = Regular;
paths = (
{
closed = 1;
nodes = (
"78 714 LINE",
"78 0 LINE",
"173 0 LINE",
"173 305 LINE",
"405 305 LINE SMOOTH",
"452 305 OFFCURVE",
"484 293 OFFCURVE",
"501 270 CURVE SMOOTH",
"518 246 OFFCURVE",
"525 230 OFFCURVE",
"531 195 CURVE SMOOTH",
"534 178 OFFCURVE",
"535 141 OFFCURVE",
"535 123 CURVE SMOOTH",
"535 58 OFFCURVE",
"535 76 OFFCURVE",
"535 0 CURVE",
"631 0 LINE SMOOTH",
"631 90 LINE",
"631 144 LINE",
"631 254 OFFCURVE",
"614 329 OFFCURVE",
"527 350 CURVE",
"527 352 LINE",
"614 376 OFFCURVE",
"631 440 OFFCURVE",
"631 527 CURVE SMOOTH",
"631 643 OFFCURVE",
"550 714 OFFCURVE",
"414 714 CURVE SMOOTH"
);
},
{
closed = 1;
nodes = (
"173 385 LINE",
"173 634 LINE",
"409 634 LINE SMOOTH",
"498 634 OFFCURVE",
"536 584 OFFCURVE",
"536 512 CURVE SMOOTH",
"536 460 OFFCURVE",
"517 429 OFFCURVE",
"487 410 CURVE SMOOTH",
"457 390 OFFCURVE",
"415 385 OFFCURVE",
"371 385 CURVE SMOOTH"
);
}
);
width = 685;
}
);
note = R;
unicode = 0052;
},
{
glyphname = S;
layers = (
{
layerId = "B170CD55-4C38-4AB6-AD9A-F7E1CB90D307";
name = Regular;
paths = (
{
closed = 1;
nodes = (
"581 505 LINE",
"578 584 OFFCURVE",
"550 640 OFFCURVE",
"503 677 CURVE SMOOTH",
"455 714 OFFCURVE",
"391 731 OFFCURVE",
"318 731 CURVE SMOOTH",
"253 731 OFFCURVE",
"188 715 OFFCURVE",
"140 681 CURVE SMOOTH",
"91 647 OFFCURVE",
"59 594 OFFCURVE",
"59 522 CURVE SMOOTH",
"59 457 OFFCURVE",
"87 415 OFFCURVE",
"131 388 CURVE SMOOTH",
"174 360 OFFCURVE",
"231 345 OFFCURVE",
"288 333 CURVE",
"316 326 OFFCURVE",
"344 320 OFFCURVE",
"371 314 CURVE SMOOTH",
"426 302 OFFCURVE",
"471 284 OFFCURVE",
"497 253 CURVE SMOOTH",
"510 238 OFFCURVE",
"516 218 OFFCURVE",
"516 193 CURVE SMOOTH",
"516 141 OFFCURVE",
"493 109 OFFCURVE",
"458 90 CURVE SMOOTH",
"423 70 OFFCURVE",
"378 63 OFFCURVE",
"335 63 CURVE SMOOTH",
"282 63 OFFCURVE",
"229 76 OFFCURVE",
"191 104 CURVE SMOOTH",
"153 132 OFFCURVE",
"127 175 OFFCURVE",
"127 235 CURVE",
"37 235 LINE",
"37 148 OFFCURVE",
"71 85 OFFCURVE",
"125 45 CURVE SMOOTH",
"179 4 OFFCURVE",
"252 -16 OFFCURVE",
"332 -16 CURVE SMOOTH",
"397 -16 OFFCURVE",
"467 -1 OFFCURVE",
"520 33 CURVE SMOOTH",
"573 67 OFFCURVE",
"611 120 OFFCURVE",
"611 196 CURVE SMOOTH",
"611 267 OFFCURVE",
"583 311 OFFCURVE",
"540 342 CURVE SMOOTH",
"496 373 OFFCURVE",
"439 389 OFFCURVE",
"383 402 CURVE SMOOTH",
"354 409 OFFCURVE",
"326 415 OFFCURVE",
"299 421 CURVE SMOOTH",
"244 432 OFFCURVE",
"200 448 OFFCURVE",
"174 476 CURVE",
"161 489 OFFCURVE",
"154 507 OFFCURVE",
"154 529 CURVE SMOOTH",
"154 576 OFFCURVE",
"174 606 OFFCURVE",
"204 625 CURVE SMOOTH",
"234 644 OFFCURVE",
"274 651 OFFCURVE",
"314 651 CURVE SMOOTH",
"413 651 OFFCURVE",
"480 608 OFFCURVE",
"491 505 CURVE"
);
}
);
width = 648;
}
);
note = S;
unicode = 0053;
},
{
glyphname = T;
layers = (
{
layerId = "B170CD55-4C38-4AB6-AD9A-F7E1CB90D307";
name = Regular;
paths = (
{
closed = 1;
nodes = (
"240 634 LINE",
"240 0 LINE",
"335 0 LINE",
"335 634 LINE",
"573 634 LINE",
"573 714 LINE",
"2 714 LINE",
"2 634 LINE"
);
}
);
width = 574;
}
);
note = T;
unicode = 0054;
},
{
glyphname = U;
layers = (
{
layerId = "B170CD55-4C38-4AB6-AD9A-F7E1CB90D307";
name = Regular;
paths = (
{
closed = 1;
nodes = (
"648 714 LINE",
"553 714 LINE",
"553 258 LINE SMOOTH",
"553 130 OFFCURVE",
"488 63 OFFCURVE",
"367 63 CURVE SMOOTH",
"239 63 OFFCURVE",
"169 130 OFFCURVE",
"169 258 CURVE SMOOTH",
"169 714 LINE",
"74 714 LINE",
"74 258 LINE SMOOTH",
"74 67 OFFCURVE",
"183 -16 OFFCURVE",
"367 -16 CURVE SMOOTH",
"547 -16 OFFCURVE",
"648 75 OFFCURVE",
"648 258 CURVE SMOOTH"
);
}
);
width = 722;
}
);
note = U;
unicode = 0055;
},
{
glyphname = V;
layers = (
{
layerId = "B170CD55-4C38-4AB6-AD9A-F7E1CB90D307";
name = Regular;
paths = (
{
closed = 1;
nodes = (
"359 0 LINE",
"613 714 LINE",
"514 714 LINE",
"308 95 LINE",
"306 95 LINE",
"102 714 LINE",
"0 714 LINE",
"251 0 LINE"
);
}
);
width = 611;
}
);
note = V;
unicode = 0056;
},
{
glyphname = W;
layers = (
{
layerId = "B170CD55-4C38-4AB6-AD9A-F7E1CB90D307";
name = Regular;
paths = (
{
closed = 1;
nodes = (
"723 0 LINE",
"914 714 LINE",
"819 714 LINE",
"674 120 LINE",
"672 120 LINE",
"514 714 LINE",
"411 714 LINE",
"251 120 LINE",
"249 120 LINE",
"109 714 LINE",
"12 714 LINE",
"195 0 LINE",
"294 0 LINE",
"459 600 LINE",
"461 600 LINE",
"624 0 LINE"
);
}
);
width = 926;
}
);
note = W;
unicode = 0057;
},
{
glyphname = X;
layers = (
{
layerId = "B170CD55-4C38-4AB6-AD9A-F7E1CB90D307";
name = Regular;
paths = (
{
closed = 1;
nodes = (
"248 367 LINE",
"0 0 LINE",
"106 0 LINE",
"304 295 LINE",
"496 0 LINE",
"612 0 LINE",
"361 367 LINE",
"597 714 LINE",
"491 714 LINE",
"305 435 LINE",
"127 714 LINE",
"13 714 LINE"
);
}
);
width = 611;
}
);
note = X;
unicode = 0058;
},
{
glyphname = Y;
layers = (
{
layerId = "B170CD55-4C38-4AB6-AD9A-F7E1CB90D307";
name = Regular;
paths = (
{
closed = 1;
nodes = (
"373 292 LINE",
"646 714 LINE",
"538 714 LINE",
"329 374 LINE",
"115 714 LINE",
"2 714 LINE",
"278 292 LINE",
"278 0 LINE",
"373 0 LINE"
);
}
);
width = 648;
}
);
note = Y;
unicode = 0059;
},
{
glyphname = Z;
layers = (
{
layerId = "B170CD55-4C38-4AB6-AD9A-F7E1CB90D307";
name = Regular;
paths = (
{
closed = 1;
nodes = (
"22 80 LINE",
"22 0 LINE",
"590 0 LINE",
"590 80 LINE",
"135 80 LINE",
"578 634 LINE",
"578 714 LINE",
"56 714 LINE",
"56 634 LINE",
"466 634 LINE"
);
}
);
width = 611;
}
);
note = Z;
unicode = 005A;
},
{
glyphname = bracketleft;
layers = (
{
layerId = "B170CD55-4C38-4AB6-AD9A-F7E1CB90D307";
name = Regular;
paths = (
{
closed = 1;
nodes = (
"259 663 LINE",
"259 731 LINE",
"72 731 LINE",
"72 -197 LINE",
"259 -197 LINE",
"259 -129 LINE",
"152 -129 LINE",
"152 663 LINE"
);
}
);
width = 259;
}
);
note = bracketleft;
unicode = 005B;
},
{
glyphname = backslash;
layers = (
{
layerId = "B170CD55-4C38-4AB6-AD9A-F7E1CB90D307";
name = Regular;
paths = (
{
closed = 1;
nodes = (
"351 -16 LINE",
"55 731 LINE",
"-17 731 LINE",
"278 -16 LINE"
);
}
);
width = 333;
}
);
note = backslash;
unicode = 005C;
},
{
glyphname = bracketright;
layers = (
{
layerId = "B170CD55-4C38-4AB6-AD9A-F7E1CB90D307";
name = Regular;
paths = (
{
closed = 1;
nodes = (
"0 -129 LINE",
"0 -197 LINE",
"187 -197 LINE",
"187 731 LINE",
"0 731 LINE",
"0 663 LINE",
"107 663 LINE",
"107 -129 LINE"
);
}
);
width = 259;
}
);
note = bracketright;
unicode = 005D;
},
{
glyphname = asciicircum;
layers = (
{
layerId = "B170CD55-4C38-4AB6-AD9A-F7E1CB90D307";
name = Regular;
paths = (
{
closed = 1;
nodes = (
"268 697 LINE",
"50 264 LINE",
"121 264 LINE",
"299 624 LINE",
"480 264 LINE",
"550 264 LINE",
"332 697 LINE"
);
}
);
width = 600;
}
);
note = asciicircum;
unicode = 005E;
},
{
glyphname = underscore;
layers = (
{
layerId = "B170CD55-4C38-4AB6-AD9A-F7E1CB90D307";
name = Regular;
paths = (
{
closed = 1;
nodes = (
"0 -74 LINE",
"0 -124 LINE",
"500 -124 LINE",
"500 -74 LINE"
);
}
);
width = 500;
}
);
note = underscore;
unicode = 005F;
},
{
glyphname = grave;
layers = (
{
layerId = "B170CD55-4C38-4AB6-AD9A-F7E1CB90D307";
name = Regular;
paths = (
{
closed = 1;
nodes = (
"76 770 LINE",
"172 608 LINE",
"108 608 LINE",
"-32 770 LINE"
);
}
);
width = 222;
}
);
note = grave;
unicode = 0060;
},
{
glyphname = a;
lastChange = "2016-01-24 17:22:59 +0000";
layers = (
{
layerId = "B170CD55-4C38-4AB6-AD9A-F7E1CB90D307";
name = Regular;
paths = (
{
closed = 1;
nodes = (
"469 0 LINE",
"389 0 LINE",
"389 55 LINE",
"342 3 OFFCURVE",
"279 -5 OFFCURVE",
"207 -5 CURVE SMOOTH",
"160 -5 OFFCURVE",
"130 4 OFFCURVE",
"99 25 CURVE SMOOTH",
"69 46 OFFCURVE",
"48 81 OFFCURVE",
"48 133 CURVE SMOOTH",
"48 192 OFFCURVE",
"64 228 OFFCURVE",
"96 252 CURVE SMOOTH",
"128 276 OFFCURVE",
"167 287 OFFCURVE",
"211 295 CURVE SMOOTH",
"234 300 OFFCURVE",
"257 303 OFFCURVE",
"278 306 CURVE",
"320 310 OFFCURVE",
"352 318 OFFCURVE",
"371 335 CURVE SMOOTH",
"380 343 OFFCURVE",
"385 353 OFFCURVE",
"385 369 CURVE SMOOTH",
"385 406 OFFCURVE",
"370 427 OFFCURVE",
"348 439 CURVE SMOOTH",
"326 451 OFFCURVE",
"297 454 OFFCURVE",
"270 454 CURVE SMOOTH",
"198 454 OFFCURVE",
"145 432 OFFCURVE",
"141 356 CURVE",
"56 356 LINE",
"59 420 OFFCURVE",
"84 463 OFFCURVE",
"124 491 CURVE SMOOTH",
"164 518 OFFCURVE",
"204 529 OFFCURVE",
"263 529 CURVE SMOOTH",
"310 529 OFFCURVE",
"358 524 OFFCURVE",
"395 504 CURVE SMOOTH",
"432 483 OFFCURVE",
"469 447 OFFCURVE",
"469 387 CURVE SMOOTH"
);
},
{
closed = 1;
nodes = (
"384 259 LINE",
"363 252 OFFCURVE",
"326 244 OFFCURVE",
"288 240 CURVE SMOOTH",
"250 236 OFFCURVE",
"209 230 OFFCURVE",
"178 217 CURVE SMOOTH",
"147 204 OFFCURVE",
"126 182 OFFCURVE",
"126 139 CURVE SMOOTH",
"126 111 OFFCURVE",
"139 92 OFFCURVE",
"157 80 CURVE SMOOTH",
"175 68 OFFCURVE",
"199 63 OFFCURVE",
"226 63 CURVE SMOOTH",
"282 63 OFFCURVE",
"322 76 OFFCURVE",
"347 100 CURVE SMOOTH",
"372 123 OFFCURVE",
"384 152 OFFCURVE",
"384 180 CURVE SMOOTH"
);
}
);
width = 532;
}
);
note = a;
unicode = 0061;
},
{
glyphname = b;
layers = (
{
layerId = "B170CD55-4C38-4AB6-AD9A-F7E1CB90D307";
name = Regular;
paths = (
{
closed = 1;
nodes = (
"67 714 LINE",
"67 0 LINE",
"152 0 LINE",
"152 69 LINE",
"154 69 LINE",
"173 38 OFFCURVE",
"201 18 OFFCURVE",
"232 6 CURVE SMOOTH",
"263 -6 OFFCURVE",
"296 -11 OFFCURVE",
"321 -11 CURVE SMOOTH",
"400 -11 OFFCURVE",
"459 19 OFFCURVE",
"499 68 CURVE SMOOTH",
"538 116 OFFCURVE",
"557 184 OFFCURVE",
"557 257 CURVE SMOOTH",
"557 330 OFFCURVE",
"537 398 OFFCURVE",
"498 448 CURVE SMOOTH",
"458 498 OFFCURVE",
"399 529 OFFCURVE",
"319 529 CURVE SMOOTH",
"247 529 OFFCURVE",
"182 504 OFFCURVE",
"154 447 CURVE",
"152 447 LINE",
"152 714 LINE"
);
},
{
closed = 1;
nodes = (
"467 212 OFFCURVE",
"457 162 OFFCURVE",
"433 125 CURVE SMOOTH",
"409 88 OFFCURVE",
"371 63 OFFCURVE",
"312 63 CURVE SMOOTH",
"253 63 OFFCURVE",
"213 87 OFFCURVE",
"187 123 CURVE SMOOTH",
"161 159 OFFCURVE",
"149 208 OFFCURVE",
"149 259 CURVE SMOOTH",
"149 307 OFFCURVE",
"160 356 OFFCURVE",
"185 393 CURVE SMOOTH",
"210 429 OFFCURVE",
"250 454 OFFCURVE",
"307 454 CURVE SMOOTH",
"362 454 OFFCURVE",
"403 431 OFFCURVE",
"429 395 CURVE SMOOTH",
"455 359 OFFCURVE",
"467 311 OFFCURVE",
"467 263 CURVE SMOOTH"
);
}
);
width = 593;
}
);
note = b;
unicode = 0062;
},
{
glyphname = c;
lastChange = "2016-01-23 17:04:27 +0000";
layers = (
{
layerId = "B170CD55-4C38-4AB6-AD9A-F7E1CB90D307";
name = Regular;
paths = (
{
closed = 1;
nodes = (
"502 351 LINE",
"495 412 OFFCURVE",
"470 457 OFFCURVE",
"431 486 CURVE SMOOTH",
"391 515 OFFCURVE",
"339 529 OFFCURVE",
"280 529 CURVE SMOOTH",
"199 529 OFFCURVE",
"137 499 OFFCURVE",
"97 449 CURVE SMOOTH",
"56 399 OFFCURVE",
"36 329 OFFCURVE",
"36 252 CURVE SMOOTH",
"36 175 OFFCURVE",
"57 109 OFFCURVE",
"98 62 CURVE SMOOTH",
"138 15 OFFCURVE",
"199 -11 OFFCURVE",
"278 -11 CURVE SMOOTH",
"410 -11 OFFCURVE",
"486 61 OFFCURVE",
"505 189 CURVE",
"418 189 LINE",
"407 109 OFFCURVE",
"361 63 OFFCURVE",
"277 63 CURVE SMOOTH",
"224 63 OFFCURVE",
"185 86 OFFCURVE",
"161 122 CURVE SMOOTH",
"137 157 OFFCURVE",
"126 204 OFFCURVE",
"126 252 CURVE SMOOTH",
"126 304 OFFCURVE",
"136 355 OFFCURVE",
"161 392 CURVE SMOOTH",
"185 429 OFFCURVE",
"226 454 OFFCURVE",
"287 454 CURVE SMOOTH",
"359 454 OFFCURVE",
"401 416 OFFCURVE",
"414 351 CURVE"
);
}
);
width = 537;
}
);
note = c;
unicode = 0063;
},
{
glyphname = d;
layers = (
{
layerId = "B170CD55-4C38-4AB6-AD9A-F7E1CB90D307";
name = Regular;
paths = (
{
closed = 1;
nodes = (
"126 305 OFFCURVE",
"136 355 OFFCURVE",
"160 392 CURVE SMOOTH",
"184 429 OFFCURVE",
"224 454 OFFCURVE",
"281 454 CURVE SMOOTH",
"340 454 OFFCURVE",
"381 430 OFFCURVE",
"407 394 CURVE SMOOTH",
"433 358 OFFCURVE",
"444 309 OFFCURVE",
"444 258 CURVE SMOOTH",
"444 210 OFFCURVE",
"433 161 OFFCURVE",
"408 125 CURVE SMOOTH",
"383 88 OFFCURVE",
"343 63 OFFCURVE",
"286 63 CURVE SMOOTH",
"231 63 OFFCURVE",
"191 86 OFFCURVE",
"165 122 CURVE SMOOTH",
"139 158 OFFCURVE",
"126 206 OFFCURVE",
"126 254 CURVE SMOOTH"
);
},
{
closed = 1;
nodes = (
"526 0 LINE",
"526 714 LINE",
"441 714 LINE",
"441 448 LINE",
"439 448 LINE",
"420 479 OFFCURVE",
"392 499 OFFCURVE",
"361 512 CURVE SMOOTH",
"330 524 OFFCURVE",
"299 529 OFFCURVE",
"272 529 CURVE SMOOTH",
"193 529 OFFCURVE",
"134 498 OFFCURVE",
"95 450 CURVE SMOOTH",
"55 401 OFFCURVE",
"36 333 OFFCURVE",
"36 260 CURVE SMOOTH",
"36 187 OFFCURVE",
"56 119 OFFCURVE",
"96 70 CURVE SMOOTH",
"135 21 OFFCURVE",
"194 -11 OFFCURVE",
"274 -11 CURVE SMOOTH",
"346 -11 OFFCURVE",
"411 13 OFFCURVE",
"439 70 CURVE",
"441 70 LINE",
"441 0 LINE"
);
}
);
width = 593;
}
);
note = d;
unicode = 0064;
},
{
glyphname = e;
lastChange = "2016-01-23 17:03:42 +0000";
layers = (
{
layerId = "B170CD55-4C38-4AB6-AD9A-F7E1CB90D307";
name = Regular;
paths = (
{
closed = 1;
nodes = (
"126 309 LINE",
"129 349 OFFCURVE",
"144 384 OFFCURVE",
"169 411 CURVE SMOOTH",
"194 438 OFFCURVE",
"230 454 OFFCURVE",
"274 454 CURVE SMOOTH",
"317 454 OFFCURVE",
"353 438 OFFCURVE",
"379 412 CURVE SMOOTH",
"405 386 OFFCURVE",
"420 349 OFFCURVE",
"423 309 CURVE"
);
},
{
closed = 1;
nodes = (
"421 161 LINE",
"406 93 OFFCURVE",
"359 63 OFFCURVE",
"287 63 CURVE SMOOTH",
"231 63 OFFCURVE",
"190 83 OFFCURVE",
"163 115 CURVE SMOOTH",
"136 146 OFFCURVE",
"125 189 OFFCURVE",
"126 234 CURVE",
"513 234 LINE",
"516 297 OFFCURVE",
"503 369 OFFCURVE",
"467 428 CURVE SMOOTH",
"430 487 OFFCURVE",
"371 529 OFFCURVE",
"279 529 CURVE SMOOTH",
"208 529 OFFCURVE",
"148 501 OFFCURVE",
"105 453 CURVE SMOOTH",
"61 405 OFFCURVE",
"36 340 OFFCURVE",
"36 261 CURVE",
"39 182 OFFCURVE",
"59 113 OFFCURVE",
"100 65 CURVE SMOOTH",
"141 17 OFFCURVE",
"201 -11 OFFCURVE",
"284 -11 CURVE SMOOTH",
"401 -11 OFFCURVE",
"482 45 OFFCURVE",
"505 161 CURVE"
);
}
);
width = 537;
}
);
note = e;
unicode = 0065;
},
{
glyphname = f;
lastChange = "2016-01-23 16:55:50 +0000";
layers = (
{
layerId = "B170CD55-4C38-4AB6-AD9A-F7E1CB90D307";
name = Regular;
paths = (
{
closed = 1;
nodes = (
"99 442 LINE",
"99 0 LINE",
"184 0 LINE",
"184 442 LINE",
"284 442 LINE",
"284 517 LINE",
"184 517 LINE",
"184 589 LINE SMOOTH",
"184 634 OFFCURVE",
"195 647 OFFCURVE",
"236 647 CURVE SMOOTH",
"251 647 OFFCURVE",
"269 645 OFFCURVE",
"284 640 CURVE",
"284 714 LINE",
"268 719 OFFCURVE",
"245 722 OFFCURVE",
"229 722 CURVE SMOOTH",
"136 722 OFFCURVE",
"99 678 OFFCURVE",
"99 594 CURVE SMOOTH",
"99 517 LINE",
"12 517 LINE",
"12 442 LINE"
);
}
);
width = 296;
}
);
note = f;
unicode = 0066;
},
{
glyphname = g;
lastChange = "2016-01-23 17:06:57 +0000";
layers = (
{
layerId = "B170CD55-4C38-4AB6-AD9A-F7E1CB90D307";
name = Regular;
paths = (
{
closed = 1;
nodes = (
"510 517 LINE",
"430 517 LINE",
"430 452 LINE",
"429 452 LINE",
"398 509 OFFCURVE",
"340 526 OFFCURVE",
"275 526 CURVE SMOOTH",
"186 526 OFFCURVE",
"125 488 OFFCURVE",
"88 436 CURVE SMOOTH",
"51 383 OFFCURVE",
"36 314 OFFCURVE",
"36 253 CURVE SMOOTH",
"36 182 OFFCURVE",
"55 120 OFFCURVE",
"94 73 CURVE SMOOTH",
"133 25 OFFCURVE",
"190 -5 OFFCURVE",
"267 -5 CURVE SMOOTH",
"334 -5 OFFCURVE",
"399 21 OFFCURVE",
"428 85 CURVE",
"430 85 LINE",
"430 54 LINE SMOOTH",
"430 -3 OFFCURVE",
"419 -52 OFFCURVE",
"394 -86 CURVE SMOOTH",
"369 -120 OFFCURVE",
"336 -141 OFFCURVE",
"280 -141 CURVE SMOOTH",
"252 -141 OFFCURVE",
"220 -135 OFFCURVE",
"194 -122 CURVE SMOOTH",
"168 -109 OFFCURVE",
"147 -88 OFFCURVE",
"146 -57 CURVE",
"61 -57 LINE",
"64 -113 OFFCURVE",
"93 -151 OFFCURVE",
"134 -175 CURVE SMOOTH",
"174 -199 OFFCURVE",
"227 -209 OFFCURVE",
"275 -209 CURVE SMOOTH",
"440 -209 OFFCURVE",
"510 -125 OFFCURVE",
"510 44 CURVE SMOOTH"
);
},
{
closed = 1;
nodes = (
"216 69 OFFCURVE",
"180 95 OFFCURVE",
"157 133 CURVE SMOOTH",
"134 171 OFFCURVE",
"126 216 OFFCURVE",
"126 263 CURVE SMOOTH",
"126 312 OFFCURVE",
"137 359 OFFCURVE",
"162 394 CURVE SMOOTH",
"186 429 OFFCURVE",
"224 451 OFFCURVE",
"279 451 CURVE SMOOTH",
"332 451 OFFCURVE",
"369 428 OFFCURVE",
"393 393 CURVE SMOOTH",
"416 357 OFFCURVE",
"426 314 OFFCURVE",
"426 269 CURVE SMOOTH",
"426 221 OFFCURVE",
"415 171 OFFCURVE",
"391 133 CURVE SMOOTH",
"367 95 OFFCURVE",
"328 69 OFFCURVE",
"272 69 CURVE SMOOTH"
);
}
);
width = 574;
}
);
note = g;
unicode = 0067;
},
{
glyphname = h;
lastChange = "2016-01-23 16:57:12 +0000";
layers = (
{
layerId = "B170CD55-4C38-4AB6-AD9A-F7E1CB90D307";
name = Regular;
paths = (
{
closed = 1;
nodes = (
"64 714 LINE",
"64 0 LINE",
"149 0 LINE",
"149 292 LINE SMOOTH",
"149 339 OFFCURVE",
"162 379 OFFCURVE",
"187 408 CURVE SMOOTH",
"212 437 OFFCURVE",
"250 454 OFFCURVE",
"302 454 CURVE SMOOTH",
"367 454 OFFCURVE",
"407 414 OFFCURVE",
"407 350 CURVE SMOOTH",
"407 0 LINE",
"492 0 LINE",
"492 340 LINE SMOOTH",
"492 396 OFFCURVE",
"482 443 OFFCURVE",
"454 476 CURVE SMOOTH",
"426 509 OFFCURVE",
"382 526 OFFCURVE",
"314 526 CURVE SMOOTH",
"283 526 OFFCURVE",
"250 526 OFFCURVE",
"220 512 CURVE SMOOTH",
"190 498 OFFCURVE",
"164 483 OFFCURVE",
"151 451 CURVE",
"149 451 LINE",
"149 714 LINE"
);
}
);
width = 556;
}
);
note = h;
unicode = 0068;
},
{
glyphname = i;
lastChange = "2016-01-23 07:54:38 +0000";
layers = (
{
layerId = "B170CD55-4C38-4AB6-AD9A-F7E1CB90D307";
name = Regular;
paths = (
{
closed = 1;
nodes = (
"154 610 LINE",
"154 694 LINE",
"69 694 LINE",
"69 610 LINE"
);
},
{
closed = 1;
nodes = (
"69 517 LINE",
"69 0 LINE",
"154 0 LINE",
"154 517 LINE"
);
}
);
width = 222;
}
);
note = i;
unicode = 0069;
},
{
glyphname = j;
lastChange = "2016-01-24 01:37:20 +0000";
layers = (
{
layerId = "B170CD55-4C38-4AB6-AD9A-F7E1CB90D307";
name = Regular;
paths = (
{
closed = 1;
nodes = (
"154 610 LINE",
"154 694 LINE",
"69 694 LINE",
"69 610 LINE"
);
},
{
closed = 1;
nodes = (
"154 517 LINE",
"69 517 LINE",
"69 -51 LINE SMOOTH",
"69 -104 OFFCURVE",
"58 -122 OFFCURVE",
"21 -122 CURVE SMOOTH",
"3 -122 LINE SMOOTH",
"-2 -122 OFFCURVE",
"-6 -121 OFFCURVE",
"-13 -120 CURVE",
"-13 -193 LINE",
"0 -196 OFFCURVE",
"15 -197 OFFCURVE",
"30 -197 CURVE SMOOTH",
"106 -197 OFFCURVE",
"154 -157 OFFCURVE",
"154 -65 CURVE SMOOTH"
);
}
);
width = 222;
}
);
note = j;
unicode = 006A;
},
{
glyphname = k;
layers = (
{
layerId = "B170CD55-4C38-4AB6-AD9A-F7E1CB90D307";
name = Regular;
paths = (
{
closed = 1;
nodes = (
"69 714 LINE",
"69 0 LINE",
"154 0 LINE",
"154 196 LINE",
"234 270 LINE",
"411 0 LINE",
"519 0 LINE",
"299 329 LINE",
"504 517 LINE",
"390 517 LINE",
"154 291 LINE",
"154 714 LINE"
);
}
);
width = 519;
}
);
note = k;
unicode = 006B;
},
{
glyphname = l;
layers = (
{
layerId = "B170CD55-4C38-4AB6-AD9A-F7E1CB90D307";
name = Regular;
paths = (
{
closed = 1;
nodes = (
"69 714 LINE",
"69 0 LINE",
"154 0 LINE",
"154 714 LINE"
);
}
);
width = 222;
}
);
note = l;
unicode = 006C;
},
{
glyphname = m;
lastChange = "2016-01-23 16:57:48 +0000";
layers = (
{
layerId = "B170CD55-4C38-4AB6-AD9A-F7E1CB90D307";
name = Regular;
paths = (
{
closed = 1;
nodes = (
"64 517 LINE",
"64 0 LINE",
"149 0 LINE",
"149 322 LINE SMOOTH",
"149 342 OFFCURVE",
"159 375 OFFCURVE",
"181 403 CURVE SMOOTH",
"203 431 OFFCURVE",
"238 454 OFFCURVE",
"287 454 CURVE SMOOTH",
"326 454 OFFCURVE",
"349 442 OFFCURVE",
"364 422 CURVE SMOOTH",
"379 401 OFFCURVE",
"384 372 OFFCURVE",
"384 339 CURVE SMOOTH",
"384 0 LINE",
"469 0 LINE",
"469 322 LINE SMOOTH",
"469 402 OFFCURVE",
"520 454 OFFCURVE",
"604 454 CURVE SMOOTH",
"645 454 OFFCURVE",
"670 441 OFFCURVE",
"685 421 CURVE SMOOTH",
"700 400 OFFCURVE",
"704 371 OFFCURVE",
"704 339 CURVE SMOOTH",
"704 0 LINE",
"789 0 LINE",
"789 379 LINE SMOOTH",
"789 432 OFFCURVE",
"772 467 OFFCURVE",
"742 491 CURVE SMOOTH",
"712 515 OFFCURVE",
"669 526 OFFCURVE",
"617 526 CURVE SMOOTH",
"549 526 OFFCURVE",
"490 497 OFFCURVE",
"455 441 CURVE",
"434 505 OFFCURVE",
"377 526 OFFCURVE",
"313 526 CURVE SMOOTH",
"240 526 OFFCURVE",
"185 507 OFFCURVE",
"146 448 CURVE",
"144 448 LINE",
"144 517 LINE"
);
}
);
width = 853;
}
);
note = m;
unicode = 006D;
},
{
glyphname = n;
lastChange = "2016-01-23 16:58:07 +0000";
layers = (
{
layerId = "B170CD55-4C38-4AB6-AD9A-F7E1CB90D307";
name = Regular;
paths = (
{
closed = 1;
nodes = (
"64 517 LINE",
"64 0 LINE",
"149 0 LINE",
"149 292 LINE SMOOTH",
"149 339 OFFCURVE",
"162 377 OFFCURVE",
"187 406 CURVE SMOOTH",
"212 435 OFFCURVE",
"250 452 OFFCURVE",
"302 452 CURVE SMOOTH",
"367 452 OFFCURVE",
"407 412 OFFCURVE",
"407 348 CURVE SMOOTH",
"407 0 LINE",
"492 0 LINE",
"492 338 LINE SMOOTH",
"492 394 OFFCURVE",
"482 441 OFFCURVE",
"454 474 CURVE SMOOTH",
"426 507 OFFCURVE",
"382 525 OFFCURVE",
"314 525 CURVE SMOOTH",
"237 525 OFFCURVE",
"181 515 OFFCURVE",
"146 454 CURVE",
"144 454 LINE",
"144 517 LINE"
);
}
);
width = 556;
}
);
note = n;
unicode = 006E;
},
{
glyphname = o;
layers = (
{
layerId = "B170CD55-4C38-4AB6-AD9A-F7E1CB90D307";
name = Regular;
paths = (
{
closed = 1;
nodes = (
"126 321 OFFCURVE",
"144 370 OFFCURVE",
"173 403 CURVE SMOOTH",
"202 436 OFFCURVE",
"243 454 OFFCURVE",
"287 454 CURVE SMOOTH",
"331 454 OFFCURVE",
"372 436 OFFCURVE",
"401 403 CURVE SMOOTH",
"430 370 OFFCURVE",
"448 321 OFFCURVE",
"448 258 CURVE SMOOTH",
"448 195 OFFCURVE",
"430 146 OFFCURVE",
"401 114 CURVE SMOOTH",
"372 81 OFFCURVE",
"331 63 OFFCURVE",
"287 63 CURVE SMOOTH",
"243 63 OFFCURVE",
"202 81 OFFCURVE",
"173 114 CURVE SMOOTH",
"144 146 OFFCURVE",
"126 195 OFFCURVE",
"126 258 CURVE SMOOTH"
);
},
{
closed = 1;
nodes = (
"36 182 OFFCURVE",
"57 115 OFFCURVE",
"100 67 CURVE SMOOTH",
"143 18 OFFCURVE",
"206 -11 OFFCURVE",
"287 -11 CURVE SMOOTH",
"370 -11 OFFCURVE",
"431 18 OFFCURVE",
"474 67 CURVE SMOOTH",
"517 115 OFFCURVE",
"538 182 OFFCURVE",
"538 258 CURVE SMOOTH",
"538 334 OFFCURVE",
"517 402 OFFCURVE",
"474 451 CURVE SMOOTH",
"431 499 OFFCURVE",
"370 529 OFFCURVE",
"287 529 CURVE SMOOTH",
"206 529 OFFCURVE",
"143 499 OFFCURVE",
"100 451 CURVE SMOOTH",
"57 402 OFFCURVE",
"36 334 OFFCURVE",
"36 258 CURVE SMOOTH"
);
}
);
width = 574;
}
);
note = o;
unicode = 006F;
},
{
glyphname = p;
layers = (
{
layerId = "B170CD55-4C38-4AB6-AD9A-F7E1CB90D307";
name = Regular;
paths = (
{
closed = 1;
nodes = (
"67 517 LINE",
"67 -197 LINE",
"152 -197 LINE",
"152 69 LINE",
"154 69 LINE",
"173 38 OFFCURVE",
"201 18 OFFCURVE",
"232 6 CURVE SMOOTH",
"263 -6 OFFCURVE",
"296 -11 OFFCURVE",
"321 -11 CURVE SMOOTH",
"400 -11 OFFCURVE",
"459 19 OFFCURVE",
"499 68 CURVE SMOOTH",
"538 116 OFFCURVE",
"557 184 OFFCURVE",
"557 257 CURVE SMOOTH",
"557 330 OFFCURVE",
"537 398 OFFCURVE",
"498 448 CURVE SMOOTH",
"458 498 OFFCURVE",
"399 529 OFFCURVE",
"319 529 CURVE SMOOTH",
"247 529 OFFCURVE",
"182 504 OFFCURVE",
"154 447 CURVE",
"152 447 LINE",
"152 517 LINE"
);
},
{
closed = 1;
nodes = (
"467 212 OFFCURVE",
"457 162 OFFCURVE",
"433 125 CURVE SMOOTH",
"409 88 OFFCURVE",
"371 63 OFFCURVE",
"312 63 CURVE SMOOTH",
"253 63 OFFCURVE",
"213 87 OFFCURVE",
"187 123 CURVE SMOOTH",
"161 159 OFFCURVE",
"149 208 OFFCURVE",
"149 259 CURVE SMOOTH",
"149 307 OFFCURVE",
"160 356 OFFCURVE",
"185 393 CURVE SMOOTH",
"210 429 OFFCURVE",
"250 454 OFFCURVE",
"307 454 CURVE SMOOTH",
"362 454 OFFCURVE",
"403 431 OFFCURVE",
"429 395 CURVE SMOOTH",
"455 359 OFFCURVE",
"467 311 OFFCURVE",
"467 263 CURVE SMOOTH"
);
}
);
width = 593;
}
);
note = p;
unicode = 0070;
},
{
glyphname = q;
layers = (
{
layerId = "B170CD55-4C38-4AB6-AD9A-F7E1CB90D307";
name = Regular;
paths = (
{
closed = 1;
nodes = (
"126 305 OFFCURVE",
"136 355 OFFCURVE",
"160 392 CURVE SMOOTH",
"184 429 OFFCURVE",
"224 454 OFFCURVE",
"281 454 CURVE SMOOTH",
"340 454 OFFCURVE",
"381 430 OFFCURVE",
"407 394 CURVE SMOOTH",
"433 358 OFFCURVE",
"444 309 OFFCURVE",
"444 258 CURVE SMOOTH",
"444 210 OFFCURVE",
"433 161 OFFCURVE",
"408 125 CURVE SMOOTH",
"383 88 OFFCURVE",
"343 63 OFFCURVE",
"286 63 CURVE SMOOTH",
"231 63 OFFCURVE",
"191 86 OFFCURVE",
"165 122 CURVE SMOOTH",
"139 158 OFFCURVE",
"126 206 OFFCURVE",
"126 254 CURVE SMOOTH"
);
},
{
closed = 1;
nodes = (
"526 -197 LINE",
"526 517 LINE",
"441 517 LINE",
"441 448 LINE",
"439 448 LINE",
"420 479 OFFCURVE",
"392 499 OFFCURVE",
"361 512 CURVE SMOOTH",
"330 524 OFFCURVE",
"299 529 OFFCURVE",
"272 529 CURVE SMOOTH",
"193 529 OFFCURVE",
"134 498 OFFCURVE",
"95 450 CURVE SMOOTH",
"55 401 OFFCURVE",
"36 333 OFFCURVE",
"36 260 CURVE SMOOTH",
"36 187 OFFCURVE",
"56 119 OFFCURVE",
"96 70 CURVE SMOOTH",
"135 21 OFFCURVE",
"194 -11 OFFCURVE",
"274 -11 CURVE SMOOTH",
"346 -11 OFFCURVE",
"411 13 OFFCURVE",
"439 70 CURVE",
"441 70 LINE",
"441 -197 LINE"
);
}
);
width = 593;
}
);
note = q;
unicode = 0071;
},
{
glyphname = r;
lastChange = "2016-01-24 16:32:42 +0000";
layers = (
{
layerId = "B170CD55-4C38-4AB6-AD9A-F7E1CB90D307";
name = Regular;
paths = (
{
closed = 1;
nodes = (
"61 508 LINE",
"61 0 LINE",
"146 0 LINE",
"146 230 LINE SMOOTH",
"146 297 OFFCURVE",
"159 348 OFFCURVE",
"188 384 CURVE SMOOTH",
"217 420 OFFCURVE",
"255 439 OFFCURVE",
"323 439 CURVE",
"323 519 LINE",
"231 519 OFFCURVE",
"192 498 OFFCURVE",
"143 437 CURVE",
"141 437 LINE",
"141 508 LINE"
);
}
);
width = 335;
}
);
note = r;
unicode = 0072;
},
{
glyphname = s;
lastChange = "2016-01-23 17:06:05 +0000";
layers = (
{
layerId = "B170CD55-4C38-4AB6-AD9A-F7E1CB90D307";
name = Regular;
paths = (
{
closed = 1;
nodes = (
"36 153 LINE",
"39 89 OFFCURVE",
"64 55 OFFCURVE",
"104 28 CURVE SMOOTH",
"144 0 OFFCURVE",
"193 -11 OFFCURVE",
"250 -11 CURVE SMOOTH",
"302 -11 OFFCURVE",
"358 -2 OFFCURVE",
"400 23 CURVE SMOOTH",
"442 48 OFFCURVE",
"470 88 OFFCURVE",
"470 151 CURVE SMOOTH",
"470 200 OFFCURVE",
"449 233 OFFCURVE",
"418 255 CURVE SMOOTH",
"386 277 OFFCURVE",
"344 289 OFFCURVE",
"301 298 CURVE",
"281 303 OFFCURVE",
"261 307 OFFCURVE",
"241 312 CURVE",
"201 320 OFFCURVE",
"168 332 OFFCURVE",
"148 352 CURVE",
"137 361 OFFCURVE",
"132 373 OFFCURVE",
"132 388 CURVE SMOOTH",
"132 415 OFFCURVE",
"147 431 OFFCURVE",
"168 441 CURVE SMOOTH",
"189 451 OFFCURVE",
"217 454 OFFCURVE",
"242 454 CURVE SMOOTH",
"270 454 OFFCURVE",
"300 448 OFFCURVE",
"323 435 CURVE SMOOTH",
"346 422 OFFCURVE",
"361 410 OFFCURVE",
"364 377 CURVE",
"449 377 LINE",
"445 440 OFFCURVE",
"422 471 OFFCURVE",
"384 496 CURVE SMOOTH",
"346 520 OFFCURVE",
"294 529 OFFCURVE",
"235 529 CURVE SMOOTH",
"190 529 OFFCURVE",
"141 518 OFFCURVE",
"105 495 CURVE SMOOTH",
"68 471 OFFCURVE",
"42 434 OFFCURVE",
"42 382 CURVE SMOOTH",
"42 315 OFFCURVE",
"80 281 OFFCURVE",
"130 261 CURVE SMOOTH",
"155 250 OFFCURVE",
"182 242 OFFCURVE",
"211 237 CURVE SMOOTH",
"270 225 OFFCURVE",
"322 213 OFFCURVE",
"355 190 CURVE SMOOTH",
"372 179 OFFCURVE",
"380 162 OFFCURVE",
"380 140 CURVE SMOOTH",
"380 108 OFFCURVE",
"362 88 OFFCURVE",
"338 77 CURVE SMOOTH",
"313 66 OFFCURVE",
"282 63 OFFCURVE",
"255 63 CURVE SMOOTH",
"220 63 OFFCURVE",
"192 69 OFFCURVE",
"166 85 CURVE SMOOTH",
"140 100 OFFCURVE",
"122 116 OFFCURVE",
"121 153 CURVE"
);
}
);
width = 500;
}
);
note = s;
unicode = 0073;
},
{
glyphname = t;
lastChange = "2016-01-24 01:14:18 +0000";
layers = (
{
layerId = "B170CD55-4C38-4AB6-AD9A-F7E1CB90D307";
name = Regular;
paths = (
{
closed = 1;
nodes = (
"182 517 LINE",
"182 662 LINE",
"97 662 LINE",
"97 517 LINE",
"29 517 LINE",
"29 442 LINE",
"97 442 LINE",
"97 113 LINE SMOOTH",
"97 65 OFFCURVE",
"106 37 OFFCURVE",
"126 21 CURVE SMOOTH",
"145 5 OFFCURVE",
"176 0 OFFCURVE",
"220 0 CURVE SMOOTH",
"258 0 LINE",
"258 75 LINE",
"239 75 LINE SMOOTH",
"212 75 OFFCURVE",
"203 76 OFFCURVE",
"194 83 CURVE SMOOTH",
"185 90 OFFCURVE",
"182 101 OFFCURVE",
"182 121 CURVE SMOOTH",
"182 442 LINE",
"285 442 LINE",
"285 517 LINE"
);
}
);
width = 315;
}
);
note = t;
unicode = 0074;
},
{
glyphname = u;
lastChange = "2016-01-23 16:59:15 +0000";
layers = (
{
layerId = "B170CD55-4C38-4AB6-AD9A-F7E1CB90D307";
name = Regular;
paths = (
{
closed = 1;
nodes = (
"492 0 LINE",
"492 517 LINE",
"407 517 LINE",
"407 225 LINE SMOOTH",
"407 178 OFFCURVE",
"394 138 OFFCURVE",
"369 109 CURVE SMOOTH",
"344 80 OFFCURVE",
"306 63 OFFCURVE",
"254 63 CURVE SMOOTH",
"189 63 OFFCURVE",
"149 103 OFFCURVE",
"149 167 CURVE SMOOTH",
"149 517 LINE",
"64 517 LINE",
"64 177 LINE SMOOTH",
"64 121 OFFCURVE",
"72 72 OFFCURVE",
"102 41 CURVE SMOOTH",
"130 12 OFFCURVE",
"174 -7 OFFCURVE",
"242 -7 CURVE SMOOTH",
"318 -7 OFFCURVE",
"374 -8 OFFCURVE",
"410 56 CURVE",
"412 56 LINE",
"412 0 LINE"
);
}
);
width = 556;
}
);
note = u;
unicode = 0075;
},
{
glyphname = v;
layers = (
{
layerId = "B170CD55-4C38-4AB6-AD9A-F7E1CB90D307";
name = Regular;
paths = (
{
closed = 1;
nodes = (
"297 0 LINE",
"486 517 LINE",
"397 517 LINE",
"256 86 LINE",
"254 86 LINE",
"109 517 LINE",
"14 517 LINE",
"206 0 LINE"
);
}
);
width = 500;
}
);
note = v;
unicode = 0076;
},
{
glyphname = w;
layers = (
{
layerId = "B170CD55-4C38-4AB6-AD9A-F7E1CB90D307";
name = Regular;
paths = (
{
closed = 1;
nodes = (
"576 0 LINE",
"741 517 LINE",
"653 517 LINE",
"537 94 LINE",
"535 94 LINE",
"427 517 LINE",
"334 517 LINE",
"230 94 LINE",
"228 94 LINE",
"111 517 LINE",
"17 517 LINE",
"183 0 LINE",
"275 0 LINE",
"379 411 LINE",
"381 411 LINE",
"486 0 LINE"
);
}
);
width = 758;
}
);
note = w;
unicode = 0077;
},
{
glyphname = x;
layers = (
{
layerId = "B170CD55-4C38-4AB6-AD9A-F7E1CB90D307";
name = Regular;
paths = (
{
closed = 1;
nodes = (
"203 272 LINE",
"9 0 LINE",
"112 0 LINE",
"256 214 LINE",
"400 0 LINE",
"509 0 LINE",
"309 279 LINE",
"487 517 LINE",
"385 517 LINE",
"256 336 LINE",
"132 517 LINE",
"23 517 LINE"
);
}
);
width = 518;
}
);
note = x;
unicode = 0078;
},
{
glyphname = y;
lastChange = "2016-01-23 16:39:06 +0000";
layers = (
{
layerId = "B170CD55-4C38-4AB6-AD9A-F7E1CB90D307";
name = Regular;
paths = (
{
closed = 1;
nodes = (
"267 -69 LINE SMOOTH",
"247 -120 OFFCURVE",
"229 -153 OFFCURVE",
"206 -175 CURVE SMOOTH",
"182 -197 OFFCURVE",
"154 -204 OFFCURVE",
"117 -204 CURVE",
"89 -204 LINE",
"89 -129 LINE",
"108 -129 LINE",
"143 -129 OFFCURVE",
"166 -115 OFFCURVE",
"178 -84 CURVE SMOOTH",
"213 3 LINE",
"8 517 LINE",
"104 517 LINE",
"255 94 LINE",
"257 94 LINE",
"402 517 LINE",
"492 517 LINE"
);
}
);
width = 500;
}
);
note = y;
unicode = 0079;
},
{
glyphname = z;
layers = (
{
layerId = "B170CD55-4C38-4AB6-AD9A-F7E1CB90D307";
name = Regular;
paths = (
{
closed = 1;
nodes = (
"22 65 LINE",
"22 0 LINE",
"458 0 LINE",
"458 75 LINE",
"128 75 LINE",
"444 459 LINE",
"444 517 LINE",
"42 517 LINE",
"42 442 LINE",
"334 442 LINE"
);
}
);
width = 480;
}
);
note = z;
unicode = 007A;
},
{
glyphname = braceleft;
layers = (
{
layerId = "B170CD55-4C38-4AB6-AD9A-F7E1CB90D307";
name = Regular;
paths = (
{
closed = 1;
nodes = (
"309 671 LINE",
"309 731 LINE",
"239 731 LINE SMOOTH",
"214 731 OFFCURVE",
"187 720 OFFCURVE",
"167 698 CURVE SMOOTH",
"146 676 OFFCURVE",
"131 643 OFFCURVE",
"131 600 CURVE SMOOTH",
"131 418 LINE SMOOTH",
"131 383 OFFCURVE",
"121 353 OFFCURVE",
"106 333 CURVE SMOOTH",
"90 312 OFFCURVE",
"69 300 OFFCURVE",
"48 300 CURVE",
"48 232 LINE",
"69 232 OFFCURVE",
"90 221 OFFCURVE",
"106 201 CURVE SMOOTH",
"121 181 OFFCURVE",
"131 151 OFFCURVE",
"131 115 CURVE SMOOTH",
"131 -66 LINE SMOOTH",
"131 -109 OFFCURVE",
"146 -141 OFFCURVE",
"167 -163 CURVE SMOOTH",
"187 -185 OFFCURVE",
"214 -197 OFFCURVE",
"239 -197 CURVE SMOOTH",
"309 -197 LINE",
"309 -137 LINE",
"259 -137 LINE SMOOTH",
"239 -137 OFFCURVE",
"228 -126 OFFCURVE",
"221 -109 CURVE",
"213 -93 OFFCURVE",
"211 -71 OFFCURVE",
"211 -51 CURVE SMOOTH",
"211 131 LINE SMOOTH",
"211 182 OFFCURVE",
"195 214 OFFCURVE",
"176 235 CURVE SMOOTH",
"157 255 OFFCURVE",
"136 264 OFFCURVE",
"124 265 CURVE",
"124 268 LINE",
"136 271 OFFCURVE",
"157 281 OFFCURVE",
"176 302 CURVE SMOOTH",
"195 323 OFFCURVE",
"211 355 OFFCURVE",
"211 402 CURVE SMOOTH",
"211 585 LINE SMOOTH",
"211 606 OFFCURVE",
"213 628 OFFCURVE",
"221 644 CURVE",
"228 660 OFFCURVE",
"239 671 OFFCURVE",
"259 671 CURVE SMOOTH"
);
}
);
width = 333;
}
);
note = braceleft;
unicode = 007B;
},
{
glyphname = bar;
layers = (
{
layerId = "B170CD55-4C38-4AB6-AD9A-F7E1CB90D307";
name = Regular;
paths = (
{
closed = 1;
nodes = (
"77 786 LINE",
"77 -213 LINE",
"145 -213 LINE",
"145 786 LINE"
);
}
);
width = 222;
}
);
note = bar;
unicode = 007C;
},
{
glyphname = braceright;
layers = (
{
layerId = "B170CD55-4C38-4AB6-AD9A-F7E1CB90D307";
name = Regular;
paths = (
{
closed = 1;
nodes = (
"24 -137 LINE",
"24 -197 LINE",
"94 -197 LINE SMOOTH",
"119 -197 OFFCURVE",
"146 -185 OFFCURVE",
"167 -163 CURVE SMOOTH",
"187 -141 OFFCURVE",
"202 -109 OFFCURVE",
"202 -66 CURVE SMOOTH",
"202 115 LINE SMOOTH",
"202 150 OFFCURVE",
"212 179 OFFCURVE",
"228 200 CURVE SMOOTH",
"243 220 OFFCURVE",
"264 232 OFFCURVE",
"285 232 CURVE",
"285 300 LINE",
"264 300 OFFCURVE",
"243 311 OFFCURVE",
"228 332 CURVE",
"212 352 OFFCURVE",
"202 382 OFFCURVE",
"202 418 CURVE SMOOTH",
"202 600 LINE SMOOTH",
"202 643 OFFCURVE",
"187 676 OFFCURVE",
"167 698 CURVE SMOOTH",
"146 720 OFFCURVE",
"119 731 OFFCURVE",
"94 731 CURVE SMOOTH",
"24 731 LINE",
"24 671 LINE",
"74 671 LINE SMOOTH",
"94 671 OFFCURVE",
"105 660 OFFCURVE",
"113 644 CURVE",
"120 627 OFFCURVE",
"122 606 OFFCURVE",
"122 583 CURVE SMOOTH",
"122 402 LINE SMOOTH",
"122 351 OFFCURVE",
"138 319 OFFCURVE",
"157 299 CURVE SMOOTH",
"176 278 OFFCURVE",
"197 269 OFFCURVE",
"209 268 CURVE",
"209 265 LINE",
"197 262 OFFCURVE",
"176 252 OFFCURVE",
"157 231 CURVE SMOOTH",
"138 210 OFFCURVE",
"122 178 OFFCURVE",
"122 131 CURVE SMOOTH",
"122 -51 LINE SMOOTH",
"122 -72 OFFCURVE",
"120 -94 OFFCURVE",
"113 -110 CURVE",
"105 -126 OFFCURVE",
"94 -137 OFFCURVE",
"74 -137 CURVE SMOOTH"
);
}
);
width = 333;
}
);
note = braceright;
unicode = 007D;
},
{
glyphname = asciitilde;
layers = (
{
layerId = "B170CD55-4C38-4AB6-AD9A-F7E1CB90D307";
name = Regular;
paths = (
{
closed = 1;
nodes = (
"533 342 OFFCURVE",
"515 315 OFFCURVE",
"492 295 CURVE SMOOTH",
"469 274 OFFCURVE",
"442 260 OFFCURVE",
"406 260 CURVE SMOOTH",
"365 260 OFFCURVE",
"327 279 OFFCURVE",
"292 298 CURVE SMOOTH",
"256 317 OFFCURVE",
"222 336 OFFCURVE",
"189 336 CURVE SMOOTH",
"146 336 OFFCURVE",
"118 296 OFFCURVE",
"102 260 CURVE",
"48 308 LINE",
"60 335 OFFCURVE",
"77 363 OFFCURVE",
"101 384 CURVE SMOOTH",
"125 404 OFFCURVE",
"155 418 OFFCURVE",
"194 418 CURVE SMOOTH",
"230 418 OFFCURVE",
"269 399 OFFCURVE",
"306 380 CURVE SMOOTH",
"342 361 OFFCURVE",
"378 342 OFFCURVE",
"407 342 CURVE SMOOTH",
"427 342 OFFCURVE",
"444 352 OFFCURVE",
"458 367 CURVE SMOOTH",
"465 374 OFFCURVE",
"471 383 OFFCURVE",
"477 392 CURVE SMOOTH",
"483 401 OFFCURVE",
"489 409 OFFCURVE",
"495 418 CURVE",
"549 370 LINE"
);
}
);
width = 600;
}
);
note = asciitilde;
unicode = 007E;
},
{
glyphname = exclamdown;
lastChange = "2016-01-24 17:16:15 +0000";
layers = (
{
layerId = "B170CD55-4C38-4AB6-AD9A-F7E1CB90D307";
name = Regular;
paths = (
{
closed = 1;
nodes = (
"185 406 LINE",
"185 517 LINE",
"74 517 LINE",
"74 406 LINE"
);
},
{
closed = 1;
nodes = (
"82 22 LINE",
"82 -197 LINE",
"177 -197 LINE",
"177 22 LINE",
"162 333 LINE",
"97 333 LINE"
);
}
);
width = 259;
}
);
note = exclamdown;
unicode = 00A1;
},
{
glyphname = cent;
layers = (
{
layerId = "B170CD55-4C38-4AB6-AD9A-F7E1CB90D307";
name = Regular;
paths = (
{
closed = 1;
nodes = (
"272 -115 LINE",
"311 -115 LINE",
"311 -11 LINE",
"374 -11 OFFCURVE",
"422 14 OFFCURVE",
"457 52 CURVE SMOOTH",
"492 90 OFFCURVE",
"512 140 OFFCURVE",
"517 189 CURVE",
"432 189 LINE",
"421 121 OFFCURVE",
"383 70 OFFCURVE",
"311 63 CURVE",
"311 454 LINE",
"375 451 OFFCURVE",
"414 412 OFFCURVE",
"427 351 CURVE",
"514 351 LINE",
"506 411 OFFCURVE",
"483 456 OFFCURVE",
"448 485 CURVE SMOOTH",
"412 513 OFFCURVE",
"366 528 OFFCURVE",
"311 529 CURVE",
"311 624 LINE",
"272 624 LINE",
"272 529 LINE",
"197 524 OFFCURVE",
"141 491 OFFCURVE",
"103 441 CURVE SMOOTH",
"65 391 OFFCURVE",
"46 324 OFFCURVE",
"46 252 CURVE SMOOTH",
"46 179 OFFCURVE",
"67 114 OFFCURVE",
"105 67 CURVE SMOOTH",
"143 20 OFFCURVE",
"199 -8 OFFCURVE",
"272 -11 CURVE"
);
},
{
closed = 1;
nodes = (
"272 63 LINE",
"224 67 OFFCURVE",
"190 91 OFFCURVE",
"168 126 CURVE SMOOTH",
"146 161 OFFCURVE",
"136 207 OFFCURVE",
"136 252 CURVE SMOOTH",
"136 301 OFFCURVE",
"145 349 OFFCURVE",
"166 386 CURVE SMOOTH",
"186 422 OFFCURVE",
"220 447 OFFCURVE",
"272 454 CURVE"
);
}
);
width = 556;
}
);
note = cent;
unicode = 00A2;
},
{
glyphname = sterling;
layers = (
{
layerId = "B170CD55-4C38-4AB6-AD9A-F7E1CB90D307";
name = Regular;
paths = (
{
closed = 1;
nodes = (
"105 372 LINE",
"78 417 OFFCURVE",
"58 464 OFFCURVE",
"58 528 CURVE SMOOTH",
"58 592 OFFCURVE",
"85 642 OFFCURVE",
"127 677 CURVE SMOOTH",
"169 712 OFFCURVE",
"225 731 OFFCURVE",
"286 731 CURVE SMOOTH",
"434 731 OFFCURVE",
"525 645 OFFCURVE",
"522 473 CURVE",
"437 473 LINE",
"434 590 OFFCURVE",
"387 656 OFFCURVE",
"291 656 CURVE SMOOTH",
"251 656 OFFCURVE",
"216 642 OFFCURVE",
"190 619 CURVE SMOOTH",
"164 595 OFFCURVE",
"148 562 OFFCURVE",
"148 525 CURVE SMOOTH",
"148 493 OFFCURVE",
"156 466 OFFCURVE",
"166 442 CURVE SMOOTH",
"171 430 OFFCURVE",
"176 418 OFFCURVE",
"182 407 CURVE SMOOTH",
"188 396 OFFCURVE",
"194 384 OFFCURVE",
"200 372 CURVE",
"359 372 LINE",
"359 327 LINE",
"222 327 LINE",
"233 306 OFFCURVE",
"242 280 OFFCURVE",
"242 252 CURVE SMOOTH",
"242 207 OFFCURVE",
"227 173 OFFCURVE",
"206 143 CURVE SMOOTH",
"185 113 OFFCURVE",
"155 88 OFFCURVE",
"126 64 CURVE",
"128 62 LINE",
"163 77 OFFCURVE",
"193 91 OFFCURVE",
"233 91 CURVE SMOOTH",
"272 91 OFFCURVE",
"301 83 OFFCURVE",
"328 76 CURVE SMOOTH",
"355 68 OFFCURVE",
"381 58 OFFCURVE",
"412 58 CURVE SMOOTH",
"444 58 OFFCURVE",
"477 76 OFFCURVE",
"501 95 CURVE",
"544 29 LINE",
"504 -6 OFFCURVE",
"450 -16 OFFCURVE",
"398 -16 CURVE SMOOTH",
"365 -16 OFFCURVE",
"334 -6 OFFCURVE",
"299 3 CURVE",
"266 14 OFFCURVE",
"233 24 OFFCURVE",
"194 24 CURVE SMOOTH",
"155 24 OFFCURVE",
"125 10 OFFCURVE",
"94 -10 CURVE",
"47 55 LINE",
"75 74 OFFCURVE",
"103 99 OFFCURVE",
"124 130 CURVE SMOOTH",
"144 161 OFFCURVE",
"157 195 OFFCURVE",
"157 234 CURVE SMOOTH",
"157 265 OFFCURVE",
"144 300 OFFCURVE",
"132 327 CURVE",
"47 327 LINE",
"47 372 LINE"
);
}
);
width = 556;
}
);
note = sterling;
unicode = 00A3;
},
{
glyphname = currency;
layers = (
{
layerId = "B170CD55-4C38-4AB6-AD9A-F7E1CB90D307";
name = Regular;
paths = (
{
closed = 1;
nodes = (
"328 524 OFFCURVE",
"368 504 OFFCURVE",
"397 473 CURVE SMOOTH",
"425 441 OFFCURVE",
"443 398 OFFCURVE",
"443 351 CURVE SMOOTH",
"443 303 OFFCURVE",
"425 259 OFFCURVE",
"397 228 CURVE SMOOTH",
"368 196 OFFCURVE",
"327 176 OFFCURVE",
"280 176 CURVE SMOOTH",
"233 176 OFFCURVE",
"192 195 OFFCURVE",
"162 226 CURVE SMOOTH",
"132 257 OFFCURVE",
"113 301 OFFCURVE",
"113 349 CURVE SMOOTH",
"113 398 OFFCURVE",
"132 442 OFFCURVE",
"162 474 CURVE SMOOTH",
"192 505 OFFCURVE",
"233 524 OFFCURVE",
"281 524 CURVE SMOOTH"
);
},
{
closed = 1;
nodes = (
"74 604 LINE",
"25 555 LINE",
"82 497 LINE",
"45 460 OFFCURVE",
"28 405 OFFCURVE",
"28 349 CURVE SMOOTH",
"28 293 OFFCURVE",
"47 243 OFFCURVE",
"80 203 CURVE",
"25 145 LINE",
"73 97 LINE",
"128 155 LINE",
"168 119 OFFCURVE",
"220 101 OFFCURVE",
"280 101 CURVE SMOOTH",
"336 101 OFFCURVE",
"389 120 OFFCURVE",
"428 156 CURVE",
"484 98 LINE",
"531 145 LINE",
"476 201 LINE",
"511 242 OFFCURVE",
"528 295 OFFCURVE",
"528 351 CURVE SMOOTH",
"528 407 OFFCURVE",
"511 462 OFFCURVE",
"476 499 CURVE",
"531 554 LINE",
"481 605 LINE",
"424 549 LINE",
"388 580 OFFCURVE",
"334 599 OFFCURVE",
"281 599 CURVE SMOOTH",
"225 599 OFFCURVE",
"169 580 OFFCURVE",
"130 548 CURVE"
);
}
);
width = 556;
}
);
note = currency;
unicode = 00A4;
},
{
glyphname = yen;
layers = (
{
layerId = "B170CD55-4C38-4AB6-AD9A-F7E1CB90D307";
name = Regular;
paths = (
{
closed = 1;
nodes = (
"232 174 LINE",
"232 0 LINE",
"327 0 LINE",
"327 174 LINE",
"471 174 LINE",
"471 234 LINE",
"327 234 LINE",
"327 276 LINE",
"345 309 LINE",
"471 309 LINE",
"471 369 LINE",
"378 369 LINE",
"556 714 LINE",
"452 714 LINE",
"283 361 LINE",
"109 714 LINE",
"0 714 LINE",
"183 369 LINE",
"91 369 LINE",
"91 309 LINE",
"214 309 LINE",
"232 276 LINE",
"232 234 LINE",
"91 234 LINE",
"91 174 LINE"
);
}
);
width = 556;
}
);
note = yen;
unicode = 00A5;
},
{
glyphname = brokenbar;
layers = (
{
layerId = "B170CD55-4C38-4AB6-AD9A-F7E1CB90D307";
name = Regular;
paths = (
{
closed = 1;
nodes = (
"145 411 LINE",
"145 661 LINE",
"77 661 LINE",
"77 411 LINE"
);
},
{
closed = 1;
nodes = (
"77 161 LINE",
"77 -88 LINE",
"145 -88 LINE",
"145 161 LINE"
);
}
);
width = 222;
}
);
note = brokenbar;
unicode = 00A6;
},
{
glyphname = section;
layers = (
{
layerId = "B170CD55-4C38-4AB6-AD9A-F7E1CB90D307";
name = Regular;
paths = (
{
closed = 1;
nodes = (
"465 546 LINE",
"462 671 OFFCURVE",
"390 731 OFFCURVE",
"281 731 CURVE SMOOTH",
"236 731 OFFCURVE",
"189 717 OFFCURVE",
"154 689 CURVE SMOOTH",
"119 661 OFFCURVE",
"96 621 OFFCURVE",
"96 569 CURVE SMOOTH",
"96 526 OFFCURVE",
"113 494 OFFCURVE",
"142 463 CURVE",
"113 455 OFFCURVE",
"86 436 OFFCURVE",
"67 412 CURVE SMOOTH",
"47 387 OFFCURVE",
"35 356 OFFCURVE",
"35 325 CURVE SMOOTH",
"35 270 OFFCURVE",
"57 230 OFFCURVE",
"90 197 CURVE SMOOTH",
"122 164 OFFCURVE",
"166 139 OFFCURVE",
"209 116 CURVE SMOOTH",
"253 92 OFFCURVE",
"296 70 OFFCURVE",
"329 46 CURVE SMOOTH",
"361 22 OFFCURVE",
"383 -6 OFFCURVE",
"383 -39 CURVE SMOOTH",
"383 -67 OFFCURVE",
"370 -87 OFFCURVE",
"351 -101 CURVE SMOOTH",
"332 -115 OFFCURVE",
"306 -122 OFFCURVE",
"282 -122 CURVE SMOOTH",
"214 -122 OFFCURVE",
"169 -76 OFFCURVE",
"168 -8 CURVE",
"83 -8 LINE",
"91 -125 OFFCURVE",
"164 -197 OFFCURVE",
"284 -197 CURVE SMOOTH",
"339 -197 OFFCURVE",
"385 -181 OFFCURVE",
"418 -153 CURVE SMOOTH",
"451 -125 OFFCURVE",
"471 -85 OFFCURVE",
"471 -37 CURVE SMOOTH",
"471 13 OFFCURVE",
"451 53 OFFCURVE",
"412 82 CURVE",
"472 106 OFFCURVE",
"516 162 OFFCURVE",
"516 229 CURVE SMOOTH",
"516 278 OFFCURVE",
"495 315 OFFCURVE",
"464 346 CURVE SMOOTH",
"433 377 OFFCURVE",
"391 400 OFFCURVE",
"350 423 CURVE SMOOTH",
"329 434 OFFCURVE",
"309 445 OFFCURVE",
"289 456 CURVE SMOOTH",
"249 477 OFFCURVE",
"217 501 OFFCURVE",
"198 527 CURVE SMOOTH",
"189 540 OFFCURVE",
"184 554 OFFCURVE",
"184 570 CURVE SMOOTH",
"184 630 OFFCURVE",
"226 656 OFFCURVE",
"279 656 CURVE SMOOTH",
"343 656 OFFCURVE",
"379 607 OFFCURVE",
"380 546 CURVE"
);
},
{
closed = 1;
nodes = (
"213 405 OFFCURVE",
"236 390 OFFCURVE",
"259 377 CURVE SMOOTH",
"282 363 OFFCURVE",
"305 349 OFFCURVE",
"328 335 CURVE SMOOTH",
"339 328 OFFCURVE",
"350 321 OFFCURVE",
"363 314 CURVE",
"387 298 OFFCURVE",
"410 279 OFFCURVE",
"424 256 CURVE SMOOTH",
"431 244 OFFCURVE",
"434 231 OFFCURVE",
"434 217 CURVE SMOOTH",
"434 172 OFFCURVE",
"401 140 OFFCURVE",
"362 124 CURVE",
"317 155 OFFCURVE",
"270 182 OFFCURVE",
"222 207 CURVE",
"210 214 OFFCURVE",
"198 222 OFFCURVE",
"185 230 CURVE SMOOTH",
"160 245 OFFCURVE",
"139 263 OFFCURVE",
"127 287 CURVE",
"120 299 OFFCURVE",
"117 313 OFFCURVE",
"117 329 CURVE SMOOTH",
"117 372 OFFCURVE",
"151 407 OFFCURVE",
"190 420 CURVE"
);
}
);
width = 556;
}
);
note = section;
unicode = 00A7;
},
{
glyphname = dieresis;
layers = (
{
layerId = "B170CD55-4C38-4AB6-AD9A-F7E1CB90D307";
name = Regular;
paths = (
{
closed = 1;
nodes = (
"-27 696 LINE",
"-27 592 LINE",
"62 592 LINE",
"62 696 LINE"
);
},
{
closed = 1;
nodes = (
"160 696 LINE",
"160 592 LINE",
"250 592 LINE",
"250 696 LINE"
);
}
);
width = 222;
}
);
note = dieresis;
unicode = 00A8;
},
{
glyphname = copyright;
layers = (
{
layerId = "B170CD55-4C38-4AB6-AD9A-F7E1CB90D307";
name = Regular;
paths = (
{
closed = 1;
nodes = (
"535 285 LINE",
"526 225 OFFCURVE",
"481 183 OFFCURVE",
"413 183 CURVE SMOOTH",
"365 183 OFFCURVE",
"327 204 OFFCURVE",
"300 236 CURVE SMOOTH",
"273 268 OFFCURVE",
"259 312 OFFCURVE",
"259 359 CURVE SMOOTH",
"259 407 OFFCURVE",
"273 449 OFFCURVE",
"298 481 CURVE SMOOTH",
"323 512 OFFCURVE",
"362 530 OFFCURVE",
"411 530 CURVE SMOOTH",
"479 530 OFFCURVE",
"524 489 OFFCURVE",
"535 433 CURVE",
"598 433 LINE",
"582 533 OFFCURVE",
"506 585 OFFCURVE",
"410 585 CURVE SMOOTH",
"342 585 OFFCURVE",
"286 561 OFFCURVE",
"249 521 CURVE SMOOTH",
"212 481 OFFCURVE",
"191 424 OFFCURVE",
"191 357 CURVE SMOOTH",
"191 292 OFFCURVE",
"212 234 OFFCURVE",
"251 194 CURVE SMOOTH",
"290 153 OFFCURVE",
"345 128 OFFCURVE",
"413 128 CURVE SMOOTH",
"505 128 OFFCURVE",
"578 188 OFFCURVE",
"599 285 CURVE"
);
},
{
closed = 1;
nodes = (
"92 448 OFFCURVE",
"125 528 OFFCURVE",
"181 585 CURVE SMOOTH",
"236 641 OFFCURVE",
"313 676 OFFCURVE",
"401 676 CURVE SMOOTH",
"488 676 OFFCURVE",
"564 641 OFFCURVE",
"620 585 CURVE SMOOTH",
"675 528 OFFCURVE",
"708 448 OFFCURVE",
"708 359 CURVE SMOOTH",
"708 267 OFFCURVE",
"675 187 OFFCURVE",
"620 130 CURVE SMOOTH",
"564 73 OFFCURVE",
"488 38 OFFCURVE",
"401 38 CURVE SMOOTH",
"313 38 OFFCURVE",
"236 73 OFFCURVE",
"181 130 CURVE SMOOTH",
"125 187 OFFCURVE",
"92 267 OFFCURVE",
"92 359 CURVE SMOOTH"
);
},
{
closed = 1;
nodes = (
"24 251 OFFCURVE",
"67 158 OFFCURVE",
"136 91 CURVE SMOOTH",
"204 23 OFFCURVE",
"298 -16 OFFCURVE",
"401 -16 CURVE SMOOTH",
"504 -16 OFFCURVE",
"597 23 OFFCURVE",
"665 91 CURVE SMOOTH",
"733 158 OFFCURVE",
"776 251 OFFCURVE",
"776 359 CURVE SMOOTH",
"776 464 OFFCURVE",
"733 557 OFFCURVE",
"665 624 CURVE SMOOTH",
"597 691 OFFCURVE",
"504 731 OFFCURVE",
"401 731 CURVE SMOOTH",
"298 731 OFFCURVE",
"204 691 OFFCURVE",
"136 624 CURVE SMOOTH",
"67 557 OFFCURVE",
"24 464 OFFCURVE",
"24 359 CURVE SMOOTH"
);
}
);
width = 800;
}
);
note = copyright;
unicode = 00A9;
},
{
glyphname = ordfeminine;
lastChange = "2016-01-24 00:28:37 +0000";
layers = (
{
layerId = "B170CD55-4C38-4AB6-AD9A-F7E1CB90D307";
name = Regular;
paths = (
{
closed = 1;
nodes = (
"122 430 OFFCURVE",
"93 436 OFFCURVE",
"93 471 CURVE SMOOTH",
"93 506 OFFCURVE",
"121 516 OFFCURVE",
"157 523 CURVE",
"176 526 OFFCURVE",
"194 529 OFFCURVE",
"213 532 CURVE SMOOTH",
"232 535 OFFCURVE",
"246 539 OFFCURVE",
"257 546 CURVE",
"257 499 LINE SMOOTH",
"257 484 OFFCURVE",
"250 466 OFFCURVE",
"234 453 CURVE SMOOTH",
"218 440 OFFCURVE",
"192 430 OFFCURVE",
"155 430 CURVE SMOOTH"
);
},
{
closed = 1;
nodes = (
"317 622 LINE SMOOTH",
"317 658 OFFCURVE",
"299 680 OFFCURVE",
"275 693 CURVE",
"250 705 OFFCURVE",
"218 709 OFFCURVE",
"187 709 CURVE SMOOTH",
"150 709 OFFCURVE",
"113 702 OFFCURVE",
"86 685 CURVE SMOOTH",
"59 668 OFFCURVE",
"41 642 OFFCURVE",
"40 603 CURVE",
"100 603 LINE",
"103 646 OFFCURVE",
"135 659 OFFCURVE",
"183 659 CURVE SMOOTH",
"202 659 OFFCURVE",
"221 658 OFFCURVE",
"236 651 CURVE SMOOTH",
"251 644 OFFCURVE",
"260 633 OFFCURVE",
"260 610 CURVE SMOOTH",
"260 597 OFFCURVE",
"254 589 OFFCURVE",
"238 583 CURVE SMOOTH",
"221 577 OFFCURVE",
"192 573 OFFCURVE",
"145 568 CURVE SMOOTH",
"116 565 OFFCURVE",
"86 558 OFFCURVE",
"63 543 CURVE SMOOTH",
"40 527 OFFCURVE",
"25 504 OFFCURVE",
"25 469 CURVE SMOOTH",
"25 438 OFFCURVE",
"39 416 OFFCURVE",
"60 401 CURVE SMOOTH",
"81 386 OFFCURVE",
"110 380 OFFCURVE",
"142 380 CURVE SMOOTH",
"191 380 OFFCURVE",
"230 395 OFFCURVE",
"259 426 CURVE",
"259 382 LINE",
"317 382 LINE"
);
}
);
width = 378;
}
);
note = ordfeminine;
unicode = 00AA;
},
{
glyphname = guillemotleft;
layers = (
{
layerId = "B170CD55-4C38-4AB6-AD9A-F7E1CB90D307";
name = Regular;
paths = (
{
closed = 1;
nodes = (
"50 234 LINE",
"202 114 LINE",
"202 200 LINE",
"102 278 LINE",
"202 356 LINE",
"202 442 LINE",
"50 322 LINE"
);
},
{
closed = 1;
nodes = (
"246 234 LINE",
"398 114 LINE",
"398 200 LINE",
"298 278 LINE",
"398 356 LINE",
"398 442 LINE",
"246 322 LINE"
);
}
);
width = 463;
}
);
note = guillemotleft;
unicode = 00AB;
},
{
glyphname = logicalnot;
layers = (
{
layerId = "B170CD55-4C38-4AB6-AD9A-F7E1CB90D307";
name = Regular;
paths = (
{
closed = 1;
nodes = (
"552 109 LINE",
"552 388 LINE",
"48 388 LINE",
"48 320 LINE",
"484 320 LINE",
"484 109 LINE"
);
}
);
width = 600;
}
);
note = logicalnot;
unicode = 00AC;
},
{
glyphname = uni00AD;
layers = (
{
layerId = "B170CD55-4C38-4AB6-AD9A-F7E1CB90D307";
name = Regular;
paths = (
{
closed = 1;
nodes = (
"50 318 LINE",
"339 318 LINE",
"339 238 LINE",
"50 238 LINE"
);
}
);
width = 389;
}
);
note = uni00AD;
unicode = 00AD;
},
{
glyphname = registered;
layers = (
{
layerId = "B170CD55-4C38-4AB6-AD9A-F7E1CB90D307";
name = Regular;
paths = (
{
closed = 1;
nodes = (
"323 382 LINE",
"323 521 LINE",
"413 521 LINE SMOOTH",
"436 521 OFFCURVE",
"461 518 OFFCURVE",
"479 509 CURVE SMOOTH",
"497 500 OFFCURVE",
"509 483 OFFCURVE",
"509 454 CURVE SMOOTH",
"509 419 OFFCURVE",
"495 401 OFFCURVE",
"474 392 CURVE SMOOTH",
"453 383 OFFCURVE",
"425 382 OFFCURVE",
"394 382 CURVE SMOOTH"
);
},
{
closed = 1;
nodes = (
"255 576 LINE",
"255 139 LINE",
"323 139 LINE",
"323 327 LINE",
"395 327 LINE",
"514 139 LINE",
"587 139 LINE",
"462 332 LINE",
"527 339 OFFCURVE",
"577 372 OFFCURVE",
"577 451 CURVE SMOOTH",
"577 535 OFFCURVE",
"528 576 OFFCURVE",
"424 576 CURVE SMOOTH"
);
},
{
closed = 1;
nodes = (
"92 448 OFFCURVE",
"125 528 OFFCURVE",
"181 585 CURVE SMOOTH",
"236 641 OFFCURVE",
"313 676 OFFCURVE",
"401 676 CURVE SMOOTH",
"488 676 OFFCURVE",
"564 641 OFFCURVE",
"620 585 CURVE SMOOTH",
"675 528 OFFCURVE",
"708 448 OFFCURVE",
"708 359 CURVE SMOOTH",
"708 267 OFFCURVE",
"675 187 OFFCURVE",
"620 130 CURVE SMOOTH",
"564 73 OFFCURVE",
"488 38 OFFCURVE",
"401 38 CURVE SMOOTH",
"313 38 OFFCURVE",
"236 73 OFFCURVE",
"181 130 CURVE SMOOTH",
"125 187 OFFCURVE",
"92 267 OFFCURVE",
"92 359 CURVE SMOOTH"
);
},
{
closed = 1;
nodes = (
"24 251 OFFCURVE",
"67 158 OFFCURVE",
"136 91 CURVE SMOOTH",
"204 23 OFFCURVE",
"298 -16 OFFCURVE",
"401 -16 CURVE SMOOTH",
"504 -16 OFFCURVE",
"597 23 OFFCURVE",
"665 91 CURVE SMOOTH",
"733 158 OFFCURVE",
"776 251 OFFCURVE",
"776 359 CURVE SMOOTH",
"776 464 OFFCURVE",
"733 557 OFFCURVE",
"665 624 CURVE SMOOTH",
"597 691 OFFCURVE",
"504 731 OFFCURVE",
"401 731 CURVE SMOOTH",
"298 731 OFFCURVE",
"204 691 OFFCURVE",
"136 624 CURVE SMOOTH",
"67 557 OFFCURVE",
"24 464 OFFCURVE",
"24 359 CURVE SMOOTH"
);
}
);
width = 800;
}
);
note = registered;
unicode = 00AE;
},
{
glyphname = macron;
layers = (
{
layerId = "B170CD55-4C38-4AB6-AD9A-F7E1CB90D307";
name = Regular;
paths = (
{
closed = 1;
nodes = (
"-58 675 LINE",
"-58 620 LINE",
"282 620 LINE",
"282 675 LINE"
);
}
);
width = 222;
}
);
note = macron;
unicode = 00AF;
},
{
glyphname = degree;
layers = (
{
layerId = "B170CD55-4C38-4AB6-AD9A-F7E1CB90D307";
name = Regular;
paths = (
{
closed = 1;
nodes = (
"106 589 OFFCURVE",
"115 612 OFFCURVE",
"131 630 CURVE SMOOTH",
"147 648 OFFCURVE",
"171 659 OFFCURVE",
"200 659 CURVE SMOOTH",
"229 659 OFFCURVE",
"253 648 OFFCURVE",
"269 630 CURVE SMOOTH",
"285 612 OFFCURVE",
"294 589 OFFCURVE",
"294 565 CURVE SMOOTH",
"294 541 OFFCURVE",
"285 519 OFFCURVE",
"269 501 CURVE SMOOTH",
"253 483 OFFCURVE",
"229 471 OFFCURVE",
"200 471 CURVE SMOOTH",
"171 471 OFFCURVE",
"147 483 OFFCURVE",
"131 501 CURVE SMOOTH",
"115 519 OFFCURVE",
"106 541 OFFCURVE",
"106 565 CURVE SMOOTH"
);
},
{
closed = 1;
nodes = (
"56 525 OFFCURVE",
"72 489 OFFCURVE",
"98 463 CURVE SMOOTH",
"124 437 OFFCURVE",
"160 421 OFFCURVE",
"200 421 CURVE SMOOTH",
"240 421 OFFCURVE",
"276 437 OFFCURVE",
"302 463 CURVE SMOOTH",
"328 489 OFFCURVE",
"344 525 OFFCURVE",
"344 565 CURVE SMOOTH",
"344 605 OFFCURVE",
"328 641 OFFCURVE",
"302 667 CURVE SMOOTH",
"276 693 OFFCURVE",
"240 709 OFFCURVE",
"200 709 CURVE SMOOTH",
"160 709 OFFCURVE",
"124 693 OFFCURVE",
"98 667 CURVE SMOOTH",
"72 641 OFFCURVE",
"56 605 OFFCURVE",
"56 565 CURVE SMOOTH"
);
}
);
width = 400;
}
);
note = degree;
unicode = 00B0;
},
{
glyphname = plusminus;
layers = (
{
layerId = "B170CD55-4C38-4AB6-AD9A-F7E1CB90D307";
name = Regular;
paths = (
{
closed = 1;
nodes = (
"48 68 LINE",
"48 0 LINE",
"552 0 LINE",
"552 68 LINE"
);
},
{
closed = 1;
nodes = (
"48 339 LINE",
"48 271 LINE",
"266 271 LINE",
"266 104 LINE",
"334 104 LINE",
"334 271 LINE",
"552 271 LINE",
"552 339 LINE",
"334 339 LINE",
"334 505 LINE",
"266 505 LINE",
"266 339 LINE"
);
}
);
width = 600;
}
);
note = plusminus;
unicode = 00B1;
},
{
glyphname = twosuperior;
layers = (
{
layerId = "B170CD55-4C38-4AB6-AD9A-F7E1CB90D307";
name = Regular;
paths = (
{
closed = 1;
nodes = (
"90 555 LINE",
"90 607 OFFCURVE",
"112 654 OFFCURVE",
"172 654 CURVE SMOOTH",
"219 654 OFFCURVE",
"255 627 OFFCURVE",
"255 584 CURVE SMOOTH",
"255 555 OFFCURVE",
"246 533 OFFCURVE",
"227 514 CURVE SMOOTH",
"207 494 OFFCURVE",
"178 477 OFFCURVE",
"139 454 CURVE SMOOTH",
"107 435 OFFCURVE",
"77 417 OFFCURVE",
"54 391 CURVE SMOOTH",
"31 365 OFFCURVE",
"17 331 OFFCURVE",
"14 280 CURVE",
"317 280 LINE",
"317 335 LINE",
"82 335 LINE",
"87 356 OFFCURVE",
"105 373 OFFCURVE",
"129 389 CURVE",
"140 397 OFFCURVE",
"153 405 OFFCURVE",
"168 413 CURVE SMOOTH",
"196 429 OFFCURVE",
"224 445 OFFCURVE",
"252 464 CURVE SMOOTH",
"279 483 OFFCURVE",
"300 505 OFFCURVE",
"313 534 CURVE",
"320 548 OFFCURVE",
"323 564 OFFCURVE",
"323 583 CURVE SMOOTH",
"323 623 OFFCURVE",
"307 655 OFFCURVE",
"280 676 CURVE SMOOTH",
"252 697 OFFCURVE",
"215 709 OFFCURVE",
"175 709 CURVE SMOOTH",
"82 709 OFFCURVE",
"22 647 OFFCURVE",
"22 555 CURVE"
);
}
);
width = 333;
}
);
note = twosuperior;
unicode = 00B2;
},
{
glyphname = threesuperior;
layers = (
{
layerId = "B170CD55-4C38-4AB6-AD9A-F7E1CB90D307";
name = Regular;
paths = (
{
closed = 1;
nodes = (
"132 527 LINE",
"132 477 LINE",
"165 477 LINE SMOOTH",
"189 477 OFFCURVE",
"212 472 OFFCURVE",
"229 460 CURVE",
"246 447 OFFCURVE",
"258 428 OFFCURVE",
"258 400 CURVE SMOOTH",
"258 355 OFFCURVE",
"215 328 OFFCURVE",
"164 328 CURVE SMOOTH",
"104 328 OFFCURVE",
"73 357 OFFCURVE",
"72 414 CURVE",
"4 414 LINE",
"4 367 OFFCURVE",
"22 332 OFFCURVE",
"51 309 CURVE",
"79 285 OFFCURVE",
"120 273 OFFCURVE",
"164 273 CURVE SMOOTH",
"207 273 OFFCURVE",
"247 284 OFFCURVE",
"277 305 CURVE SMOOTH",
"307 326 OFFCURVE",
"326 359 OFFCURVE",
"326 403 CURVE SMOOTH",
"326 454 OFFCURVE",
"299 494 OFFCURVE",
"239 505 CURVE",
"239 507 LINE",
"276 522 OFFCURVE",
"307 553 OFFCURVE",
"307 592 CURVE SMOOTH",
"307 631 OFFCURVE",
"292 660 OFFCURVE",
"266 680 CURVE SMOOTH",
"240 699 OFFCURVE",
"203 709 OFFCURVE",
"162 709 CURVE SMOOTH",
"73 709 OFFCURVE",
"19 656 OFFCURVE",
"14 568 CURVE",
"82 568 LINE",
"82 617 OFFCURVE",
"106 654 OFFCURVE",
"162 654 CURVE SMOOTH",
"206 654 OFFCURVE",
"239 632 OFFCURVE",
"239 592 CURVE SMOOTH",
"239 545 OFFCURVE",
"200 527 OFFCURVE",
"156 527 CURVE SMOOTH"
);
}
);
width = 333;
}
);
note = threesuperior;
unicode = 00B3;
},
{
glyphname = acute;
layers = (
{
layerId = "B170CD55-4C38-4AB6-AD9A-F7E1CB90D307";
name = Regular;
paths = (
{
closed = 1;
nodes = (
"255 770 LINE",
"114 608 LINE",
"50 608 LINE",
"146 770 LINE"
);
}
);
width = 222;
}
);
note = acute;
unicode = 00B4;
},
{
glyphname = mu;
layers = (
{
layerId = "B170CD55-4C38-4AB6-AD9A-F7E1CB90D307";
name = Regular;
paths = (
{
closed = 1;
nodes = (
"492 0 LINE",
"492 517 LINE",
"407 517 LINE",
"407 225 LINE SMOOTH",
"407 178 OFFCURVE",
"394 138 OFFCURVE",
"369 109 CURVE SMOOTH",
"344 80 OFFCURVE",
"306 63 OFFCURVE",
"254 63 CURVE SMOOTH",
"189 63 OFFCURVE",
"149 103 OFFCURVE",
"149 167 CURVE SMOOTH",
"149 517 LINE",
"64 517 LINE",
"64 -197 LINE",
"149 -197 LINE",
"149 26 LINE",
"151 26 LINE",
"168 -1 OFFCURVE",
"199 -11 OFFCURVE",
"242 -11 CURVE SMOOTH",
"318 -11 OFFCURVE",
"374 18 OFFCURVE",
"410 82 CURVE",
"412 82 LINE",
"412 0 LINE"
);
}
);
width = 556;
}
);
note = mu;
unicode = 00B5;
},
{
glyphname = paragraph;
layers = (
{
layerId = "B170CD55-4C38-4AB6-AD9A-F7E1CB90D307";
name = Regular;
paths = (
{
closed = 1;
nodes = (
"515 -154 LINE",
"515 714 LINE",
"276 714 LINE SMOOTH",
"135 714 OFFCURVE",
"48 640 OFFCURVE",
"48 508 CURVE SMOOTH",
"48 456 OFFCURVE",
"70 409 OFFCURVE",
"107 376 CURVE SMOOTH",
"143 343 OFFCURVE",
"196 322 OFFCURVE",
"257 322 CURVE",
"257 -154 LINE",
"325 -154 LINE",
"325 659 LINE",
"447 659 LINE",
"447 -154 LINE"
);
}
);
width = 600;
}
);
note = paragraph;
unicode = 00B6;
},
{
glyphname = periodcentered;
layers = (
{
layerId = "B170CD55-4C38-4AB6-AD9A-F7E1CB90D307";
name = Regular;
paths = (
{
closed = 1;
nodes = (
"75 276 OFFCURVE",
"105 247 OFFCURVE",
"140 247 CURVE SMOOTH",
"173 247 OFFCURVE",
"203 279 OFFCURVE",
"203 311 CURVE SMOOTH",
"203 346 OFFCURVE",
"174 375 OFFCURVE",
"139 375 CURVE SMOOTH",
"104 375 OFFCURVE",
"75 346 OFFCURVE",
"75 311 CURVE SMOOTH"
);
}
);
width = 278;
}
);
note = periodcentered;
unicode = 00B7;
},
{
glyphname = cedilla;
layers = (
{
layerId = "B170CD55-4C38-4AB6-AD9A-F7E1CB90D307";
name = Regular;
paths = (
{
closed = 1;
nodes = (
"5 -190 LINE",
"36 -201 OFFCURVE",
"65 -209 OFFCURVE",
"97 -209 CURVE SMOOTH",
"125 -209 OFFCURVE",
"156 -203 OFFCURVE",
"180 -189 CURVE SMOOTH",
"204 -175 OFFCURVE",
"221 -153 OFFCURVE",
"221 -120 CURVE SMOOTH",
"221 -71 OFFCURVE",
"180 -47 OFFCURVE",
"137 -47 CURVE SMOOTH",
"122 -47 OFFCURVE",
"111 -49 OFFCURVE",
"104 -54 CURVE",
"102 -52 LINE",
"144 0 LINE",
"102 0 LINE",
"41 -77 LINE",
"58 -105 LINE",
"73 -100 OFFCURVE",
"83 -97 OFFCURVE",
"99 -97 CURVE SMOOTH",
"126 -97 OFFCURVE",
"146 -109 OFFCURVE",
"146 -128 CURVE SMOOTH",
"146 -140 OFFCURVE",
"137 -147 OFFCURVE",
"125 -152 CURVE SMOOTH",
"113 -157 OFFCURVE",
"97 -159 OFFCURVE",
"84 -159 CURVE SMOOTH",
"63 -159 OFFCURVE",
"39 -153 OFFCURVE",
"23 -146 CURVE"
);
}
);
width = 222;
}
);
note = cedilla;
unicode = 00B8;
},
{
glyphname = onesuperior;
layers = (
{
layerId = "B170CD55-4C38-4AB6-AD9A-F7E1CB90D307";
name = Regular;
paths = (
{
closed = 1;
nodes = (
"249 280 LINE",
"249 709 LINE",
"199 709 LINE",
"186 654 OFFCURVE",
"131 638 OFFCURVE",
"66 638 CURVE",
"66 588 LINE",
"181 588 LINE",
"181 280 LINE"
);
}
);
width = 333;
}
);
note = onesuperior;
unicode = 00B9;
},
{
glyphname = ordmasculine;
layers = (
{
layerId = "B170CD55-4C38-4AB6-AD9A-F7E1CB90D307";
name = Regular;
paths = (
{
closed = 1;
nodes = (
"213 659 OFFCURVE",
"238 654 OFFCURVE",
"258 637 CURVE SMOOTH",
"277 620 OFFCURVE",
"291 590 OFFCURVE",
"291 542 CURVE SMOOTH",
"291 513 OFFCURVE",
"284 484 OFFCURVE",
"269 464 CURVE SMOOTH",
"253 443 OFFCURVE",
"229 430 OFFCURVE",
"193 430 CURVE SMOOTH",
"157 430 OFFCURVE",
"132 443 OFFCURVE",
"116 464 CURVE SMOOTH",
"100 485 OFFCURVE",
"93 514 OFFCURVE",
"93 543 CURVE SMOOTH",
"93 623 OFFCURVE",
"136 659 OFFCURVE",
"192 659 CURVE SMOOTH"
);
},
{
closed = 1;
nodes = (
"139 709 OFFCURVE",
"96 691 OFFCURVE",
"68 661 CURVE SMOOTH",
"40 631 OFFCURVE",
"25 590 OFFCURVE",
"25 543 CURVE SMOOTH",
"25 495 OFFCURVE",
"41 455 OFFCURVE",
"70 426 CURVE SMOOTH",
"98 397 OFFCURVE",
"140 380 OFFCURVE",
"193 380 CURVE SMOOTH",
"302 380 OFFCURVE",
"359 447 OFFCURVE",
"359 543 CURVE SMOOTH",
"359 590 OFFCURVE",
"344 632 OFFCURVE",
"316 662 CURVE SMOOTH",
"288 692 OFFCURVE",
"247 709 OFFCURVE",
"192 709 CURVE SMOOTH"
);
}
);
width = 384;
}
);
note = ordmasculine;
unicode = 00BA;
},
{
glyphname = guillemotright;
layers = (
{
layerId = "B170CD55-4C38-4AB6-AD9A-F7E1CB90D307";
name = Regular;
paths = (
{
closed = 1;
nodes = (
"413 322 LINE",
"261 442 LINE",
"261 356 LINE",
"361 278 LINE",
"261 200 LINE",
"261 114 LINE",
"413 234 LINE"
);
},
{
closed = 1;
nodes = (
"217 322 LINE",
"65 442 LINE",
"65 356 LINE",
"165 278 LINE",
"65 200 LINE",
"65 114 LINE",
"217 234 LINE"
);
}
);
width = 463;
}
);
note = guillemotright;
unicode = 00BB;
},
{
glyphname = onequarter;
layers = (
{
layerId = "B170CD55-4C38-4AB6-AD9A-F7E1CB90D307";
name = Regular;
paths = (
{
closed = 1;
nodes = (
"219 280 LINE",
"219 709 LINE",
"169 709 LINE",
"156 653 OFFCURVE",
"101 638 OFFCURVE",
"36 638 CURVE",
"36 588 LINE",
"151 588 LINE",
"151 280 LINE"
);
},
{
closed = 1;
nodes = (
"585 725 LINE",
"150 -27 LINE",
"214 -27 LINE",
"649 725 LINE"
);
},
{
closed = 1;
nodes = (
"511 151 LINE",
"659 344 LINE",
"661 344 LINE",
"661 151 LINE"
);
},
{
closed = 1;
nodes = (
"723 151 LINE",
"723 429 LINE",
"672 429 LINE",
"462 154 LINE",
"462 96 LINE",
"661 96 LINE",
"661 0 LINE",
"723 0 LINE",
"723 96 LINE",
"783 96 LINE",
"783 151 LINE"
);
}
);
width = 834;
}
);
note = onequarter;
unicode = 00BC;
},
{
glyphname = onehalf;
layers = (
{
layerId = "B170CD55-4C38-4AB6-AD9A-F7E1CB90D307";
name = Regular;
paths = (
{
closed = 1;
nodes = (
"570 275 LINE",
"570 327 OFFCURVE",
"592 374 OFFCURVE",
"652 374 CURVE SMOOTH",
"699 374 OFFCURVE",
"735 347 OFFCURVE",
"735 304 CURVE SMOOTH",
"735 275 OFFCURVE",
"726 253 OFFCURVE",
"707 234 CURVE SMOOTH",
"687 214 OFFCURVE",
"658 197 OFFCURVE",
"619 174 CURVE SMOOTH",
"587 155 OFFCURVE",
"557 137 OFFCURVE",
"534 111 CURVE SMOOTH",
"511 85 OFFCURVE",
"497 51 OFFCURVE",
"494 0 CURVE",
"797 0 LINE",
"797 55 LINE",
"562 55 LINE",
"567 76 OFFCURVE",
"585 93 OFFCURVE",
"609 109 CURVE",
"620 117 OFFCURVE",
"633 125 OFFCURVE",
"648 133 CURVE SMOOTH",
"676 149 OFFCURVE",
"704 165 OFFCURVE",
"732 184 CURVE SMOOTH",
"759 203 OFFCURVE",
"780 225 OFFCURVE",
"793 254 CURVE",
"800 268 OFFCURVE",
"803 284 OFFCURVE",
"803 303 CURVE SMOOTH",
"803 343 OFFCURVE",
"787 375 OFFCURVE",
"760 396 CURVE SMOOTH",
"732 417 OFFCURVE",
"695 429 OFFCURVE",
"655 429 CURVE SMOOTH",
"562 429 OFFCURVE",
"502 367 OFFCURVE",
"502 275 CURVE"
);
},
{
closed = 1;
nodes = (
"219 280 LINE",
"219 709 LINE",
"169 709 LINE",
"156 653 OFFCURVE",
"101 638 OFFCURVE",
"36 638 CURVE",
"36 588 LINE",
"151 588 LINE",
"151 280 LINE"
);
},
{
closed = 1;
nodes = (
"570 725 LINE",
"135 -27 LINE",
"199 -27 LINE",
"634 725 LINE"
);
}
);
width = 834;
}
);
note = onehalf;
unicode = 00BD;
},
{
glyphname = threequarters;
layers = (
{
layerId = "B170CD55-4C38-4AB6-AD9A-F7E1CB90D307";
name = Regular;
paths = (
{
closed = 1;
nodes = (
"177 527 LINE",
"177 477 LINE",
"210 477 LINE SMOOTH",
"234 477 OFFCURVE",
"257 472 OFFCURVE",
"274 460 CURVE",
"291 447 OFFCURVE",
"303 428 OFFCURVE",
"303 400 CURVE SMOOTH",
"303 355 OFFCURVE",
"260 328 OFFCURVE",
"209 328 CURVE SMOOTH",
"149 328 OFFCURVE",
"118 357 OFFCURVE",
"117 414 CURVE",
"49 414 LINE",
"49 367 OFFCURVE",
"67 332 OFFCURVE",
"96 309 CURVE",
"124 285 OFFCURVE",
"165 273 OFFCURVE",
"209 273 CURVE SMOOTH",
"252 273 OFFCURVE",
"292 284 OFFCURVE",
"322 305 CURVE SMOOTH",
"352 326 OFFCURVE",
"371 359 OFFCURVE",
"371 403 CURVE SMOOTH",
"371 454 OFFCURVE",
"344 494 OFFCURVE",
"284 505 CURVE",
"284 507 LINE",
"321 522 OFFCURVE",
"352 553 OFFCURVE",
"352 592 CURVE SMOOTH",
"352 631 OFFCURVE",
"337 660 OFFCURVE",
"311 680 CURVE SMOOTH",
"285 699 OFFCURVE",
"248 709 OFFCURVE",
"207 709 CURVE SMOOTH",
"118 709 OFFCURVE",
"64 656 OFFCURVE",
"59 568 CURVE",
"127 568 LINE",
"127 617 OFFCURVE",
"151 654 OFFCURVE",
"207 654 CURVE SMOOTH",
"251 654 OFFCURVE",
"284 632 OFFCURVE",
"284 592 CURVE SMOOTH",
"284 545 OFFCURVE",
"245 527 OFFCURVE",
"201 527 CURVE SMOOTH"
);
},
{
closed = 1;
nodes = (
"650 725 LINE",
"215 -27 LINE",
"279 -27 LINE",
"714 725 LINE"
);
},
{
closed = 1;
nodes = (
"529 147 LINE",
"677 340 LINE",
"679 340 LINE",
"679 147 LINE"
);
},
{
closed = 1;
nodes = (
"740 151 LINE",
"740 429 LINE",
"689 429 LINE",
"479 154 LINE",
"479 96 LINE",
"678 96 LINE",
"678 0 LINE",
"740 0 LINE",
"740 96 LINE",
"800 96 LINE",
"800 151 LINE"
);
}
);
width = 834;
}
);
note = threequarters;
unicode = 00BE;
},
{
glyphname = questiondown;
layers = (
{
layerId = "B170CD55-4C38-4AB6-AD9A-F7E1CB90D307";
name = Regular;
paths = (
{
closed = 1;
nodes = (
"337 406 LINE",
"337 517 LINE",
"226 517 LINE",
"226 406 LINE"
);
},
{
closed = 1;
nodes = (
"418 30 LINE",
"418 -15 OFFCURVE",
"408 -57 OFFCURVE",
"385 -86 CURVE SMOOTH",
"361 -115 OFFCURVE",
"327 -134 OFFCURVE",
"279 -134 CURVE SMOOTH",
"207 -134 OFFCURVE",
"163 -90 OFFCURVE",
"158 -17 CURVE SMOOTH",
"155 31 OFFCURVE",
"172 64 OFFCURVE",
"197 93 CURVE SMOOTH",
"209 107 OFFCURVE",
"222 121 OFFCURVE",
"237 134 CURVE SMOOTH",
"265 160 OFFCURVE",
"293 189 OFFCURVE",
"311 229 CURVE SMOOTH",
"320 249 OFFCURVE",
"325 273 OFFCURVE",
"326 300 CURVE",
"326 339 LINE",
"241 339 LINE",
"241 308 LINE SMOOTH",
"241 275 OFFCURVE",
"230 247 OFFCURVE",
"214 224 CURVE SMOOTH",
"197 200 OFFCURVE",
"175 180 OFFCURVE",
"154 160 CURVE SMOOTH",
"131 139 OFFCURVE",
"110 117 OFFCURVE",
"94 90 CURVE SMOOTH",
"78 63 OFFCURVE",
"68 31 OFFCURVE",
"68 -9 CURVE SMOOTH",
"68 -73 OFFCURVE",
"90 -122 OFFCURVE",
"127 -156 CURVE SMOOTH",
"164 -190 OFFCURVE",
"218 -209 OFFCURVE",
"279 -209 CURVE SMOOTH",
"348 -209 OFFCURVE",
"405 -183 OFFCURVE",
"445 -140 CURVE SMOOTH",
"484 -97 OFFCURVE",
"504 -38 OFFCURVE",
"503 30 CURVE"
);
}
);
width = 556;
}
);
note = questiondown;
unicode = 00BF;
},
{
glyphname = Agrave;
layers = (
{
layerId = "B170CD55-4C38-4AB6-AD9A-F7E1CB90D307";
name = Regular;
paths = (
{
closed = 1;
nodes = (
"201 295 LINE",
"322 628 LINE",
"324 628 LINE",
"443 295 LINE"
);
},
{
closed = 1;
nodes = (
"272 714 LINE",
"-6 0 LINE",
"91 0 LINE",
"171 215 LINE",
"473 215 LINE",
"551 0 LINE",
"656 0 LINE",
"377 714 LINE"
);
},
{
closed = 1;
nodes = (
"289 927 LINE",
"385 765 LINE",
"321 765 LINE",
"181 927 LINE"
);
}
);
width = 648;
}
);
note = Agrave;
unicode = 00C0;
},
{
glyphname = Aacute;
layers = (
{
layerId = "B170CD55-4C38-4AB6-AD9A-F7E1CB90D307";
name = Regular;
paths = (
{
closed = 1;
nodes = (
"201 295 LINE",
"322 628 LINE",
"324 628 LINE",
"443 295 LINE"
);
},
{
closed = 1;
nodes = (
"272 714 LINE",
"-6 0 LINE",
"91 0 LINE",
"171 215 LINE",
"473 215 LINE",
"551 0 LINE",
"656 0 LINE",
"377 714 LINE"
);
},
{
closed = 1;
nodes = (
"468 927 LINE",
"327 765 LINE",
"263 765 LINE",
"359 927 LINE"
);
}
);
width = 648;
}
);
note = Aacute;
unicode = 00C1;
},
{
glyphname = Acircumflex;
layers = (
{
layerId = "B170CD55-4C38-4AB6-AD9A-F7E1CB90D307";
name = Regular;
paths = (
{
closed = 1;
nodes = (
"201 295 LINE",
"322 628 LINE",
"324 628 LINE",
"443 295 LINE"
);
},
{
closed = 1;
nodes = (
"272 714 LINE",
"-6 0 LINE",
"91 0 LINE",
"171 215 LINE",
"473 215 LINE",
"551 0 LINE",
"656 0 LINE",
"377 714 LINE"
);
},
{
closed = 1;
nodes = (
"370 908 LINE",
"474 765 LINE",
"390 765 LINE",
"321 861 LINE",
"251 765 LINE",
"175 765 LINE",
"277 908 LINE"
);
}
);
width = 648;
}
);
note = Acircumflex;
unicode = 00C2;
},
{
glyphname = Atilde;
layers = (
{
layerId = "B170CD55-4C38-4AB6-AD9A-F7E1CB90D307";
name = Regular;
paths = (
{
closed = 1;
nodes = (
"201 295 LINE",
"322 628 LINE",
"324 628 LINE",
"443 295 LINE"
);
},
{
closed = 1;
nodes = (
"272 714 LINE",
"-6 0 LINE",
"91 0 LINE",
"171 215 LINE",
"473 215 LINE",
"551 0 LINE",
"656 0 LINE",
"377 714 LINE"
);
},
{
closed = 1;
nodes = (
"431 839 OFFCURVE",
"448 859 OFFCURVE",
"452 894 CURVE",
"501 894 LINE",
"488 801 OFFCURVE",
"449 773 OFFCURVE",
"397 773 CURVE SMOOTH",
"370 773 OFFCURVE",
"347 786 OFFCURVE",
"323 799 CURVE SMOOTH",
"299 812 OFFCURVE",
"276 825 OFFCURVE",
"252 825 CURVE SMOOTH",
"221 825 OFFCURVE",
"203 808 OFFCURVE",
"197 774 CURVE",
"150 774 LINE",
"163 855 OFFCURVE",
"197 891 OFFCURVE",
"253 891 CURVE SMOOTH",
"280 891 OFFCURVE",
"305 878 OFFCURVE",
"329 865 CURVE SMOOTH",
"353 852 OFFCURVE",
"378 839 OFFCURVE",
"402 839 CURVE SMOOTH"
);
}
);
width = 648;
}
);
note = Atilde;
unicode = 00C3;
},
{
glyphname = Adieresis;
layers = (
{
layerId = "B170CD55-4C38-4AB6-AD9A-F7E1CB90D307";
name = Regular;
paths = (
{
closed = 1;
nodes = (
"185 873 LINE",
"185 769 LINE",
"275 769 LINE",
"275 873 LINE"
);
},
{
closed = 1;
nodes = (
"373 873 LINE",
"373 769 LINE",
"463 769 LINE",
"463 873 LINE"
);
},
{
closed = 1;
nodes = (
"201 295 LINE",
"322 628 LINE",
"324 628 LINE",
"443 295 LINE"
);
},
{
closed = 1;
nodes = (
"272 714 LINE",
"-6 0 LINE",
"91 0 LINE",
"171 215 LINE",
"473 215 LINE",
"551 0 LINE",
"656 0 LINE",
"377 714 LINE"
);
}
);
width = 648;
}
);
note = Adieresis;
unicode = 00C4;
},
{
glyphname = Aring.low;
layers = (
{
layerId = "B170CD55-4C38-4AB6-AD9A-F7E1CB90D307";
name = Regular;
paths = (
{
closed = 1;
nodes = (
"211 860 OFFCURVE",
"224 888 OFFCURVE",
"245 909 CURVE SMOOTH",
"265 929 OFFCURVE",
"293 942 OFFCURVE",
"324 942 CURVE SMOOTH",
"355 942 OFFCURVE",
"383 929 OFFCURVE",
"404 909 CURVE",
"424 888 OFFCURVE",
"437 860 OFFCURVE",
"437 829 CURVE SMOOTH",
"437 798 OFFCURVE",
"424 770 OFFCURVE",
"404 750 CURVE SMOOTH",
"383 729 OFFCURVE",
"355 716 OFFCURVE",
"324 716 CURVE SMOOTH",
"293 716 OFFCURVE",
"265 729 OFFCURVE",
"245 750 CURVE",
"224 770 OFFCURVE",
"211 798 OFFCURVE",
"211 829 CURVE SMOOTH"
);
},
{
closed = 1;
nodes = (
"256 790 OFFCURVE",
"285 761 OFFCURVE",
"324 761 CURVE SMOOTH",
"363 761 OFFCURVE",
"392 790 OFFCURVE",
"392 829 CURVE SMOOTH",
"392 868 OFFCURVE",
"363 897 OFFCURVE",
"324 897 CURVE SMOOTH",
"285 897 OFFCURVE",
"256 868 OFFCURVE",
"256 829 CURVE SMOOTH"
);
},
{
closed = 1;
nodes = (
"443 295 LINE",
"324 628 LINE",
"322 628 LINE",
"201 295 LINE"
);
},
{
closed = 1;
nodes = (
"377 714 LINE",
"656 0 LINE",
"551 0 LINE",
"473 215 LINE",
"171 215 LINE",
"91 0 LINE",
"-6 0 LINE",
"272 714 LINE"
);
}
);
width = 648;
}
);
note = Aring.low;
unicode = 00C5;
},
{
glyphname = AE;
layers = (
{
layerId = "B170CD55-4C38-4AB6-AD9A-F7E1CB90D307";
name = Regular;
paths = (
{
closed = 1;
nodes = (
"407 634 LINE",
"448 634 LINE",
"448 288 LINE",
"239 288 LINE"
);
},
{
closed = 1;
nodes = (
"354 714 LINE",
"-6 0 LINE",
"100 0 LINE",
"202 208 LINE",
"448 208 LINE",
"448 0 LINE",
"895 0 LINE",
"895 80 LINE",
"538 80 LINE",
"538 327 LINE",
"868 327 LINE",
"868 407 LINE",
"538 407 LINE",
"538 634 LINE",
"889 634 LINE",
"889 714 LINE"
);
}
);
width = 926;
}
);
note = AE;
unicode = 00C6;
},
{
glyphname = Ccedilla;
layers = (
{
layerId = "B170CD55-4C38-4AB6-AD9A-F7E1CB90D307";
name = Regular;
paths = (
{
closed = 1;
nodes = (
"675 499 LINE",
"664 575 OFFCURVE",
"628 633 OFFCURVE",
"576 672 CURVE SMOOTH",
"524 711 OFFCURVE",
"456 731 OFFCURVE",
"381 731 CURVE SMOOTH",
"272 731 OFFCURVE",
"186 689 OFFCURVE",
"130 621 CURVE SMOOTH",
"73 553 OFFCURVE",
"43 459 OFFCURVE",
"43 355 CURVE SMOOTH",
"43 255 OFFCURVE",
"68 167 OFFCURVE",
"117 102 CURVE SMOOTH",
"165 37 OFFCURVE",
"240 -6 OFFCURVE",
"340 -14 CURVE",
"291 -77 LINE",
"308 -105 LINE",
"323 -100 OFFCURVE",
"333 -97 OFFCURVE",
"349 -97 CURVE SMOOTH",
"376 -97 OFFCURVE",
"396 -109 OFFCURVE",
"396 -128 CURVE SMOOTH",
"396 -140 OFFCURVE",
"387 -147 OFFCURVE",
"375 -152 CURVE SMOOTH",
"363 -157 OFFCURVE",
"347 -159 OFFCURVE",
"334 -159 CURVE SMOOTH",
"313 -159 OFFCURVE",
"289 -153 OFFCURVE",
"273 -146 CURVE",
"255 -190 LINE",
"286 -201 OFFCURVE",
"315 -209 OFFCURVE",
"347 -209 CURVE SMOOTH",
"375 -209 OFFCURVE",
"406 -203 OFFCURVE",
"430 -189 CURVE SMOOTH",
"454 -175 OFFCURVE",
"471 -153 OFFCURVE",
"471 -120 CURVE SMOOTH",
"471 -71 OFFCURVE",
"430 -47 OFFCURVE",
"387 -47 CURVE SMOOTH",
"372 -47 OFFCURVE",
"361 -49 OFFCURVE",
"354 -54 CURVE",
"352 -52 LINE",
"381 -15 LINE",
"557 -12 OFFCURVE",
"663 93 OFFCURVE",
"682 269 CURVE",
"587 269 LINE",
"583 210 OFFCURVE",
"563 158 OFFCURVE",
"528 122 CURVE SMOOTH",
"492 85 OFFCURVE",
"444 63 OFFCURVE",
"381 63 CURVE SMOOTH",
"296 63 OFFCURVE",
"235 98 OFFCURVE",
"196 152 CURVE SMOOTH",
"156 206 OFFCURVE",
"138 281 OFFCURVE",
"138 362 CURVE SMOOTH",
"138 437 OFFCURVE",
"156 509 OFFCURVE",
"196 563 CURVE SMOOTH",
"235 617 OFFCURVE",
"295 651 OFFCURVE",
"380 651 CURVE SMOOTH",
"480 651 OFFCURVE",
"559 600 OFFCURVE",
"580 499 CURVE"
);
}
);
width = 722;
}
);
note = Ccedilla;
unicode = 00C7;
},
{
glyphname = Egrave;
layers = (
{
layerId = "B170CD55-4C38-4AB6-AD9A-F7E1CB90D307";
name = Regular;
paths = (
{
closed = 1;
nodes = (
"78 714 LINE",
"78 0 LINE",
"574 0 LINE",
"574 80 LINE",
"173 80 LINE",
"173 327 LINE",
"544 327 LINE",
"544 407 LINE",
"173 407 LINE",
"173 634 LINE",
"571 634 LINE",
"571 714 LINE"
);
},
{
closed = 1;
nodes = (
"289 927 LINE",
"385 765 LINE",
"321 765 LINE",
"181 927 LINE"
);
}
);
width = 611;
}
);
note = Egrave;
unicode = 00C8;
},
{
glyphname = Eacute;
layers = (
{
layerId = "B170CD55-4C38-4AB6-AD9A-F7E1CB90D307";
name = Regular;
paths = (
{
closed = 1;
nodes = (
"78 714 LINE",
"78 0 LINE",
"574 0 LINE",
"574 80 LINE",
"173 80 LINE",
"173 327 LINE",
"544 327 LINE",
"544 407 LINE",
"173 407 LINE",
"173 634 LINE",
"571 634 LINE",
"571 714 LINE"
);
},
{
closed = 1;
nodes = (
"450 927 LINE",
"309 765 LINE",
"245 765 LINE",
"341 927 LINE"
);
}
);
width = 611;
}
);
note = Eacute;
unicode = 00C9;
},
{
glyphname = Ecircumflex;
layers = (
{
layerId = "B170CD55-4C38-4AB6-AD9A-F7E1CB90D307";
name = Regular;
paths = (
{
closed = 1;
nodes = (
"78 714 LINE",
"78 0 LINE",
"574 0 LINE",
"574 80 LINE",
"173 80 LINE",
"173 327 LINE",
"544 327 LINE",
"544 407 LINE",
"173 407 LINE",
"173 634 LINE",
"571 634 LINE",
"571 714 LINE"
);
},
{
closed = 1;
nodes = (
"372 908 LINE",
"476 765 LINE",
"392 765 LINE",
"323 861 LINE",
"253 765 LINE",
"177 765 LINE",
"279 908 LINE"
);
}
);
width = 611;
}
);
note = Ecircumflex;
unicode = 00CA;
},
{
glyphname = Edieresis;
layers = (
{
layerId = "B170CD55-4C38-4AB6-AD9A-F7E1CB90D307";
name = Regular;
paths = (
{
closed = 1;
nodes = (
"167 873 LINE",
"167 769 LINE",
"257 769 LINE",
"257 873 LINE"
);
},
{
closed = 1;
nodes = (
"355 873 LINE",
"355 769 LINE",
"445 769 LINE",
"445 873 LINE"
);
},
{
closed = 1;
nodes = (
"78 714 LINE",
"78 0 LINE",
"574 0 LINE",
"574 80 LINE",
"173 80 LINE",
"173 327 LINE",
"544 327 LINE",
"544 407 LINE",
"173 407 LINE",
"173 634 LINE",
"571 634 LINE",
"571 714 LINE"
);
}
);
width = 611;
}
);
note = Edieresis;
unicode = 00CB;
},
{
glyphname = Igrave;
layers = (
{
layerId = "B170CD55-4C38-4AB6-AD9A-F7E1CB90D307";
name = Regular;
paths = (
{
closed = 1;
nodes = (
"82 714 LINE",
"82 0 LINE",
"177 0 LINE",
"177 714 LINE"
);
},
{
closed = 1;
nodes = (
"85 927 LINE",
"181 765 LINE",
"117 765 LINE",
"-23 927 LINE"
);
}
);
width = 259;
}
);
note = Igrave;
unicode = 00CC;
},
{
glyphname = Iacute;
layers = (
{
layerId = "B170CD55-4C38-4AB6-AD9A-F7E1CB90D307";
name = Regular;
paths = (
{
closed = 1;
nodes = (
"82 714 LINE",
"82 0 LINE",
"177 0 LINE",
"177 714 LINE"
);
},
{
closed = 1;
nodes = (
"275 947 LINE",
"134 785 LINE",
"70 785 LINE",
"166 947 LINE"
);
}
);
width = 259;
}
);
note = Iacute;
unicode = 00CD;
},
{
glyphname = Icircumflex;
layers = (
{
layerId = "B170CD55-4C38-4AB6-AD9A-F7E1CB90D307";
name = Regular;
paths = (
{
closed = 1;
nodes = (
"83 908 LINE",
"-19 765 LINE",
"57 765 LINE",
"127 861 LINE",
"196 765 LINE",
"280 765 LINE",
"176 908 LINE"
);
},
{
closed = 1;
nodes = (
"82 714 LINE",
"82 0 LINE",
"177 0 LINE",
"177 714 LINE"
);
}
);
width = 259;
}
);
note = Icircumflex;
unicode = 00CE;
},
{
glyphname = Idieresis;
layers = (
{
layerId = "B170CD55-4C38-4AB6-AD9A-F7E1CB90D307";
name = Regular;
paths = (
{
closed = 1;
nodes = (
"-8 873 LINE",
"-8 769 LINE",
"81 769 LINE",
"81 873 LINE"
);
},
{
closed = 1;
nodes = (
"179 873 LINE",
"179 769 LINE",
"269 769 LINE",
"269 873 LINE"
);
},
{
closed = 1;
nodes = (
"82 714 LINE",
"82 0 LINE",
"177 0 LINE",
"177 714 LINE"
);
}
);
width = 259;
}
);
note = Idieresis;
unicode = 00CF;
},
{
glyphname = Eth;
layers = (
{
layerId = "B170CD55-4C38-4AB6-AD9A-F7E1CB90D307";
name = Regular;
paths = (
{
closed = 1;
nodes = (
"173 407 LINE",
"173 634 LINE",
"333 634 LINE SMOOTH",
"421 634 OFFCURVE",
"480 609 OFFCURVE",
"518 562 CURVE SMOOTH",
"556 514 OFFCURVE",
"571 446 OFFCURVE",
"571 361 CURVE SMOOTH",
"571 273 OFFCURVE",
"551 212 OFFCURVE",
"523 171 CURVE SMOOTH",
"495 130 OFFCURVE",
"458 107 OFFCURVE",
"422 95 CURVE SMOOTH",
"386 82 OFFCURVE",
"352 80 OFFCURVE",
"331 80 CURVE SMOOTH",
"173 80 LINE",
"173 339 LINE",
"387 339 LINE",
"387 407 LINE"
);
},
{
closed = 1;
nodes = (
"78 339 LINE",
"78 0 LINE",
"323 0 LINE SMOOTH",
"442 0 OFFCURVE",
"528 34 OFFCURVE",
"584 98 CURVE SMOOTH",
"640 161 OFFCURVE",
"666 254 OFFCURVE",
"666 374 CURVE SMOOTH",
"666 603 OFFCURVE",
"543 714 OFFCURVE",
"323 714 CURVE SMOOTH",
"78 714 LINE",
"78 407 LINE",
"8 407 LINE",
"8 339 LINE"
);
}
);
width = 704;
}
);
note = Eth;
unicode = 00D0;
},
{
glyphname = Ntilde;
layers = (
{
layerId = "B170CD55-4C38-4AB6-AD9A-F7E1CB90D307";
name = Regular;
paths = (
{
closed = 1;
nodes = (
"483 888 LINE",
"476 868 OFFCURVE",
"464 844 OFFCURVE",
"437 844 CURVE SMOOTH",
"416 844 OFFCURVE",
"394 855 OFFCURVE",
"371 865 CURVE SMOOTH",
"348 875 OFFCURVE",
"324 884 OFFCURVE",
"297 884 CURVE SMOOTH",
"265 884 OFFCURVE",
"243 871 OFFCURVE",
"227 851 CURVE SMOOTH",
"211 831 OFFCURVE",
"200 803 OFFCURVE",
"192 774 CURVE",
"244 774 LINE",
"241 799 OFFCURVE",
"271 816 OFFCURVE",
"292 816 CURVE SMOOTH",
"311 816 OFFCURVE",
"335 806 OFFCURVE",
"359 797 CURVE",
"383 786 OFFCURVE",
"408 777 OFFCURVE",
"425 777 CURVE SMOOTH",
"464 777 OFFCURVE",
"487 789 OFFCURVE",
"504 808 CURVE",
"521 831 OFFCURVE",
"531 858 OFFCURVE",
"535 888 CURVE"
);
},
{
closed = 1;
nodes = (
"77 714 LINE",
"77 0 LINE",
"167 0 LINE",
"167 573 LINE",
"169 573 LINE",
"542 0 LINE",
"646 0 LINE",
"646 714 LINE",
"556 714 LINE",
"556 135 LINE",
"554 135 LINE",
"178 714 LINE"
);
}
);
width = 722;
}
);
note = Ntilde;
unicode = 00D1;
},
{
glyphname = Ograve;
layers = (
{
layerId = "B170CD55-4C38-4AB6-AD9A-F7E1CB90D307";
name = Regular;
paths = (
{
closed = 1;
nodes = (
"133 429 OFFCURVE",
"151 502 OFFCURVE",
"191 558 CURVE SMOOTH",
"231 614 OFFCURVE",
"293 651 OFFCURVE",
"380 651 CURVE SMOOTH",
"467 651 OFFCURVE",
"529 614 OFFCURVE",
"569 558 CURVE SMOOTH",
"609 502 OFFCURVE",
"627 429 OFFCURVE",
"627 357 CURVE SMOOTH",
"627 285 OFFCURVE",
"609 212 OFFCURVE",
"569 156 CURVE SMOOTH",
"529 100 OFFCURVE",
"467 63 OFFCURVE",
"380 63 CURVE SMOOTH",
"293 63 OFFCURVE",
"231 100 OFFCURVE",
"191 156 CURVE SMOOTH",
"151 212 OFFCURVE",
"133 285 OFFCURVE",
"133 357 CURVE SMOOTH"
);
},
{
closed = 1;
nodes = (
"38 260 OFFCURVE",
"67 166 OFFCURVE",
"124 97 CURVE SMOOTH",
"181 28 OFFCURVE",
"267 -16 OFFCURVE",
"380 -16 CURVE SMOOTH",
"493 -16 OFFCURVE",
"579 28 OFFCURVE",
"636 97 CURVE SMOOTH",
"693 166 OFFCURVE",
"722 260 OFFCURVE",
"722 357 CURVE SMOOTH",
"722 454 OFFCURVE",
"693 548 OFFCURVE",
"636 617 CURVE SMOOTH",
"579 686 OFFCURVE",
"493 731 OFFCURVE",
"380 731 CURVE SMOOTH",
"267 731 OFFCURVE",
"181 686 OFFCURVE",
"124 617 CURVE SMOOTH",
"67 548 OFFCURVE",
"38 454 OFFCURVE",
"38 357 CURVE SMOOTH"
);
},
{
closed = 1;
nodes = (
"345 927 LINE",
"441 765 LINE",
"377 765 LINE",
"237 927 LINE"
);
}
);
width = 760;
}
);
note = Ograve;
unicode = 00D2;
},
{
glyphname = Oacute;
layers = (
{
layerId = "B170CD55-4C38-4AB6-AD9A-F7E1CB90D307";
name = Regular;
paths = (
{
closed = 1;
nodes = (
"133 429 OFFCURVE",
"151 502 OFFCURVE",
"191 558 CURVE SMOOTH",
"231 614 OFFCURVE",
"293 651 OFFCURVE",
"380 651 CURVE SMOOTH",
"467 651 OFFCURVE",
"529 614 OFFCURVE",
"569 558 CURVE SMOOTH",
"609 502 OFFCURVE",
"627 429 OFFCURVE",
"627 357 CURVE SMOOTH",
"627 285 OFFCURVE",
"609 212 OFFCURVE",
"569 156 CURVE SMOOTH",
"529 100 OFFCURVE",
"467 63 OFFCURVE",
"380 63 CURVE SMOOTH",
"293 63 OFFCURVE",
"231 100 OFFCURVE",
"191 156 CURVE SMOOTH",
"151 212 OFFCURVE",
"133 285 OFFCURVE",
"133 357 CURVE SMOOTH"
);
},
{
closed = 1;
nodes = (
"38 260 OFFCURVE",
"67 166 OFFCURVE",
"124 97 CURVE SMOOTH",
"181 28 OFFCURVE",
"267 -16 OFFCURVE",
"380 -16 CURVE SMOOTH",
"493 -16 OFFCURVE",
"579 28 OFFCURVE",
"636 97 CURVE SMOOTH",
"693 166 OFFCURVE",
"722 260 OFFCURVE",
"722 357 CURVE SMOOTH",
"722 454 OFFCURVE",
"693 548 OFFCURVE",
"636 617 CURVE SMOOTH",
"579 686 OFFCURVE",
"493 731 OFFCURVE",
"380 731 CURVE SMOOTH",
"267 731 OFFCURVE",
"181 686 OFFCURVE",
"124 617 CURVE SMOOTH",
"67 548 OFFCURVE",
"38 454 OFFCURVE",
"38 357 CURVE SMOOTH"
);
},
{
closed = 1;
nodes = (
"523 937 LINE",
"382 775 LINE",
"318 775 LINE",
"414 937 LINE"
);
}
);
width = 760;
}
);
note = Oacute;
unicode = 00D3;
},
{
glyphname = Ocircumflex;
layers = (
{
layerId = "B170CD55-4C38-4AB6-AD9A-F7E1CB90D307";
name = Regular;
paths = (
{
closed = 1;
nodes = (
"133 429 OFFCURVE",
"151 502 OFFCURVE",
"191 558 CURVE SMOOTH",
"231 614 OFFCURVE",
"293 651 OFFCURVE",
"380 651 CURVE SMOOTH",
"467 651 OFFCURVE",
"529 614 OFFCURVE",
"569 558 CURVE SMOOTH",
"609 502 OFFCURVE",
"627 429 OFFCURVE",
"627 357 CURVE SMOOTH",
"627 285 OFFCURVE",
"609 212 OFFCURVE",
"569 156 CURVE SMOOTH",
"529 100 OFFCURVE",
"467 63 OFFCURVE",
"380 63 CURVE SMOOTH",
"293 63 OFFCURVE",
"231 100 OFFCURVE",
"191 156 CURVE SMOOTH",
"151 212 OFFCURVE",
"133 285 OFFCURVE",
"133 357 CURVE SMOOTH"
);
},
{
closed = 1;
nodes = (
"38 260 OFFCURVE",
"67 166 OFFCURVE",
"124 97 CURVE SMOOTH",
"181 28 OFFCURVE",
"267 -16 OFFCURVE",
"380 -16 CURVE SMOOTH",
"493 -16 OFFCURVE",
"579 28 OFFCURVE",
"636 97 CURVE SMOOTH",
"693 166 OFFCURVE",
"722 260 OFFCURVE",
"722 357 CURVE SMOOTH",
"722 454 OFFCURVE",
"693 548 OFFCURVE",
"636 617 CURVE SMOOTH",
"579 686 OFFCURVE",
"493 731 OFFCURVE",
"380 731 CURVE SMOOTH",
"267 731 OFFCURVE",
"181 686 OFFCURVE",
"124 617 CURVE SMOOTH",
"67 548 OFFCURVE",
"38 454 OFFCURVE",
"38 357 CURVE SMOOTH"
);
},
{
closed = 1;
nodes = (
"426 908 LINE",
"530 765 LINE",
"446 765 LINE",
"377 861 LINE",
"307 765 LINE",
"231 765 LINE",
"333 908 LINE"
);
}
);
width = 760;
}
);
note = Ocircumflex;
unicode = 00D4;
},
{
glyphname = Otilde;
layers = (
{
layerId = "B170CD55-4C38-4AB6-AD9A-F7E1CB90D307";
name = Regular;
paths = (
{
closed = 1;
nodes = (
"133 429 OFFCURVE",
"151 502 OFFCURVE",
"191 558 CURVE SMOOTH",
"231 614 OFFCURVE",
"293 651 OFFCURVE",
"380 651 CURVE SMOOTH",
"467 651 OFFCURVE",
"529 614 OFFCURVE",
"569 558 CURVE SMOOTH",
"609 502 OFFCURVE",
"627 429 OFFCURVE",
"627 357 CURVE SMOOTH",
"627 285 OFFCURVE",
"609 212 OFFCURVE",
"569 156 CURVE SMOOTH",
"529 100 OFFCURVE",
"467 63 OFFCURVE",
"380 63 CURVE SMOOTH",
"293 63 OFFCURVE",
"231 100 OFFCURVE",
"191 156 CURVE SMOOTH",
"151 212 OFFCURVE",
"133 285 OFFCURVE",
"133 357 CURVE SMOOTH"
);
},
{
closed = 1;
nodes = (
"38 260 OFFCURVE",
"67 166 OFFCURVE",
"124 97 CURVE SMOOTH",
"181 28 OFFCURVE",
"267 -16 OFFCURVE",
"380 -16 CURVE SMOOTH",
"493 -16 OFFCURVE",
"579 28 OFFCURVE",
"636 97 CURVE SMOOTH",
"693 166 OFFCURVE",
"722 260 OFFCURVE",
"722 357 CURVE SMOOTH",
"722 454 OFFCURVE",
"693 548 OFFCURVE",
"636 617 CURVE SMOOTH",
"579 686 OFFCURVE",
"493 731 OFFCURVE",
"380 731 CURVE SMOOTH",
"267 731 OFFCURVE",
"181 686 OFFCURVE",
"124 617 CURVE SMOOTH",
"67 548 OFFCURVE",
"38 454 OFFCURVE",
"38 357 CURVE SMOOTH"
);
},
{
closed = 1;
nodes = (
"486 839 OFFCURVE",
"503 859 OFFCURVE",
"507 894 CURVE",
"556 894 LINE",
"543 801 OFFCURVE",
"504 773 OFFCURVE",
"452 773 CURVE SMOOTH",
"425 773 OFFCURVE",
"402 786 OFFCURVE",
"378 799 CURVE SMOOTH",
"354 812 OFFCURVE",
"331 825 OFFCURVE",
"307 825 CURVE SMOOTH",
"276 825 OFFCURVE",
"258 808 OFFCURVE",
"252 774 CURVE",
"205 774 LINE",
"218 855 OFFCURVE",
"252 891 OFFCURVE",
"308 891 CURVE SMOOTH",
"335 891 OFFCURVE",
"360 878 OFFCURVE",
"384 865 CURVE SMOOTH",
"408 852 OFFCURVE",
"433 839 OFFCURVE",
"457 839 CURVE SMOOTH"
);
}
);
width = 760;
}
);
note = Otilde;
unicode = 00D5;
},
{
glyphname = Odieresis;
layers = (
{
layerId = "B170CD55-4C38-4AB6-AD9A-F7E1CB90D307";
name = Regular;
paths = (
{
closed = 1;
nodes = (
"241 873 LINE",
"241 769 LINE",
"331 769 LINE",
"331 873 LINE"
);
},
{
closed = 1;
nodes = (
"429 873 LINE",
"429 769 LINE",
"519 769 LINE",
"519 873 LINE"
);
},
{
closed = 1;
nodes = (
"133 429 OFFCURVE",
"151 502 OFFCURVE",
"191 558 CURVE SMOOTH",
"231 614 OFFCURVE",
"293 651 OFFCURVE",
"380 651 CURVE SMOOTH",
"467 651 OFFCURVE",
"529 614 OFFCURVE",
"569 558 CURVE SMOOTH",
"609 502 OFFCURVE",
"627 429 OFFCURVE",
"627 357 CURVE SMOOTH",
"627 285 OFFCURVE",
"609 212 OFFCURVE",
"569 156 CURVE SMOOTH",
"529 100 OFFCURVE",
"467 63 OFFCURVE",
"380 63 CURVE SMOOTH",
"293 63 OFFCURVE",
"231 100 OFFCURVE",
"191 156 CURVE SMOOTH",
"151 212 OFFCURVE",
"133 285 OFFCURVE",
"133 357 CURVE SMOOTH"
);
},
{
closed = 1;
nodes = (
"38 260 OFFCURVE",
"67 166 OFFCURVE",
"124 97 CURVE SMOOTH",
"181 28 OFFCURVE",
"267 -16 OFFCURVE",
"380 -16 CURVE SMOOTH",
"493 -16 OFFCURVE",
"579 28 OFFCURVE",
"636 97 CURVE SMOOTH",
"693 166 OFFCURVE",
"722 260 OFFCURVE",
"722 357 CURVE SMOOTH",
"722 454 OFFCURVE",
"693 548 OFFCURVE",
"636 617 CURVE SMOOTH",
"579 686 OFFCURVE",
"493 731 OFFCURVE",
"380 731 CURVE SMOOTH",
"267 731 OFFCURVE",
"181 686 OFFCURVE",
"124 617 CURVE SMOOTH",
"67 548 OFFCURVE",
"38 454 OFFCURVE",
"38 357 CURVE SMOOTH"
);
}
);
width = 760;
}
);
note = Odieresis;
unicode = 00D6;
},
{
glyphname = multiply;
layers = (
{
layerId = "B170CD55-4C38-4AB6-AD9A-F7E1CB90D307";
name = Regular;
paths = (
{
closed = 1;
nodes = (
"71 72 LINE",
"119 24 LINE",
"301 206 LINE",
"482 24 LINE",
"530 72 LINE",
"349 254 LINE",
"529 434 LINE",
"481 482 LINE",
"301 302 LINE",
"120 482 LINE",
"72 434 LINE",
"253 254 LINE"
);
}
);
width = 600;
}
);
note = multiply;
unicode = 00D7;
},
{
glyphname = Oslash;
layers = (
{
layerId = "B170CD55-4C38-4AB6-AD9A-F7E1CB90D307";
name = Regular;
paths = (
{
closed = 1;
nodes = (
"723 700 LINE",
"691 730 LINE",
"612 643 LINE",
"556 699 OFFCURVE",
"480 731 OFFCURVE",
"380 731 CURVE SMOOTH",
"267 731 OFFCURVE",
"181 686 OFFCURVE",
"124 617 CURVE SMOOTH",
"67 548 OFFCURVE",
"38 454 OFFCURVE",
"38 357 CURVE SMOOTH",
"38 261 OFFCURVE",
"65 170 OFFCURVE",
"121 102 CURVE",
"37 10 LINE",
"70 -19 LINE",
"151 69 LINE",
"207 16 OFFCURVE",
"283 -16 OFFCURVE",
"380 -16 CURVE SMOOTH",
"493 -16 OFFCURVE",
"579 28 OFFCURVE",
"636 97 CURVE SMOOTH",
"693 166 OFFCURVE",
"722 260 OFFCURVE",
"722 357 CURVE SMOOTH",
"722 453 OFFCURVE",
"697 541 OFFCURVE",
"641 610 CURVE"
);
},
{
closed = 1;
nodes = (
"579 541 LINE",
"612 489 OFFCURVE",
"627 422 OFFCURVE",
"627 357 CURVE SMOOTH",
"627 285 OFFCURVE",
"609 212 OFFCURVE",
"569 156 CURVE SMOOTH",
"529 100 OFFCURVE",
"467 63 OFFCURVE",
"380 63 CURVE SMOOTH",
"304 63 OFFCURVE",
"249 90 OFFCURVE",
"210 134 CURVE"
);
},
{
closed = 1;
nodes = (
"183 170 LINE",
"148 223 OFFCURVE",
"133 289 OFFCURVE",
"133 357 CURVE SMOOTH",
"133 429 OFFCURVE",
"151 502 OFFCURVE",
"191 558 CURVE SMOOTH",
"231 614 OFFCURVE",
"293 651 OFFCURVE",
"380 651 CURVE SMOOTH",
"456 651 OFFCURVE",
"513 622 OFFCURVE",
"552 577 CURVE"
);
}
);
width = 760;
}
);
note = Oslash;
unicode = 00D8;
},
{
glyphname = Ugrave;
layers = (
{
layerId = "B170CD55-4C38-4AB6-AD9A-F7E1CB90D307";
name = Regular;
paths = (
{
closed = 1;
nodes = (
"648 714 LINE",
"553 714 LINE",
"553 258 LINE SMOOTH",
"553 130 OFFCURVE",
"488 63 OFFCURVE",
"367 63 CURVE SMOOTH",
"239 63 OFFCURVE",
"169 130 OFFCURVE",
"169 258 CURVE SMOOTH",
"169 714 LINE",
"74 714 LINE",
"74 258 LINE SMOOTH",
"74 67 OFFCURVE",
"183 -16 OFFCURVE",
"367 -16 CURVE SMOOTH",
"547 -16 OFFCURVE",
"648 75 OFFCURVE",
"648 258 CURVE SMOOTH"
);
},
{
closed = 1;
nodes = (
"329 927 LINE",
"425 765 LINE",
"361 765 LINE",
"221 927 LINE"
);
}
);
width = 722;
}
);
note = Ugrave;
unicode = 00D9;
},
{
glyphname = Uacute;
layers = (
{
layerId = "B170CD55-4C38-4AB6-AD9A-F7E1CB90D307";
name = Regular;
paths = (
{
closed = 1;
nodes = (
"648 714 LINE",
"553 714 LINE",
"553 258 LINE SMOOTH",
"553 130 OFFCURVE",
"488 63 OFFCURVE",
"367 63 CURVE SMOOTH",
"239 63 OFFCURVE",
"169 130 OFFCURVE",
"169 258 CURVE SMOOTH",
"169 714 LINE",
"74 714 LINE",
"74 258 LINE SMOOTH",
"74 67 OFFCURVE",
"183 -16 OFFCURVE",
"367 -16 CURVE SMOOTH",
"547 -16 OFFCURVE",
"648 75 OFFCURVE",
"648 258 CURVE SMOOTH"
);
},
{
closed = 1;
nodes = (
"504 927 LINE",
"363 765 LINE",
"299 765 LINE",
"395 927 LINE"
);
}
);
width = 722;
}
);
note = Uacute;
unicode = 00DA;
},
{
glyphname = Ucircumflex;
layers = (
{
layerId = "B170CD55-4C38-4AB6-AD9A-F7E1CB90D307";
name = Regular;
paths = (
{
closed = 1;
nodes = (
"314 908 LINE",
"211 765 LINE",
"288 765 LINE",
"358 861 LINE",
"427 765 LINE",
"511 765 LINE",
"407 908 LINE"
);
},
{
closed = 1;
nodes = (
"648 714 LINE",
"553 714 LINE",
"553 258 LINE SMOOTH",
"553 130 OFFCURVE",
"488 63 OFFCURVE",
"367 63 CURVE SMOOTH",
"239 63 OFFCURVE",
"169 130 OFFCURVE",
"169 258 CURVE SMOOTH",
"169 714 LINE",
"74 714 LINE",
"74 258 LINE SMOOTH",
"74 67 OFFCURVE",
"183 -16 OFFCURVE",
"367 -16 CURVE SMOOTH",
"547 -16 OFFCURVE",
"648 75 OFFCURVE",
"648 258 CURVE SMOOTH"
);
}
);
width = 722;
}
);
note = Ucircumflex;
unicode = 00DB;
},
{
glyphname = Udieresis;
layers = (
{
layerId = "B170CD55-4C38-4AB6-AD9A-F7E1CB90D307";
name = Regular;
paths = (
{
closed = 1;
nodes = (
"222 873 LINE",
"222 769 LINE",
"312 769 LINE",
"312 873 LINE"
);
},
{
closed = 1;
nodes = (
"410 873 LINE",
"410 769 LINE",
"500 769 LINE",
"500 873 LINE"
);
},
{
closed = 1;
nodes = (
"648 714 LINE",
"553 714 LINE",
"553 258 LINE SMOOTH",
"553 130 OFFCURVE",
"488 63 OFFCURVE",
"367 63 CURVE SMOOTH",
"239 63 OFFCURVE",
"169 130 OFFCURVE",
"169 258 CURVE SMOOTH",
"169 714 LINE",
"74 714 LINE",
"74 258 LINE SMOOTH",
"74 67 OFFCURVE",
"183 -16 OFFCURVE",
"367 -16 CURVE SMOOTH",
"547 -16 OFFCURVE",
"648 75 OFFCURVE",
"648 258 CURVE SMOOTH"
);
}
);
width = 722;
}
);
note = Udieresis;
unicode = 00DC;
},
{
glyphname = Yacute;
layers = (
{
layerId = "B170CD55-4C38-4AB6-AD9A-F7E1CB90D307";
name = Regular;
paths = (
{
closed = 1;
nodes = (
"373 292 LINE",
"646 714 LINE",
"538 714 LINE",
"329 374 LINE",
"115 714 LINE",
"2 714 LINE",
"278 292 LINE",
"278 0 LINE",
"373 0 LINE"
);
},
{
closed = 1;
nodes = (
"468 927 LINE",
"327 765 LINE",
"263 765 LINE",
"359 927 LINE"
);
}
);
width = 648;
}
);
note = Yacute;
unicode = 00DD;
},
{
glyphname = Thorn;
layers = (
{
layerId = "B170CD55-4C38-4AB6-AD9A-F7E1CB90D307";
name = Regular;
paths = (
{
closed = 1;
nodes = (
"173 258 LINE",
"173 520 LINE",
"359 520 LINE SMOOTH",
"467 520 OFFCURVE",
"515 476 OFFCURVE",
"515 388 CURVE SMOOTH",
"515 303 OFFCURVE",
"467 257 OFFCURVE",
"359 258 CURVE SMOOTH"
);
},
{
closed = 1;
nodes = (
"78 0 LINE",
"173 0 LINE",
"173 178 LINE",
"391 178 LINE SMOOTH",
"535 177 OFFCURVE",
"610 255 OFFCURVE",
"610 388 CURVE SMOOTH",
"610 521 OFFCURVE",
"535 600 OFFCURVE",
"391 600 CURVE SMOOTH",
"173 600 LINE",
"173 714 LINE",
"78 714 LINE"
);
}
);
width = 648;
}
);
note = Thorn;
unicode = 00DE;
},
{
glyphname = germandbls;
layers = (
{
layerId = "B170CD55-4C38-4AB6-AD9A-F7E1CB90D307";
name = Regular;
paths = (
{
closed = 1;
nodes = (
"64 0 LINE",
"149 0 LINE",
"149 516 LINE SMOOTH",
"149 572 OFFCURVE",
"162 607 OFFCURVE",
"183 628 CURVE SMOOTH",
"203 648 OFFCURVE",
"233 656 OFFCURVE",
"268 656 CURVE SMOOTH",
"300 656 OFFCURVE",
"327 643 OFFCURVE",
"347 623 CURVE SMOOTH",
"367 603 OFFCURVE",
"379 575 OFFCURVE",
"379 543 CURVE SMOOTH",
"379 498 OFFCURVE",
"361 467 OFFCURVE",
"333 449 CURVE SMOOTH",
"305 431 OFFCURVE",
"267 424 OFFCURVE",
"227 427 CURVE",
"227 359 LINE",
"283 359 OFFCURVE",
"329 354 OFFCURVE",
"361 333 CURVE SMOOTH",
"393 312 OFFCURVE",
"411 274 OFFCURVE",
"411 209 CURVE SMOOTH",
"411 121 OFFCURVE",
"353 63 OFFCURVE",
"261 63 CURVE SMOOTH",
"250 63 OFFCURVE",
"238 63 OFFCURVE",
"227 66 CURVE",
"227 -7 LINE",
"240 -10 OFFCURVE",
"255 -11 OFFCURVE",
"270 -11 CURVE SMOOTH",
"338 -11 OFFCURVE",
"396 12 OFFCURVE",
"437 53 CURVE SMOOTH",
"477 93 OFFCURVE",
"501 151 OFFCURVE",
"501 220 CURVE SMOOTH",
"501 264 OFFCURVE",
"490 306 OFFCURVE",
"467 338 CURVE SMOOTH",
"444 370 OFFCURVE",
"410 394 OFFCURVE",
"365 399 CURVE",
"365 401 LINE",
"441 425 OFFCURVE",
"469 480 OFFCURVE",
"469 556 CURVE SMOOTH",
"469 615 OFFCURVE",
"442 658 OFFCURVE",
"403 687 CURVE SMOOTH",
"363 716 OFFCURVE",
"311 731 OFFCURVE",
"262 731 CURVE SMOOTH",
"202 731 OFFCURVE",
"153 711 OFFCURVE",
"118 676 CURVE SMOOTH",
"83 640 OFFCURVE",
"64 591 OFFCURVE",
"64 531 CURVE SMOOTH"
);
}
);
width = 556;
}
);
note = germandbls;
unicode = 00DF;
},
{
glyphname = agrave;
lastChange = "2016-01-24 16:29:42 +0000";
layers = (
{
layerId = "B170CD55-4C38-4AB6-AD9A-F7E1CB90D307";
name = Regular;
paths = (
{
closed = 1;
nodes = (
"234 770 LINE",
"330 608 LINE",
"266 608 LINE",
"126 770 LINE"
);
},
{
closed = 1;
nodes = (
"469 0 LINE",
"389 0 LINE",
"389 55 LINE",
"342 3 OFFCURVE",
"279 -5 OFFCURVE",
"207 -5 CURVE SMOOTH",
"160 -5 OFFCURVE",
"128 4 OFFCURVE",
"97 25 CURVE SMOOTH",
"66 46 OFFCURVE",
"47 81 OFFCURVE",
"47 133 CURVE SMOOTH",
"47 192 OFFCURVE",
"61 227 OFFCURVE",
"94 251 CURVE SMOOTH",
"126 274 OFFCURVE",
"167 286 OFFCURVE",
"211 294 CURVE SMOOTH",
"234 299 OFFCURVE",
"257 302 OFFCURVE",
"278 305 CURVE",
"320 309 OFFCURVE",
"352 317 OFFCURVE",
"371 334 CURVE SMOOTH",
"380 342 OFFCURVE",
"385 352 OFFCURVE",
"385 368 CURVE SMOOTH",
"385 405 OFFCURVE",
"370 427 OFFCURVE",
"348 439 CURVE SMOOTH",
"326 451 OFFCURVE",
"297 454 OFFCURVE",
"270 454 CURVE SMOOTH",
"198 454 OFFCURVE",
"145 432 OFFCURVE",
"141 356 CURVE",
"56 356 LINE",
"59 420 OFFCURVE",
"84 463 OFFCURVE",
"124 491 CURVE SMOOTH",
"164 518 OFFCURVE",
"204 529 OFFCURVE",
"263 529 CURVE SMOOTH",
"310 529 OFFCURVE",
"358 524 OFFCURVE",
"395 504 CURVE SMOOTH",
"432 483 OFFCURVE",
"469 447 OFFCURVE",
"469 387 CURVE SMOOTH"
);
},
{
closed = 1;
nodes = (
"384 267 LINE",
"363 251 OFFCURVE",
"326 245 OFFCURVE",
"288 241 CURVE SMOOTH",
"250 236 OFFCURVE",
"209 231 OFFCURVE",
"178 218 CURVE SMOOTH",
"147 205 OFFCURVE",
"126 182 OFFCURVE",
"126 139 CURVE SMOOTH",
"126 111 OFFCURVE",
"139 92 OFFCURVE",
"157 80 CURVE SMOOTH",
"175 68 OFFCURVE",
"199 63 OFFCURVE",
"226 63 CURVE SMOOTH",
"282 63 OFFCURVE",
"322 76 OFFCURVE",
"347 100 CURVE SMOOTH",
"372 123 OFFCURVE",
"384 152 OFFCURVE",
"384 180 CURVE SMOOTH"
);
}
);
width = 529;
}
);
note = agrave;
unicode = 00E0;
},
{
glyphname = aacute;
lastChange = "2016-01-24 16:29:57 +0000";
layers = (
{
layerId = "B170CD55-4C38-4AB6-AD9A-F7E1CB90D307";
name = Regular;
paths = (
{
closed = 1;
nodes = (
"413 770 LINE",
"272 608 LINE",
"208 608 LINE",
"304 770 LINE"
);
},
{
closed = 1;
nodes = (
"469 0 LINE",
"389 0 LINE",
"389 55 LINE",
"342 3 OFFCURVE",
"279 -5 OFFCURVE",
"207 -5 CURVE SMOOTH",
"160 -5 OFFCURVE",
"128 4 OFFCURVE",
"97 25 CURVE SMOOTH",
"66 46 OFFCURVE",
"47 81 OFFCURVE",
"47 133 CURVE SMOOTH",
"47 192 OFFCURVE",
"61 227 OFFCURVE",
"94 251 CURVE SMOOTH",
"126 274 OFFCURVE",
"167 286 OFFCURVE",
"211 294 CURVE SMOOTH",
"234 299 OFFCURVE",
"257 302 OFFCURVE",
"278 305 CURVE",
"320 309 OFFCURVE",
"352 317 OFFCURVE",
"371 334 CURVE SMOOTH",
"380 342 OFFCURVE",
"385 352 OFFCURVE",
"385 368 CURVE SMOOTH",
"385 405 OFFCURVE",
"370 427 OFFCURVE",
"348 439 CURVE SMOOTH",
"326 451 OFFCURVE",
"297 454 OFFCURVE",
"270 454 CURVE SMOOTH",
"198 454 OFFCURVE",
"145 432 OFFCURVE",
"141 356 CURVE",
"56 356 LINE",
"59 420 OFFCURVE",
"84 463 OFFCURVE",
"124 491 CURVE SMOOTH",
"164 518 OFFCURVE",
"204 529 OFFCURVE",
"263 529 CURVE SMOOTH",
"310 529 OFFCURVE",
"358 524 OFFCURVE",
"395 504 CURVE SMOOTH",
"432 483 OFFCURVE",
"469 447 OFFCURVE",
"469 387 CURVE SMOOTH"
);
},
{
closed = 1;
nodes = (
"384 267 LINE",
"363 251 OFFCURVE",
"326 245 OFFCURVE",
"288 241 CURVE SMOOTH",
"250 236 OFFCURVE",
"209 231 OFFCURVE",
"178 218 CURVE SMOOTH",
"147 205 OFFCURVE",
"126 182 OFFCURVE",
"126 139 CURVE SMOOTH",
"126 111 OFFCURVE",
"139 92 OFFCURVE",
"157 80 CURVE SMOOTH",
"175 68 OFFCURVE",
"199 63 OFFCURVE",
"226 63 CURVE SMOOTH",
"282 63 OFFCURVE",
"322 76 OFFCURVE",
"347 100 CURVE SMOOTH",
"372 123 OFFCURVE",
"384 152 OFFCURVE",
"384 180 CURVE SMOOTH"
);
}
);
width = 529;
}
);
note = aacute;
unicode = 00E1;
},
{
glyphname = acircumflex;
lastChange = "2016-01-24 16:30:02 +0000";
layers = (
{
layerId = "B170CD55-4C38-4AB6-AD9A-F7E1CB90D307";
name = Regular;
paths = (
{
closed = 1;
nodes = (
"315 751 LINE",
"419 608 LINE",
"335 608 LINE",
"266 704 LINE",
"196 608 LINE",
"120 608 LINE",
"222 751 LINE"
);
},
{
closed = 1;
nodes = (
"469 0 LINE",
"389 0 LINE",
"389 55 LINE",
"342 3 OFFCURVE",
"279 -5 OFFCURVE",
"207 -5 CURVE SMOOTH",
"160 -5 OFFCURVE",
"128 4 OFFCURVE",
"97 25 CURVE SMOOTH",
"66 46 OFFCURVE",
"47 81 OFFCURVE",
"47 133 CURVE SMOOTH",
"47 192 OFFCURVE",
"61 227 OFFCURVE",
"94 251 CURVE SMOOTH",
"126 274 OFFCURVE",
"167 286 OFFCURVE",
"211 294 CURVE SMOOTH",
"234 299 OFFCURVE",
"257 302 OFFCURVE",
"278 305 CURVE",
"320 309 OFFCURVE",
"352 317 OFFCURVE",
"371 334 CURVE SMOOTH",
"380 342 OFFCURVE",
"385 352 OFFCURVE",
"385 368 CURVE SMOOTH",
"385 405 OFFCURVE",
"370 427 OFFCURVE",
"348 439 CURVE SMOOTH",
"326 451 OFFCURVE",
"297 454 OFFCURVE",
"270 454 CURVE SMOOTH",
"198 454 OFFCURVE",
"145 432 OFFCURVE",
"141 356 CURVE",
"56 356 LINE",
"59 420 OFFCURVE",
"84 463 OFFCURVE",
"124 491 CURVE SMOOTH",
"164 518 OFFCURVE",
"204 529 OFFCURVE",
"263 529 CURVE SMOOTH",
"310 529 OFFCURVE",
"358 524 OFFCURVE",
"395 504 CURVE SMOOTH",
"432 483 OFFCURVE",
"469 447 OFFCURVE",
"469 387 CURVE SMOOTH"
);
},
{
closed = 1;
nodes = (
"384 267 LINE",
"363 251 OFFCURVE",
"326 245 OFFCURVE",
"288 241 CURVE SMOOTH",
"250 236 OFFCURVE",
"209 231 OFFCURVE",
"178 218 CURVE SMOOTH",
"147 205 OFFCURVE",
"126 182 OFFCURVE",
"126 139 CURVE SMOOTH",
"126 111 OFFCURVE",
"139 92 OFFCURVE",
"157 80 CURVE SMOOTH",
"175 68 OFFCURVE",
"199 63 OFFCURVE",
"226 63 CURVE SMOOTH",
"282 63 OFFCURVE",
"322 76 OFFCURVE",
"347 100 CURVE SMOOTH",
"372 123 OFFCURVE",
"384 152 OFFCURVE",
"384 180 CURVE SMOOTH"
);
}
);
width = 529;
}
);
note = acircumflex;
unicode = 00E2;
},
{
glyphname = atilde;
lastChange = "2016-01-24 16:30:06 +0000";
layers = (
{
layerId = "B170CD55-4C38-4AB6-AD9A-F7E1CB90D307";
name = Regular;
paths = (
{
closed = 1;
nodes = (
"378 683 OFFCURVE",
"395 703 OFFCURVE",
"399 738 CURVE",
"448 738 LINE",
"435 645 OFFCURVE",
"396 617 OFFCURVE",
"344 617 CURVE SMOOTH",
"317 617 OFFCURVE",
"294 630 OFFCURVE",
"270 643 CURVE SMOOTH",
"246 656 OFFCURVE",
"223 669 OFFCURVE",
"199 669 CURVE SMOOTH",
"168 669 OFFCURVE",
"150 652 OFFCURVE",
"144 618 CURVE",
"97 618 LINE",
"110 699 OFFCURVE",
"144 735 OFFCURVE",
"200 735 CURVE SMOOTH",
"227 735 OFFCURVE",
"252 722 OFFCURVE",
"276 709 CURVE SMOOTH",
"300 696 OFFCURVE",
"325 683 OFFCURVE",
"349 683 CURVE SMOOTH"
);
},
{
closed = 1;
nodes = (
"469 0 LINE",
"389 0 LINE",
"389 55 LINE",
"342 3 OFFCURVE",
"279 -5 OFFCURVE",
"207 -5 CURVE SMOOTH",
"160 -5 OFFCURVE",
"128 4 OFFCURVE",
"97 25 CURVE SMOOTH",
"66 46 OFFCURVE",
"47 81 OFFCURVE",
"47 133 CURVE SMOOTH",
"47 192 OFFCURVE",
"61 227 OFFCURVE",
"94 251 CURVE SMOOTH",
"126 274 OFFCURVE",
"167 286 OFFCURVE",
"211 294 CURVE SMOOTH",
"234 299 OFFCURVE",
"257 302 OFFCURVE",
"278 305 CURVE",
"320 309 OFFCURVE",
"352 317 OFFCURVE",
"371 334 CURVE SMOOTH",
"380 342 OFFCURVE",
"385 352 OFFCURVE",
"385 368 CURVE SMOOTH",
"385 405 OFFCURVE",
"370 427 OFFCURVE",
"348 439 CURVE SMOOTH",
"326 451 OFFCURVE",
"297 454 OFFCURVE",
"270 454 CURVE SMOOTH",
"198 454 OFFCURVE",
"145 432 OFFCURVE",
"141 356 CURVE",
"56 356 LINE",
"59 420 OFFCURVE",
"84 463 OFFCURVE",
"124 491 CURVE SMOOTH",
"164 518 OFFCURVE",
"204 529 OFFCURVE",
"263 529 CURVE SMOOTH",
"310 529 OFFCURVE",
"358 524 OFFCURVE",
"395 504 CURVE SMOOTH",
"432 483 OFFCURVE",
"469 447 OFFCURVE",
"469 387 CURVE SMOOTH"
);
},
{
closed = 1;
nodes = (
"384 267 LINE",
"363 251 OFFCURVE",
"326 245 OFFCURVE",
"288 241 CURVE SMOOTH",
"250 236 OFFCURVE",
"209 231 OFFCURVE",
"178 218 CURVE SMOOTH",
"147 205 OFFCURVE",
"126 182 OFFCURVE",
"126 139 CURVE SMOOTH",
"126 111 OFFCURVE",
"139 92 OFFCURVE",
"157 80 CURVE SMOOTH",
"175 68 OFFCURVE",
"199 63 OFFCURVE",
"226 63 CURVE SMOOTH",
"282 63 OFFCURVE",
"322 76 OFFCURVE",
"347 100 CURVE SMOOTH",
"372 123 OFFCURVE",
"384 152 OFFCURVE",
"384 180 CURVE SMOOTH"
);
}
);
width = 529;
}
);
note = atilde;
unicode = 00E3;
},
{
glyphname = adieresis;
lastChange = "2016-01-24 16:30:13 +0000";
layers = (
{
layerId = "B170CD55-4C38-4AB6-AD9A-F7E1CB90D307";
name = Regular;
paths = (
{
closed = 1;
nodes = (
"130 696 LINE",
"130 592 LINE",
"220 592 LINE",
"220 696 LINE"
);
},
{
closed = 1;
nodes = (
"318 696 LINE",
"318 592 LINE",
"408 592 LINE",
"408 696 LINE"
);
},
{
closed = 1;
nodes = (
"469 0 LINE",
"389 0 LINE",
"389 55 LINE",
"342 3 OFFCURVE",
"279 -5 OFFCURVE",
"207 -5 CURVE SMOOTH",
"160 -5 OFFCURVE",
"128 4 OFFCURVE",
"97 25 CURVE SMOOTH",
"66 46 OFFCURVE",
"47 81 OFFCURVE",
"47 133 CURVE SMOOTH",
"47 192 OFFCURVE",
"61 227 OFFCURVE",
"94 251 CURVE SMOOTH",
"126 274 OFFCURVE",
"167 286 OFFCURVE",
"211 294 CURVE SMOOTH",
"234 299 OFFCURVE",
"257 302 OFFCURVE",
"278 305 CURVE",
"320 309 OFFCURVE",
"352 317 OFFCURVE",
"371 334 CURVE SMOOTH",
"380 342 OFFCURVE",
"385 352 OFFCURVE",
"385 368 CURVE SMOOTH",
"385 405 OFFCURVE",
"370 427 OFFCURVE",
"348 439 CURVE SMOOTH",
"326 451 OFFCURVE",
"297 454 OFFCURVE",
"270 454 CURVE SMOOTH",
"198 454 OFFCURVE",
"145 432 OFFCURVE",
"141 356 CURVE",
"56 356 LINE",
"59 420 OFFCURVE",
"84 463 OFFCURVE",
"124 491 CURVE SMOOTH",
"164 518 OFFCURVE",
"204 529 OFFCURVE",
"263 529 CURVE SMOOTH",
"310 529 OFFCURVE",
"358 524 OFFCURVE",
"395 504 CURVE SMOOTH",
"432 483 OFFCURVE",
"469 447 OFFCURVE",
"469 387 CURVE SMOOTH"
);
},
{
closed = 1;
nodes = (
"384 267 LINE",
"363 251 OFFCURVE",
"326 245 OFFCURVE",
"288 241 CURVE SMOOTH",
"250 236 OFFCURVE",
"209 231 OFFCURVE",
"178 218 CURVE SMOOTH",
"147 205 OFFCURVE",
"126 182 OFFCURVE",
"126 139 CURVE SMOOTH",
"126 111 OFFCURVE",
"139 92 OFFCURVE",
"157 80 CURVE SMOOTH",
"175 68 OFFCURVE",
"199 63 OFFCURVE",
"226 63 CURVE SMOOTH",
"282 63 OFFCURVE",
"322 76 OFFCURVE",
"347 100 CURVE SMOOTH",
"372 123 OFFCURVE",
"384 152 OFFCURVE",
"384 180 CURVE SMOOTH"
);
}
);
width = 529;
}
);
note = adieresis;
unicode = 00E4;
},
{
glyphname = aring;
lastChange = "2016-01-24 16:30:18 +0000";
layers = (
{
layerId = "B170CD55-4C38-4AB6-AD9A-F7E1CB90D307";
name = Regular;
paths = (
{
closed = 1;
nodes = (
"156 631 OFFCURVE",
"169 603 OFFCURVE",
"190 583 CURVE",
"210 562 OFFCURVE",
"238 549 OFFCURVE",
"269 549 CURVE SMOOTH",
"300 549 OFFCURVE",
"328 562 OFFCURVE",
"349 583 CURVE SMOOTH",
"369 603 OFFCURVE",
"382 631 OFFCURVE",
"382 662 CURVE SMOOTH",
"382 693 OFFCURVE",
"369 721 OFFCURVE",
"349 742 CURVE",
"328 762 OFFCURVE",
"300 775 OFFCURVE",
"269 775 CURVE SMOOTH",
"238 775 OFFCURVE",
"210 762 OFFCURVE",
"190 742 CURVE SMOOTH",
"169 721 OFFCURVE",
"156 693 OFFCURVE",
"156 662 CURVE SMOOTH"
);
},
{
closed = 1;
nodes = (
"201 701 OFFCURVE",
"230 730 OFFCURVE",
"269 730 CURVE SMOOTH",
"308 730 OFFCURVE",
"337 701 OFFCURVE",
"337 662 CURVE SMOOTH",
"337 623 OFFCURVE",
"308 594 OFFCURVE",
"269 594 CURVE SMOOTH",
"230 594 OFFCURVE",
"201 623 OFFCURVE",
"201 662 CURVE SMOOTH"
);
},
{
closed = 1;
nodes = (
"469 0 LINE",
"389 0 LINE",
"389 55 LINE",
"342 3 OFFCURVE",
"279 -5 OFFCURVE",
"207 -5 CURVE SMOOTH",
"160 -5 OFFCURVE",
"128 4 OFFCURVE",
"97 25 CURVE SMOOTH",
"66 46 OFFCURVE",
"47 81 OFFCURVE",
"47 133 CURVE SMOOTH",
"47 192 OFFCURVE",
"61 227 OFFCURVE",
"94 251 CURVE SMOOTH",
"126 274 OFFCURVE",
"167 286 OFFCURVE",
"211 294 CURVE SMOOTH",
"234 299 OFFCURVE",
"257 302 OFFCURVE",
"278 305 CURVE",
"320 309 OFFCURVE",
"352 317 OFFCURVE",
"371 334 CURVE SMOOTH",
"380 342 OFFCURVE",
"385 352 OFFCURVE",
"385 368 CURVE SMOOTH",
"385 405 OFFCURVE",
"370 427 OFFCURVE",
"348 439 CURVE SMOOTH",
"326 451 OFFCURVE",
"297 454 OFFCURVE",
"270 454 CURVE SMOOTH",
"198 454 OFFCURVE",
"145 432 OFFCURVE",
"141 356 CURVE",
"56 356 LINE",
"59 420 OFFCURVE",
"84 463 OFFCURVE",
"124 491 CURVE SMOOTH",
"164 518 OFFCURVE",
"204 529 OFFCURVE",
"263 529 CURVE SMOOTH",
"310 529 OFFCURVE",
"358 524 OFFCURVE",
"395 504 CURVE SMOOTH",
"432 483 OFFCURVE",
"469 447 OFFCURVE",
"469 387 CURVE SMOOTH"
);
},
{
closed = 1;
nodes = (
"384 267 LINE",
"363 251 OFFCURVE",
"326 245 OFFCURVE",
"288 241 CURVE SMOOTH",
"250 236 OFFCURVE",
"209 231 OFFCURVE",
"178 218 CURVE SMOOTH",
"147 205 OFFCURVE",
"126 182 OFFCURVE",
"126 139 CURVE SMOOTH",
"126 111 OFFCURVE",
"139 92 OFFCURVE",
"157 80 CURVE SMOOTH",
"175 68 OFFCURVE",
"199 63 OFFCURVE",
"226 63 CURVE SMOOTH",
"282 63 OFFCURVE",
"322 76 OFFCURVE",
"347 100 CURVE SMOOTH",
"372 123 OFFCURVE",
"384 152 OFFCURVE",
"384 180 CURVE SMOOTH"
);
}
);
width = 529;
}
);
note = aring;
unicode = 00E5;
},
{
glyphname = ae;
layers = (
{
layerId = "B170CD55-4C38-4AB6-AD9A-F7E1CB90D307";
name = Regular;
paths = (
{
closed = 1;
nodes = (
"846 233 LINE",
"846 313 OFFCURVE",
"833 388 OFFCURVE",
"797 442 CURVE SMOOTH",
"761 496 OFFCURVE",
"704 529 OFFCURVE",
"613 529 CURVE SMOOTH",
"550 529 OFFCURVE",
"483 507 OFFCURVE",
"448 454 CURVE",
"432 486 OFFCURVE",
"404 505 OFFCURVE",
"372 516 CURVE SMOOTH",
"340 527 OFFCURVE",
"306 529 OFFCURVE",
"275 529 CURVE SMOOTH",
"218 529 OFFCURVE",
"164 518 OFFCURVE",
"124 491 CURVE SMOOTH",
"84 463 OFFCURVE",
"59 420 OFFCURVE",
"56 356 CURVE",
"141 356 LINE",
"145 432 OFFCURVE",
"198 454 OFFCURVE",
"270 454 CURVE SMOOTH",
"298 454 OFFCURVE",
"328 452 OFFCURVE",
"350 441 CURVE",
"372 429 OFFCURVE",
"387 409 OFFCURVE",
"387 374 CURVE SMOOTH",
"387 343 OFFCURVE",
"374 329 OFFCURVE",
"346 319 CURVE SMOOTH",
"332 314 OFFCURVE",
"314 309 OFFCURVE",
"292 306 CURVE SMOOTH",
"247 299 OFFCURVE",
"189 289 OFFCURVE",
"147 277 CURVE SMOOTH",
"105 265 OFFCURVE",
"71 242 OFFCURVE",
"51 205 CURVE SMOOTH",
"41 186 OFFCURVE",
"36 162 OFFCURVE",
"36 133 CURVE SMOOTH",
"36 81 OFFCURVE",
"55 45 OFFCURVE",
"87 22 CURVE",
"118 -2 OFFCURVE",
"162 -11 OFFCURVE",
"211 -11 CURVE SMOOTH",
"307 -11 OFFCURVE",
"390 18 OFFCURVE",
"429 89 CURVE",
"446 50 OFFCURVE",
"473 26 OFFCURVE",
"506 11 CURVE",
"538 -5 OFFCURVE",
"576 -11 OFFCURVE",
"616 -11 CURVE SMOOTH",
"733 -11 OFFCURVE",
"815 50 OFFCURVE",
"840 163 CURVE",
"753 163 LINE",
"737 95 OFFCURVE",
"686 63 OFFCURVE",
"622 63 CURVE SMOOTH",
"570 63 OFFCURVE",
"530 82 OFFCURVE",
"505 114 CURVE SMOOTH",
"480 145 OFFCURVE",
"467 188 OFFCURVE",
"467 233 CURVE"
);
},
{
closed = 1;
nodes = (
"126 171 OFFCURVE",
"138 192 OFFCURVE",
"157 206 CURVE SMOOTH",
"176 220 OFFCURVE",
"202 227 OFFCURVE",
"230 232 CURVE",
"243 235 OFFCURVE",
"258 237 OFFCURVE",
"273 239 CURVE SMOOTH",
"303 243 OFFCURVE",
"331 247 OFFCURVE",
"356 254 CURVE SMOOTH",
"368 257 OFFCURVE",
"378 262 OFFCURVE",
"387 267 CURVE",
"387 180 LINE SMOOTH",
"387 156 OFFCURVE",
"375 127 OFFCURVE",
"349 104 CURVE SMOOTH",
"323 80 OFFCURVE",
"282 63 OFFCURVE",
"226 63 CURVE SMOOTH",
"201 63 OFFCURVE",
"175 68 OFFCURVE",
"157 80 CURVE SMOOTH",
"139 92 OFFCURVE",
"126 111 OFFCURVE",
"126 139 CURVE SMOOTH"
);
},
{
closed = 1;
nodes = (
"467 308 LINE",
"467 351 OFFCURVE",
"481 387 OFFCURVE",
"506 413 CURVE SMOOTH",
"531 439 OFFCURVE",
"568 454 OFFCURVE",
"613 454 CURVE SMOOTH",
"658 454 OFFCURVE",
"694 438 OFFCURVE",
"718 412 CURVE SMOOTH",
"742 386 OFFCURVE",
"755 348 OFFCURVE",
"756 308 CURVE"
);
}
);
width = 870;
}
);
note = ae;
unicode = 00E6;
},
{
glyphname = ccedilla;
layers = (
{
layerId = "B170CD55-4C38-4AB6-AD9A-F7E1CB90D307";
name = Regular;
paths = (
{
closed = 1;
nodes = (
"503 351 LINE",
"496 412 OFFCURVE",
"470 457 OFFCURVE",
"431 486 CURVE SMOOTH",
"391 515 OFFCURVE",
"339 529 OFFCURVE",
"280 529 CURVE SMOOTH",
"199 529 OFFCURVE",
"137 499 OFFCURVE",
"97 449 CURVE SMOOTH",
"56 399 OFFCURVE",
"36 329 OFFCURVE",
"36 252 CURVE SMOOTH",
"36 179 OFFCURVE",
"55 116 OFFCURVE",
"91 71 CURVE SMOOTH",
"127 26 OFFCURVE",
"181 -4 OFFCURVE",
"252 -9 CURVE",
"199 -77 LINE",
"216 -105 LINE",
"231 -100 OFFCURVE",
"241 -97 OFFCURVE",
"257 -97 CURVE SMOOTH",
"284 -97 OFFCURVE",
"304 -109 OFFCURVE",
"304 -128 CURVE SMOOTH",
"304 -140 OFFCURVE",
"295 -147 OFFCURVE",
"283 -152 CURVE SMOOTH",
"271 -157 OFFCURVE",
"255 -159 OFFCURVE",
"242 -159 CURVE SMOOTH",
"221 -159 OFFCURVE",
"197 -153 OFFCURVE",
"181 -146 CURVE",
"163 -190 LINE",
"194 -201 OFFCURVE",
"223 -209 OFFCURVE",
"255 -209 CURVE SMOOTH",
"283 -209 OFFCURVE",
"314 -203 OFFCURVE",
"338 -189 CURVE SMOOTH",
"362 -175 OFFCURVE",
"379 -153 OFFCURVE",
"379 -120 CURVE SMOOTH",
"379 -71 OFFCURVE",
"338 -47 OFFCURVE",
"295 -47 CURVE SMOOTH",
"280 -47 OFFCURVE",
"269 -49 OFFCURVE",
"262 -54 CURVE",
"260 -52 LINE",
"293 -10 LINE",
"414 -5 OFFCURVE",
"487 68 OFFCURVE",
"506 189 CURVE",
"419 189 LINE",
"408 109 OFFCURVE",
"361 63 OFFCURVE",
"277 63 CURVE SMOOTH",
"224 63 OFFCURVE",
"185 86 OFFCURVE",
"161 122 CURVE SMOOTH",
"137 157 OFFCURVE",
"126 204 OFFCURVE",
"126 252 CURVE SMOOTH",
"126 304 OFFCURVE",
"136 355 OFFCURVE",
"161 392 CURVE SMOOTH",
"185 429 OFFCURVE",
"226 454 OFFCURVE",
"287 454 CURVE SMOOTH",
"359 454 OFFCURVE",
"402 416 OFFCURVE",
"415 351 CURVE"
);
}
);
width = 537;
}
);
note = ccedilla;
unicode = 00E7;
},
{
glyphname = egrave;
lastChange = "2016-01-24 00:31:20 +0000";
layers = (
{
layerId = "B170CD55-4C38-4AB6-AD9A-F7E1CB90D307";
name = Regular;
paths = (
{
closed = 1;
nodes = (
"234 770 LINE",
"330 608 LINE",
"266 608 LINE",
"126 770 LINE"
);
},
{
closed = 1;
nodes = (
"126 309 LINE",
"129 349 OFFCURVE",
"144 384 OFFCURVE",
"169 411 CURVE SMOOTH",
"194 438 OFFCURVE",
"230 454 OFFCURVE",
"274 454 CURVE SMOOTH",
"317 454 OFFCURVE",
"353 438 OFFCURVE",
"379 412 CURVE SMOOTH",
"405 386 OFFCURVE",
"420 349 OFFCURVE",
"423 309 CURVE"
);
},
{
closed = 1;
nodes = (
"421 161 LINE",
"406 93 OFFCURVE",
"359 63 OFFCURVE",
"287 63 CURVE SMOOTH",
"231 63 OFFCURVE",
"190 83 OFFCURVE",
"163 115 CURVE SMOOTH",
"136 146 OFFCURVE",
"125 189 OFFCURVE",
"126 234 CURVE",
"513 234 LINE",
"516 297 OFFCURVE",
"503 369 OFFCURVE",
"467 428 CURVE SMOOTH",
"430 487 OFFCURVE",
"371 529 OFFCURVE",
"279 529 CURVE SMOOTH",
"208 529 OFFCURVE",
"148 501 OFFCURVE",
"105 453 CURVE SMOOTH",
"61 405 OFFCURVE",
"36 340 OFFCURVE",
"36 261 CURVE",
"39 182 OFFCURVE",
"59 113 OFFCURVE",
"100 65 CURVE SMOOTH",
"141 17 OFFCURVE",
"201 -11 OFFCURVE",
"284 -11 CURVE SMOOTH",
"401 -11 OFFCURVE",
"482 45 OFFCURVE",
"505 161 CURVE"
);
}
);
width = 537;
}
);
note = egrave;
unicode = 00E8;
},
{
glyphname = eacute;
lastChange = "2016-01-24 00:31:35 +0000";
layers = (
{
layerId = "B170CD55-4C38-4AB6-AD9A-F7E1CB90D307";
name = Regular;
paths = (
{
closed = 1;
nodes = (
"413 770 LINE",
"272 608 LINE",
"208 608 LINE",
"304 770 LINE"
);
},
{
closed = 1;
nodes = (
"126 309 LINE",
"129 349 OFFCURVE",
"144 384 OFFCURVE",
"169 411 CURVE SMOOTH",
"194 438 OFFCURVE",
"230 454 OFFCURVE",
"274 454 CURVE SMOOTH",
"317 454 OFFCURVE",
"353 438 OFFCURVE",
"379 412 CURVE SMOOTH",
"405 386 OFFCURVE",
"420 349 OFFCURVE",
"423 309 CURVE"
);
},
{
closed = 1;
nodes = (
"421 161 LINE",
"406 93 OFFCURVE",
"359 63 OFFCURVE",
"287 63 CURVE SMOOTH",
"231 63 OFFCURVE",
"190 83 OFFCURVE",
"163 115 CURVE SMOOTH",
"136 146 OFFCURVE",
"125 189 OFFCURVE",
"126 234 CURVE",
"513 234 LINE",
"516 297 OFFCURVE",
"503 369 OFFCURVE",
"467 428 CURVE SMOOTH",
"430 487 OFFCURVE",
"371 529 OFFCURVE",
"279 529 CURVE SMOOTH",
"208 529 OFFCURVE",
"148 501 OFFCURVE",
"105 453 CURVE SMOOTH",
"61 405 OFFCURVE",
"36 340 OFFCURVE",
"36 261 CURVE",
"39 182 OFFCURVE",
"59 113 OFFCURVE",
"100 65 CURVE SMOOTH",
"141 17 OFFCURVE",
"201 -11 OFFCURVE",
"284 -11 CURVE SMOOTH",
"401 -11 OFFCURVE",
"482 45 OFFCURVE",
"505 161 CURVE"
);
}
);
width = 537;
}
);
note = eacute;
unicode = 00E9;
},
{
glyphname = ecircumflex;
lastChange = "2016-01-24 00:31:42 +0000";
layers = (
{
layerId = "B170CD55-4C38-4AB6-AD9A-F7E1CB90D307";
name = Regular;
paths = (
{
closed = 1;
nodes = (
"315 751 LINE",
"419 608 LINE",
"335 608 LINE",
"266 704 LINE",
"196 608 LINE",
"120 608 LINE",
"222 751 LINE"
);
},
{
closed = 1;
nodes = (
"126 309 LINE",
"129 349 OFFCURVE",
"144 384 OFFCURVE",
"169 411 CURVE SMOOTH",
"194 438 OFFCURVE",
"230 454 OFFCURVE",
"274 454 CURVE SMOOTH",
"317 454 OFFCURVE",
"353 438 OFFCURVE",
"379 412 CURVE SMOOTH",
"405 386 OFFCURVE",
"420 349 OFFCURVE",
"423 309 CURVE"
);
},
{
closed = 1;
nodes = (
"421 161 LINE",
"406 93 OFFCURVE",
"359 63 OFFCURVE",
"287 63 CURVE SMOOTH",
"231 63 OFFCURVE",
"190 83 OFFCURVE",
"163 115 CURVE SMOOTH",
"136 146 OFFCURVE",
"125 189 OFFCURVE",
"126 234 CURVE",
"513 234 LINE",
"516 297 OFFCURVE",
"503 369 OFFCURVE",
"467 428 CURVE SMOOTH",
"430 487 OFFCURVE",
"371 529 OFFCURVE",
"279 529 CURVE SMOOTH",
"208 529 OFFCURVE",
"148 501 OFFCURVE",
"105 453 CURVE SMOOTH",
"61 405 OFFCURVE",
"36 340 OFFCURVE",
"36 261 CURVE",
"39 182 OFFCURVE",
"59 113 OFFCURVE",
"100 65 CURVE SMOOTH",
"141 17 OFFCURVE",
"201 -11 OFFCURVE",
"284 -11 CURVE SMOOTH",
"401 -11 OFFCURVE",
"482 45 OFFCURVE",
"505 161 CURVE"
);
}
);
width = 537;
}
);
note = ecircumflex;
unicode = 00EA;
},
{
glyphname = edieresis;
lastChange = "2016-01-24 00:31:50 +0000";
layers = (
{
layerId = "B170CD55-4C38-4AB6-AD9A-F7E1CB90D307";
name = Regular;
paths = (
{
closed = 1;
nodes = (
"130 696 LINE",
"130 592 LINE",
"220 592 LINE",
"220 696 LINE"
);
},
{
closed = 1;
nodes = (
"318 696 LINE",
"318 592 LINE",
"408 592 LINE",
"408 696 LINE"
);
},
{
closed = 1;
nodes = (
"126 309 LINE",
"129 349 OFFCURVE",
"144 384 OFFCURVE",
"169 411 CURVE SMOOTH",
"194 438 OFFCURVE",
"230 454 OFFCURVE",
"274 454 CURVE SMOOTH",
"317 454 OFFCURVE",
"353 438 OFFCURVE",
"379 412 CURVE SMOOTH",
"405 386 OFFCURVE",
"420 349 OFFCURVE",
"423 309 CURVE"
);
},
{
closed = 1;
nodes = (
"421 161 LINE",
"406 93 OFFCURVE",
"359 63 OFFCURVE",
"287 63 CURVE SMOOTH",
"231 63 OFFCURVE",
"190 83 OFFCURVE",
"163 115 CURVE SMOOTH",
"136 146 OFFCURVE",
"125 189 OFFCURVE",
"126 234 CURVE",
"513 234 LINE",
"516 297 OFFCURVE",
"503 369 OFFCURVE",
"467 428 CURVE SMOOTH",
"430 487 OFFCURVE",
"371 529 OFFCURVE",
"279 529 CURVE SMOOTH",
"208 529 OFFCURVE",
"148 501 OFFCURVE",
"105 453 CURVE SMOOTH",
"61 405 OFFCURVE",
"36 340 OFFCURVE",
"36 261 CURVE",
"39 182 OFFCURVE",
"59 113 OFFCURVE",
"100 65 CURVE SMOOTH",
"141 17 OFFCURVE",
"201 -11 OFFCURVE",
"284 -11 CURVE SMOOTH",
"401 -11 OFFCURVE",
"482 45 OFFCURVE",
"505 161 CURVE"
);
}
);
width = 537;
}
);
note = edieresis;
unicode = 00EB;
},
{
glyphname = igrave;
layers = (
{
layerId = "B170CD55-4C38-4AB6-AD9A-F7E1CB90D307";
name = Regular;
paths = (
{
closed = 1;
nodes = (
"69 0 LINE",
"154 0 LINE",
"154 517 LINE",
"69 517 LINE"
);
},
{
closed = 1;
nodes = (
"76 770 LINE",
"172 608 LINE",
"108 608 LINE",
"-32 770 LINE"
);
}
);
width = 222;
}
);
note = igrave;
unicode = 00EC;
},
{
glyphname = iacute;
layers = (
{
layerId = "B170CD55-4C38-4AB6-AD9A-F7E1CB90D307";
name = Regular;
paths = (
{
closed = 1;
nodes = (
"69 0 LINE",
"154 0 LINE",
"154 517 LINE",
"69 517 LINE"
);
},
{
closed = 1;
nodes = (
"255 770 LINE",
"114 608 LINE",
"50 608 LINE",
"146 770 LINE"
);
}
);
width = 222;
}
);
note = iacute;
unicode = 00ED;
},
{
glyphname = icircumflex;
layers = (
{
layerId = "B170CD55-4C38-4AB6-AD9A-F7E1CB90D307";
name = Regular;
paths = (
{
closed = 1;
nodes = (
"64 731 LINE",
"-38 588 LINE",
"38 588 LINE",
"108 684 LINE",
"177 588 LINE",
"261 588 LINE",
"157 731 LINE"
);
},
{
closed = 1;
nodes = (
"69 0 LINE",
"154 0 LINE",
"154 517 LINE",
"69 517 LINE"
);
}
);
width = 222;
}
);
note = icircumflex;
unicode = 00EE;
},
{
glyphname = idieresis;
layers = (
{
layerId = "B170CD55-4C38-4AB6-AD9A-F7E1CB90D307";
name = Regular;
paths = (
{
closed = 1;
nodes = (
"-27 696 LINE",
"-27 592 LINE",
"62 592 LINE",
"62 696 LINE"
);
},
{
closed = 1;
nodes = (
"160 696 LINE",
"160 592 LINE",
"250 592 LINE",
"250 696 LINE"
);
},
{
closed = 1;
nodes = (
"69 0 LINE",
"154 0 LINE",
"154 517 LINE",
"69 517 LINE"
);
}
);
width = 222;
}
);
note = idieresis;
unicode = 00EF;
},
{
glyphname = eth;
layers = (
{
layerId = "B170CD55-4C38-4AB6-AD9A-F7E1CB90D307";
name = Regular;
paths = (
{
closed = 1;
nodes = (
"341 431 OFFCURVE",
"382 411 OFFCURVE",
"409 379 CURVE SMOOTH",
"436 347 OFFCURVE",
"448 305 OFFCURVE",
"448 258 CURVE SMOOTH",
"448 195 OFFCURVE",
"430 146 OFFCURVE",
"401 114 CURVE SMOOTH",
"372 81 OFFCURVE",
"331 63 OFFCURVE",
"287 63 CURVE SMOOTH",
"243 63 OFFCURVE",
"202 81 OFFCURVE",
"173 114 CURVE SMOOTH",
"144 146 OFFCURVE",
"126 195 OFFCURVE",
"126 258 CURVE SMOOTH",
"126 361 OFFCURVE",
"179 431 OFFCURVE",
"282 431 CURVE SMOOTH"
);
},
{
closed = 1;
nodes = (
"196 506 OFFCURVE",
"137 477 OFFCURVE",
"97 431 CURVE SMOOTH",
"57 385 OFFCURVE",
"36 323 OFFCURVE",
"36 258 CURVE SMOOTH",
"36 182 OFFCURVE",
"57 115 OFFCURVE",
"100 67 CURVE SMOOTH",
"143 18 OFFCURVE",
"206 -11 OFFCURVE",
"287 -11 CURVE SMOOTH",
"370 -11 OFFCURVE",
"431 18 OFFCURVE",
"474 67 CURVE SMOOTH",
"517 115 OFFCURVE",
"538 182 OFFCURVE",
"538 258 CURVE SMOOTH",
"538 411 OFFCURVE",
"485 541 OFFCURVE",
"364 641 CURVE",
"479 694 LINE",
"444 731 LINE",
"324 675 LINE",
"311 686 OFFCURVE",
"297 696 OFFCURVE",
"283 706 CURVE SMOOTH",
"268 716 OFFCURVE",
"256 724 OFFCURVE",
"247 731 CURVE",
"177 686 LINE",
"196 675 OFFCURVE",
"226 657 OFFCURVE",
"247 638 CURVE",
"138 587 LINE",
"176 547 LINE",
"291 601 LINE",
"307 590 OFFCURVE",
"329 570 OFFCURVE",
"352 543 CURVE SMOOTH",
"375 516 OFFCURVE",
"397 485 OFFCURVE",
"413 450 CURVE",
"411 450 LINE",
"375 491 OFFCURVE",
"325 506 OFFCURVE",
"272 506 CURVE SMOOTH"
);
}
);
width = 574;
}
);
note = eth;
unicode = 00F0;
},
{
glyphname = ntilde;
layers = (
{
layerId = "B170CD55-4C38-4AB6-AD9A-F7E1CB90D307";
name = Regular;
paths = (
{
closed = 1;
nodes = (
"400 711 LINE",
"393 691 OFFCURVE",
"381 667 OFFCURVE",
"354 667 CURVE SMOOTH",
"333 667 OFFCURVE",
"311 678 OFFCURVE",
"288 688 CURVE SMOOTH",
"265 698 OFFCURVE",
"241 707 OFFCURVE",
"214 707 CURVE SMOOTH",
"182 707 OFFCURVE",
"160 694 OFFCURVE",
"144 674 CURVE SMOOTH",
"128 654 OFFCURVE",
"117 626 OFFCURVE",
"109 597 CURVE",
"161 597 LINE",
"158 622 OFFCURVE",
"188 639 OFFCURVE",
"209 639 CURVE SMOOTH",
"228 639 OFFCURVE",
"252 629 OFFCURVE",
"276 620 CURVE",
"300 609 OFFCURVE",
"325 600 OFFCURVE",
"342 600 CURVE SMOOTH",
"381 600 OFFCURVE",
"404 612 OFFCURVE",
"421 631 CURVE",
"438 654 OFFCURVE",
"448 681 OFFCURVE",
"452 711 CURVE"
);
},
{
closed = 1;
nodes = (
"64 517 LINE",
"64 0 LINE",
"149 0 LINE",
"149 292 LINE SMOOTH",
"149 339 OFFCURVE",
"162 379 OFFCURVE",
"187 408 CURVE SMOOTH",
"212 437 OFFCURVE",
"250 454 OFFCURVE",
"302 454 CURVE SMOOTH",
"367 454 OFFCURVE",
"407 414 OFFCURVE",
"407 350 CURVE SMOOTH",
"407 0 LINE",
"492 0 LINE",
"492 340 LINE SMOOTH",
"492 396 OFFCURVE",
"482 443 OFFCURVE",
"454 476 CURVE SMOOTH",
"426 509 OFFCURVE",
"382 529 OFFCURVE",
"314 529 CURVE SMOOTH",
"237 529 OFFCURVE",
"181 498 OFFCURVE",
"146 435 CURVE",
"144 435 LINE",
"144 517 LINE"
);
}
);
width = 556;
}
);
note = ntilde;
unicode = 00F1;
},
{
glyphname = ograve;
layers = (
{
layerId = "B170CD55-4C38-4AB6-AD9A-F7E1CB90D307";
name = Regular;
paths = (
{
closed = 1;
nodes = (
"126 321 OFFCURVE",
"144 370 OFFCURVE",
"173 403 CURVE SMOOTH",
"202 436 OFFCURVE",
"243 454 OFFCURVE",
"287 454 CURVE SMOOTH",
"331 454 OFFCURVE",
"372 436 OFFCURVE",
"401 403 CURVE SMOOTH",
"430 370 OFFCURVE",
"448 321 OFFCURVE",
"448 258 CURVE SMOOTH",
"448 195 OFFCURVE",
"430 146 OFFCURVE",
"401 114 CURVE SMOOTH",
"372 81 OFFCURVE",
"331 63 OFFCURVE",
"287 63 CURVE SMOOTH",
"243 63 OFFCURVE",
"202 81 OFFCURVE",
"173 114 CURVE SMOOTH",
"144 146 OFFCURVE",
"126 195 OFFCURVE",
"126 258 CURVE SMOOTH"
);
},
{
closed = 1;
nodes = (
"36 182 OFFCURVE",
"57 115 OFFCURVE",
"100 67 CURVE SMOOTH",
"143 18 OFFCURVE",
"206 -11 OFFCURVE",
"287 -11 CURVE SMOOTH",
"370 -11 OFFCURVE",
"431 18 OFFCURVE",
"474 67 CURVE SMOOTH",
"517 115 OFFCURVE",
"538 182 OFFCURVE",
"538 258 CURVE SMOOTH",
"538 334 OFFCURVE",
"517 402 OFFCURVE",
"474 451 CURVE SMOOTH",
"431 499 OFFCURVE",
"370 529 OFFCURVE",
"287 529 CURVE SMOOTH",
"206 529 OFFCURVE",
"143 499 OFFCURVE",
"100 451 CURVE SMOOTH",
"57 402 OFFCURVE",
"36 334 OFFCURVE",
"36 258 CURVE SMOOTH"
);
},
{
closed = 1;
nodes = (
"244 770 LINE",
"340 608 LINE",
"276 608 LINE",
"136 770 LINE"
);
}
);
width = 574;
}
);
note = ograve;
unicode = 00F2;
},
{
glyphname = oacute;
layers = (
{
layerId = "B170CD55-4C38-4AB6-AD9A-F7E1CB90D307";
name = Regular;
paths = (
{
closed = 1;
nodes = (
"126 321 OFFCURVE",
"144 370 OFFCURVE",
"173 403 CURVE SMOOTH",
"202 436 OFFCURVE",
"243 454 OFFCURVE",
"287 454 CURVE SMOOTH",
"331 454 OFFCURVE",
"372 436 OFFCURVE",
"401 403 CURVE SMOOTH",
"430 370 OFFCURVE",
"448 321 OFFCURVE",
"448 258 CURVE SMOOTH",
"448 195 OFFCURVE",
"430 146 OFFCURVE",
"401 114 CURVE SMOOTH",
"372 81 OFFCURVE",
"331 63 OFFCURVE",
"287 63 CURVE SMOOTH",
"243 63 OFFCURVE",
"202 81 OFFCURVE",
"173 114 CURVE SMOOTH",
"144 146 OFFCURVE",
"126 195 OFFCURVE",
"126 258 CURVE SMOOTH"
);
},
{
closed = 1;
nodes = (
"36 182 OFFCURVE",
"57 115 OFFCURVE",
"100 67 CURVE SMOOTH",
"143 18 OFFCURVE",
"206 -11 OFFCURVE",
"287 -11 CURVE SMOOTH",
"370 -11 OFFCURVE",
"431 18 OFFCURVE",
"474 67 CURVE SMOOTH",
"517 115 OFFCURVE",
"538 182 OFFCURVE",
"538 258 CURVE SMOOTH",
"538 334 OFFCURVE",
"517 402 OFFCURVE",
"474 451 CURVE SMOOTH",
"431 499 OFFCURVE",
"370 529 OFFCURVE",
"287 529 CURVE SMOOTH",
"206 529 OFFCURVE",
"143 499 OFFCURVE",
"100 451 CURVE SMOOTH",
"57 402 OFFCURVE",
"36 334 OFFCURVE",
"36 258 CURVE SMOOTH"
);
},
{
closed = 1;
nodes = (
"425 770 LINE",
"284 608 LINE",
"220 608 LINE",
"316 770 LINE"
);
}
);
width = 574;
}
);
note = oacute;
unicode = 00F3;
},
{
glyphname = ocircumflex;
layers = (
{
layerId = "B170CD55-4C38-4AB6-AD9A-F7E1CB90D307";
name = Regular;
paths = (
{
closed = 1;
nodes = (
"126 321 OFFCURVE",
"144 370 OFFCURVE",
"173 403 CURVE SMOOTH",
"202 436 OFFCURVE",
"243 454 OFFCURVE",
"287 454 CURVE SMOOTH",
"331 454 OFFCURVE",
"372 436 OFFCURVE",
"401 403 CURVE SMOOTH",
"430 370 OFFCURVE",
"448 321 OFFCURVE",
"448 258 CURVE SMOOTH",
"448 195 OFFCURVE",
"430 146 OFFCURVE",
"401 114 CURVE SMOOTH",
"372 81 OFFCURVE",
"331 63 OFFCURVE",
"287 63 CURVE SMOOTH",
"243 63 OFFCURVE",
"202 81 OFFCURVE",
"173 114 CURVE SMOOTH",
"144 146 OFFCURVE",
"126 195 OFFCURVE",
"126 258 CURVE SMOOTH"
);
},
{
closed = 1;
nodes = (
"36 182 OFFCURVE",
"57 115 OFFCURVE",
"100 67 CURVE SMOOTH",
"143 18 OFFCURVE",
"206 -11 OFFCURVE",
"287 -11 CURVE SMOOTH",
"370 -11 OFFCURVE",
"431 18 OFFCURVE",
"474 67 CURVE SMOOTH",
"517 115 OFFCURVE",
"538 182 OFFCURVE",
"538 258 CURVE SMOOTH",
"538 334 OFFCURVE",
"517 402 OFFCURVE",
"474 451 CURVE SMOOTH",
"431 499 OFFCURVE",
"370 529 OFFCURVE",
"287 529 CURVE SMOOTH",
"206 529 OFFCURVE",
"143 499 OFFCURVE",
"100 451 CURVE SMOOTH",
"57 402 OFFCURVE",
"36 334 OFFCURVE",
"36 258 CURVE SMOOTH"
);
},
{
closed = 1;
nodes = (
"333 751 LINE",
"437 608 LINE",
"353 608 LINE",
"284 704 LINE",
"214 608 LINE",
"138 608 LINE",
"240 751 LINE"
);
}
);
width = 574;
}
);
note = ocircumflex;
unicode = 00F4;
},
{
glyphname = otilde;
layers = (
{
layerId = "B170CD55-4C38-4AB6-AD9A-F7E1CB90D307";
name = Regular;
paths = (
{
closed = 1;
nodes = (
"126 321 OFFCURVE",
"144 370 OFFCURVE",
"173 403 CURVE SMOOTH",
"202 436 OFFCURVE",
"243 454 OFFCURVE",
"287 454 CURVE SMOOTH",
"331 454 OFFCURVE",
"372 436 OFFCURVE",
"401 403 CURVE SMOOTH",
"430 370 OFFCURVE",
"448 321 OFFCURVE",
"448 258 CURVE SMOOTH",
"448 195 OFFCURVE",
"430 146 OFFCURVE",
"401 114 CURVE SMOOTH",
"372 81 OFFCURVE",
"331 63 OFFCURVE",
"287 63 CURVE SMOOTH",
"243 63 OFFCURVE",
"202 81 OFFCURVE",
"173 114 CURVE SMOOTH",
"144 146 OFFCURVE",
"126 195 OFFCURVE",
"126 258 CURVE SMOOTH"
);
},
{
closed = 1;
nodes = (
"36 182 OFFCURVE",
"57 115 OFFCURVE",
"100 67 CURVE SMOOTH",
"143 18 OFFCURVE",
"206 -11 OFFCURVE",
"287 -11 CURVE SMOOTH",
"370 -11 OFFCURVE",
"431 18 OFFCURVE",
"474 67 CURVE SMOOTH",
"517 115 OFFCURVE",
"538 182 OFFCURVE",
"538 258 CURVE SMOOTH",
"538 334 OFFCURVE",
"517 402 OFFCURVE",
"474 451 CURVE SMOOTH",
"431 499 OFFCURVE",
"370 529 OFFCURVE",
"287 529 CURVE SMOOTH",
"206 529 OFFCURVE",
"143 499 OFFCURVE",
"100 451 CURVE SMOOTH",
"57 402 OFFCURVE",
"36 334 OFFCURVE",
"36 258 CURVE SMOOTH"
);
},
{
closed = 1;
nodes = (
"393 683 OFFCURVE",
"410 703 OFFCURVE",
"414 738 CURVE",
"463 738 LINE",
"450 645 OFFCURVE",
"411 617 OFFCURVE",
"359 617 CURVE SMOOTH",
"332 617 OFFCURVE",
"309 630 OFFCURVE",
"285 643 CURVE SMOOTH",
"261 656 OFFCURVE",
"238 669 OFFCURVE",
"214 669 CURVE SMOOTH",
"183 669 OFFCURVE",
"165 652 OFFCURVE",
"159 618 CURVE",
"112 618 LINE",
"125 699 OFFCURVE",
"159 735 OFFCURVE",
"215 735 CURVE SMOOTH",
"242 735 OFFCURVE",
"267 722 OFFCURVE",
"291 709 CURVE SMOOTH",
"315 696 OFFCURVE",
"340 683 OFFCURVE",
"364 683 CURVE SMOOTH"
);
}
);
width = 574;
}
);
note = otilde;
unicode = 00F5;
},
{
glyphname = odieresis;
layers = (
{
layerId = "B170CD55-4C38-4AB6-AD9A-F7E1CB90D307";
name = Regular;
paths = (
{
closed = 1;
nodes = (
"148 696 LINE",
"148 592 LINE",
"238 592 LINE",
"238 696 LINE"
);
},
{
closed = 1;
nodes = (
"336 696 LINE",
"336 592 LINE",
"426 592 LINE",
"426 696 LINE"
);
},
{
closed = 1;
nodes = (
"126 321 OFFCURVE",
"144 370 OFFCURVE",
"173 403 CURVE SMOOTH",
"202 436 OFFCURVE",
"243 454 OFFCURVE",
"287 454 CURVE SMOOTH",
"331 454 OFFCURVE",
"372 436 OFFCURVE",
"401 403 CURVE SMOOTH",
"430 370 OFFCURVE",
"448 321 OFFCURVE",
"448 258 CURVE SMOOTH",
"448 195 OFFCURVE",
"430 146 OFFCURVE",
"401 114 CURVE SMOOTH",
"372 81 OFFCURVE",
"331 63 OFFCURVE",
"287 63 CURVE SMOOTH",
"243 63 OFFCURVE",
"202 81 OFFCURVE",
"173 114 CURVE SMOOTH",
"144 146 OFFCURVE",
"126 195 OFFCURVE",
"126 258 CURVE SMOOTH"
);
},
{
closed = 1;
nodes = (
"36 182 OFFCURVE",
"57 115 OFFCURVE",
"100 67 CURVE SMOOTH",
"143 18 OFFCURVE",
"206 -11 OFFCURVE",
"287 -11 CURVE SMOOTH",
"370 -11 OFFCURVE",
"431 18 OFFCURVE",
"474 67 CURVE SMOOTH",
"517 115 OFFCURVE",
"538 182 OFFCURVE",
"538 258 CURVE SMOOTH",
"538 334 OFFCURVE",
"517 402 OFFCURVE",
"474 451 CURVE SMOOTH",
"431 499 OFFCURVE",
"370 529 OFFCURVE",
"287 529 CURVE SMOOTH",
"206 529 OFFCURVE",
"143 499 OFFCURVE",
"100 451 CURVE SMOOTH",
"57 402 OFFCURVE",
"36 334 OFFCURVE",
"36 258 CURVE SMOOTH"
);
}
);
width = 574;
}
);
note = odieresis;
unicode = 00F6;
},
{
glyphname = divide;
layers = (
{
layerId = "B170CD55-4C38-4AB6-AD9A-F7E1CB90D307";
name = Regular;
paths = (
{
closed = 1;
nodes = (
"236 12 OFFCURVE",
"266 -16 OFFCURVE",
"301 -16 CURVE SMOOTH",
"334 -16 OFFCURVE",
"364 15 OFFCURVE",
"364 47 CURVE SMOOTH",
"364 82 OFFCURVE",
"335 111 OFFCURVE",
"300 111 CURVE SMOOTH",
"265 111 OFFCURVE",
"236 82 OFFCURVE",
"236 47 CURVE SMOOTH"
);
},
{
closed = 1;
nodes = (
"236 424 OFFCURVE",
"266 395 OFFCURVE",
"301 395 CURVE SMOOTH",
"334 395 OFFCURVE",
"364 427 OFFCURVE",
"364 459 CURVE SMOOTH",
"364 494 OFFCURVE",
"335 523 OFFCURVE",
"300 523 CURVE SMOOTH",
"265 523 OFFCURVE",
"236 494 OFFCURVE",
"236 459 CURVE SMOOTH"
);
},
{
closed = 1;
nodes = (
"48 287 LINE",
"48 219 LINE",
"552 219 LINE",
"552 287 LINE"
);
}
);
width = 600;
}
);
note = divide;
unicode = 00F7;
},
{
glyphname = oslash;
layers = (
{
layerId = "B170CD55-4C38-4AB6-AD9A-F7E1CB90D307";
name = Regular;
paths = (
{
closed = 1;
nodes = (
"540 509 LINE",
"513 535 LINE",
"455 470 LINE",
"412 509 OFFCURVE",
"359 529 OFFCURVE",
"287 529 CURVE SMOOTH",
"206 529 OFFCURVE",
"143 499 OFFCURVE",
"100 451 CURVE SMOOTH",
"57 402 OFFCURVE",
"36 334 OFFCURVE",
"36 258 CURVE SMOOTH",
"36 185 OFFCURVE",
"56 120 OFFCURVE",
"96 71 CURVE",
"34 2 LINE",
"62 -21 LINE",
"122 45 LINE",
"163 9 OFFCURVE",
"218 -11 OFFCURVE",
"287 -11 CURVE SMOOTH",
"370 -11 OFFCURVE",
"431 18 OFFCURVE",
"474 67 CURVE SMOOTH",
"517 115 OFFCURVE",
"538 182 OFFCURVE",
"538 258 CURVE SMOOTH",
"538 331 OFFCURVE",
"519 396 OFFCURVE",
"480 443 CURVE"
);
},
{
closed = 1;
nodes = (
"420 377 LINE",
"437 346 OFFCURVE",
"448 307 OFFCURVE",
"448 258 CURVE SMOOTH",
"448 195 OFFCURVE",
"430 146 OFFCURVE",
"401 114 CURVE SMOOTH",
"372 81 OFFCURVE",
"331 63 OFFCURVE",
"287 63 CURVE SMOOTH",
"244 63 OFFCURVE",
"208 78 OFFCURVE",
"178 108 CURVE"
);
},
{
closed = 1;
nodes = (
"156 137 LINE",
"137 170 OFFCURVE",
"126 210 OFFCURVE",
"126 258 CURVE SMOOTH",
"126 321 OFFCURVE",
"144 370 OFFCURVE",
"173 403 CURVE SMOOTH",
"202 436 OFFCURVE",
"243 454 OFFCURVE",
"287 454 CURVE SMOOTH",
"332 454 OFFCURVE",
"369 438 OFFCURVE",
"398 407 CURVE"
);
}
);
width = 574;
}
);
note = oslash;
unicode = 00F8;
},
{
glyphname = ugrave;
layers = (
{
layerId = "B170CD55-4C38-4AB6-AD9A-F7E1CB90D307";
name = Regular;
paths = (
{
closed = 1;
nodes = (
"492 0 LINE",
"492 517 LINE",
"407 517 LINE",
"407 225 LINE SMOOTH",
"407 178 OFFCURVE",
"394 138 OFFCURVE",
"369 109 CURVE SMOOTH",
"344 80 OFFCURVE",
"306 63 OFFCURVE",
"254 63 CURVE SMOOTH",
"189 63 OFFCURVE",
"149 103 OFFCURVE",
"149 167 CURVE SMOOTH",
"149 517 LINE",
"64 517 LINE",
"64 177 LINE SMOOTH",
"64 121 OFFCURVE",
"74 74 OFFCURVE",
"102 41 CURVE SMOOTH",
"130 8 OFFCURVE",
"174 -11 OFFCURVE",
"242 -11 CURVE SMOOTH",
"318 -11 OFFCURVE",
"374 18 OFFCURVE",
"410 82 CURVE",
"412 82 LINE",
"412 0 LINE"
);
},
{
closed = 1;
nodes = (
"243 770 LINE",
"339 608 LINE",
"275 608 LINE",
"135 770 LINE"
);
}
);
width = 556;
}
);
note = ugrave;
unicode = 00F9;
},
{
glyphname = uacute;
layers = (
{
layerId = "B170CD55-4C38-4AB6-AD9A-F7E1CB90D307";
name = Regular;
paths = (
{
closed = 1;
nodes = (
"492 0 LINE",
"492 517 LINE",
"407 517 LINE",
"407 225 LINE SMOOTH",
"407 178 OFFCURVE",
"394 138 OFFCURVE",
"369 109 CURVE SMOOTH",
"344 80 OFFCURVE",
"306 63 OFFCURVE",
"254 63 CURVE SMOOTH",
"189 63 OFFCURVE",
"149 103 OFFCURVE",
"149 167 CURVE SMOOTH",
"149 517 LINE",
"64 517 LINE",
"64 177 LINE SMOOTH",
"64 121 OFFCURVE",
"74 74 OFFCURVE",
"102 41 CURVE SMOOTH",
"130 8 OFFCURVE",
"174 -11 OFFCURVE",
"242 -11 CURVE SMOOTH",
"318 -11 OFFCURVE",
"374 18 OFFCURVE",
"410 82 CURVE",
"412 82 LINE",
"412 0 LINE"
);
},
{
closed = 1;
nodes = (
"428 770 LINE",
"287 608 LINE",
"223 608 LINE",
"319 770 LINE"
);
}
);
width = 556;
}
);
note = uacute;
unicode = 00FA;
},
{
glyphname = ucircumflex;
layers = (
{
layerId = "B170CD55-4C38-4AB6-AD9A-F7E1CB90D307";
name = Regular;
paths = (
{
closed = 1;
nodes = (
"231 731 LINE",
"128 588 LINE",
"205 588 LINE",
"275 684 LINE",
"344 588 LINE",
"428 588 LINE",
"324 731 LINE"
);
},
{
closed = 1;
nodes = (
"492 0 LINE",
"492 517 LINE",
"407 517 LINE",
"407 225 LINE SMOOTH",
"407 178 OFFCURVE",
"394 138 OFFCURVE",
"369 109 CURVE SMOOTH",
"344 80 OFFCURVE",
"306 63 OFFCURVE",
"254 63 CURVE SMOOTH",
"189 63 OFFCURVE",
"149 103 OFFCURVE",
"149 167 CURVE SMOOTH",
"149 517 LINE",
"64 517 LINE",
"64 177 LINE SMOOTH",
"64 121 OFFCURVE",
"74 74 OFFCURVE",
"102 41 CURVE SMOOTH",
"130 8 OFFCURVE",
"174 -11 OFFCURVE",
"242 -11 CURVE SMOOTH",
"318 -11 OFFCURVE",
"374 18 OFFCURVE",
"410 82 CURVE",
"412 82 LINE",
"412 0 LINE"
);
}
);
width = 556;
}
);
note = ucircumflex;
unicode = 00FB;
},
{
glyphname = udieresis;
layers = (
{
layerId = "B170CD55-4C38-4AB6-AD9A-F7E1CB90D307";
name = Regular;
paths = (
{
closed = 1;
nodes = (
"139 696 LINE",
"139 592 LINE",
"229 592 LINE",
"229 696 LINE"
);
},
{
closed = 1;
nodes = (
"327 696 LINE",
"327 592 LINE",
"417 592 LINE",
"417 696 LINE"
);
},
{
closed = 1;
nodes = (
"492 0 LINE",
"492 517 LINE",
"407 517 LINE",
"407 225 LINE SMOOTH",
"407 178 OFFCURVE",
"394 138 OFFCURVE",
"369 109 CURVE SMOOTH",
"344 80 OFFCURVE",
"306 63 OFFCURVE",
"254 63 CURVE SMOOTH",
"189 63 OFFCURVE",
"149 103 OFFCURVE",
"149 167 CURVE SMOOTH",
"149 517 LINE",
"64 517 LINE",
"64 177 LINE SMOOTH",
"64 121 OFFCURVE",
"74 74 OFFCURVE",
"102 41 CURVE SMOOTH",
"130 8 OFFCURVE",
"174 -11 OFFCURVE",
"242 -11 CURVE SMOOTH",
"318 -11 OFFCURVE",
"374 18 OFFCURVE",
"410 82 CURVE",
"412 82 LINE",
"412 0 LINE"
);
}
);
width = 556;
}
);
note = udieresis;
unicode = 00FC;
},
{
glyphname = yacute;
layers = (
{
layerId = "B170CD55-4C38-4AB6-AD9A-F7E1CB90D307";
name = Regular;
paths = (
{
closed = 1;
nodes = (
"267 -69 LINE SMOOTH",
"247 -120 OFFCURVE",
"229 -153 OFFCURVE",
"206 -175 CURVE SMOOTH",
"182 -197 OFFCURVE",
"154 -207 OFFCURVE",
"117 -207 CURVE SMOOTH",
"97 -207 OFFCURVE",
"77 -205 OFFCURVE",
"58 -198 CURVE",
"58 -120 LINE",
"73 -127 OFFCURVE",
"95 -132 OFFCURVE",
"108 -132 CURVE SMOOTH",
"143 -132 OFFCURVE",
"166 -115 OFFCURVE",
"178 -84 CURVE SMOOTH",
"213 3 LINE",
"8 517 LINE",
"104 517 LINE",
"255 94 LINE",
"257 94 LINE",
"402 517 LINE",
"492 517 LINE"
);
},
{
closed = 1;
nodes = (
"413 770 LINE",
"272 608 LINE",
"208 608 LINE",
"304 770 LINE"
);
}
);
width = 500;
}
);
note = yacute;
unicode = 00FD;
},
{
glyphname = thorn;
layers = (
{
layerId = "B170CD55-4C38-4AB6-AD9A-F7E1CB90D307";
name = Regular;
paths = (
{
closed = 1;
nodes = (
"152 447 LINE",
"152 714 LINE",
"67 714 LINE",
"67 -197 LINE",
"152 -197 LINE",
"152 69 LINE",
"154 69 LINE",
"173 38 OFFCURVE",
"201 18 OFFCURVE",
"232 6 CURVE SMOOTH",
"263 -6 OFFCURVE",
"296 -11 OFFCURVE",
"321 -11 CURVE SMOOTH",
"400 -11 OFFCURVE",
"459 19 OFFCURVE",
"499 68 CURVE SMOOTH",
"538 116 OFFCURVE",
"557 184 OFFCURVE",
"557 257 CURVE SMOOTH",
"557 330 OFFCURVE",
"537 398 OFFCURVE",
"498 448 CURVE SMOOTH",
"458 498 OFFCURVE",
"399 529 OFFCURVE",
"319 529 CURVE SMOOTH",
"247 529 OFFCURVE",
"182 504 OFFCURVE",
"154 447 CURVE"
);
},
{
closed = 1;
nodes = (
"467 212 OFFCURVE",
"457 162 OFFCURVE",
"433 125 CURVE SMOOTH",
"409 88 OFFCURVE",
"371 63 OFFCURVE",
"312 63 CURVE SMOOTH",
"253 63 OFFCURVE",
"213 87 OFFCURVE",
"187 123 CURVE SMOOTH",
"161 159 OFFCURVE",
"149 208 OFFCURVE",
"149 259 CURVE SMOOTH",
"149 307 OFFCURVE",
"160 356 OFFCURVE",
"185 393 CURVE SMOOTH",
"210 429 OFFCURVE",
"250 454 OFFCURVE",
"307 454 CURVE SMOOTH",
"362 454 OFFCURVE",
"403 431 OFFCURVE",
"429 395 CURVE SMOOTH",
"455 359 OFFCURVE",
"467 311 OFFCURVE",
"467 263 CURVE SMOOTH"
);
}
);
width = 593;
}
);
note = thorn;
unicode = 00FE;
},
{
glyphname = ydieresis;
layers = (
{
layerId = "B170CD55-4C38-4AB6-AD9A-F7E1CB90D307";
name = Regular;
paths = (
{
closed = 1;
nodes = (
"111 696 LINE",
"111 592 LINE",
"201 592 LINE",
"201 696 LINE"
);
},
{
closed = 1;
nodes = (
"299 696 LINE",
"299 592 LINE",
"389 592 LINE",
"389 696 LINE"
);
},
{
closed = 1;
nodes = (
"492 517 LINE",
"402 517 LINE",
"257 94 LINE",
"255 94 LINE",
"104 517 LINE",
"8 517 LINE",
"213 3 LINE",
"178 -84 LINE",
"162 -115 OFFCURVE",
"143 -131 OFFCURVE",
"108 -131 CURVE SMOOTH",
"91 -131 OFFCURVE",
"74 -124 OFFCURVE",
"58 -119 CURVE",
"58 -197 LINE",
"77 -204 OFFCURVE",
"97 -206 OFFCURVE",
"117 -206 CURVE SMOOTH",
"156 -206 OFFCURVE",
"182 -196 OFFCURVE",
"206 -174 CURVE SMOOTH",
"229 -152 OFFCURVE",
"247 -119 OFFCURVE",
"267 -68 CURVE SMOOTH"
);
}
);
width = 500;
}
);
note = ydieresis;
unicode = 00FF;
},
{
glyphname = uni0100;
layers = (
{
layerId = "B170CD55-4C38-4AB6-AD9A-F7E1CB90D307";
name = Regular;
paths = (
{
closed = 1;
nodes = (
"272 714 LINE",
"377 714 LINE",
"656 0 LINE",
"551 0 LINE",
"473 215 LINE",
"171 215 LINE",
"91 0 LINE",
"-7 0 LINE"
);
},
{
closed = 1;
nodes = (
"443 295 LINE",
"324 628 LINE",
"322 628 LINE",
"201 295 LINE"
);
},
{
closed = 1;
nodes = (
"155 872 LINE",
"496 872 LINE",
"496 817 LINE",
"155 817 LINE"
);
}
);
width = 648;
}
);
note = uni0100;
unicode = 0100;
},
{
glyphname = uni0101;
lastChange = "2016-01-24 16:30:22 +0000";
layers = (
{
layerId = "B170CD55-4C38-4AB6-AD9A-F7E1CB90D307";
name = Regular;
paths = (
{
closed = 1;
nodes = (
"102 682 LINE",
"443 682 LINE",
"443 627 LINE",
"102 627 LINE"
);
},
{
closed = 1;
nodes = (
"469 0 LINE",
"389 0 LINE",
"389 55 LINE",
"342 3 OFFCURVE",
"279 -5 OFFCURVE",
"207 -5 CURVE SMOOTH",
"160 -5 OFFCURVE",
"128 4 OFFCURVE",
"97 25 CURVE SMOOTH",
"66 46 OFFCURVE",
"47 81 OFFCURVE",
"47 133 CURVE SMOOTH",
"47 192 OFFCURVE",
"61 227 OFFCURVE",
"94 251 CURVE SMOOTH",
"126 274 OFFCURVE",
"167 286 OFFCURVE",
"211 294 CURVE SMOOTH",
"234 299 OFFCURVE",
"257 302 OFFCURVE",
"278 305 CURVE",
"320 309 OFFCURVE",
"352 317 OFFCURVE",
"371 334 CURVE SMOOTH",
"380 342 OFFCURVE",
"385 352 OFFCURVE",
"385 368 CURVE SMOOTH",
"385 405 OFFCURVE",
"370 427 OFFCURVE",
"348 439 CURVE SMOOTH",
"326 451 OFFCURVE",
"297 454 OFFCURVE",
"270 454 CURVE SMOOTH",
"198 454 OFFCURVE",
"145 432 OFFCURVE",
"141 356 CURVE",
"56 356 LINE",
"59 420 OFFCURVE",
"84 463 OFFCURVE",
"124 491 CURVE SMOOTH",
"164 518 OFFCURVE",
"204 529 OFFCURVE",
"263 529 CURVE SMOOTH",
"310 529 OFFCURVE",
"358 524 OFFCURVE",
"395 504 CURVE SMOOTH",
"432 483 OFFCURVE",
"469 447 OFFCURVE",
"469 387 CURVE SMOOTH"
);
},
{
closed = 1;
nodes = (
"384 267 LINE",
"363 251 OFFCURVE",
"326 245 OFFCURVE",
"288 241 CURVE SMOOTH",
"250 236 OFFCURVE",
"209 231 OFFCURVE",
"178 218 CURVE SMOOTH",
"147 205 OFFCURVE",
"126 182 OFFCURVE",
"126 139 CURVE SMOOTH",
"126 111 OFFCURVE",
"139 92 OFFCURVE",
"157 80 CURVE SMOOTH",
"175 68 OFFCURVE",
"199 63 OFFCURVE",
"226 63 CURVE SMOOTH",
"282 63 OFFCURVE",
"322 76 OFFCURVE",
"347 100 CURVE SMOOTH",
"372 123 OFFCURVE",
"384 152 OFFCURVE",
"384 180 CURVE SMOOTH"
);
}
);
width = 529;
}
);
note = uni0101;
unicode = 0101;
},
{
glyphname = uni0102;
layers = (
{
layerId = "B170CD55-4C38-4AB6-AD9A-F7E1CB90D307";
name = Regular;
paths = (
{
closed = 1;
nodes = (
"201 295 LINE",
"322 628 LINE",
"324 628 LINE",
"443 295 LINE"
);
},
{
closed = 1;
nodes = (
"272 714 LINE",
"-6 0 LINE",
"91 0 LINE",
"171 215 LINE",
"473 215 LINE",
"551 0 LINE",
"656 0 LINE",
"377 714 LINE"
);
},
{
closed = 1;
nodes = (
"219 929 LINE",
"234 870 OFFCURVE",
"266 842 OFFCURVE",
"331 842 CURVE SMOOTH",
"391 842 OFFCURVE",
"414 877 OFFCURVE",
"430 929 CURVE",
"481 929 LINE",
"466 836 OFFCURVE",
"411 781 OFFCURVE",
"323 781 CURVE SMOOTH",
"231 781 OFFCURVE",
"182 830 OFFCURVE",
"169 929 CURVE"
);
}
);
width = 648;
}
);
note = uni0102;
unicode = 0102;
},
{
glyphname = uni0103;
lastChange = "2016-01-24 16:30:26 +0000";
layers = (
{
layerId = "B170CD55-4C38-4AB6-AD9A-F7E1CB90D307";
name = Regular;
paths = (
{
closed = 1;
nodes = (
"173 756 LINE",
"188 697 OFFCURVE",
"220 669 OFFCURVE",
"285 669 CURVE SMOOTH",
"345 669 OFFCURVE",
"368 704 OFFCURVE",
"384 756 CURVE",
"435 756 LINE",
"420 663 OFFCURVE",
"365 608 OFFCURVE",
"277 608 CURVE SMOOTH",
"185 608 OFFCURVE",
"136 657 OFFCURVE",
"123 756 CURVE"
);
},
{
closed = 1;
nodes = (
"469 0 LINE",
"389 0 LINE",
"389 55 LINE",
"342 3 OFFCURVE",
"279 -5 OFFCURVE",
"207 -5 CURVE SMOOTH",
"160 -5 OFFCURVE",
"128 4 OFFCURVE",
"97 25 CURVE SMOOTH",
"66 46 OFFCURVE",
"47 81 OFFCURVE",
"47 133 CURVE SMOOTH",
"47 192 OFFCURVE",
"61 227 OFFCURVE",
"94 251 CURVE SMOOTH",
"126 274 OFFCURVE",
"167 286 OFFCURVE",
"211 294 CURVE SMOOTH",
"234 299 OFFCURVE",
"257 302 OFFCURVE",
"278 305 CURVE",
"320 309 OFFCURVE",
"352 317 OFFCURVE",
"371 334 CURVE SMOOTH",
"380 342 OFFCURVE",
"385 352 OFFCURVE",
"385 368 CURVE SMOOTH",
"385 405 OFFCURVE",
"370 427 OFFCURVE",
"348 439 CURVE SMOOTH",
"326 451 OFFCURVE",
"297 454 OFFCURVE",
"270 454 CURVE SMOOTH",
"198 454 OFFCURVE",
"145 432 OFFCURVE",
"141 356 CURVE",
"56 356 LINE",
"59 420 OFFCURVE",
"84 463 OFFCURVE",
"124 491 CURVE SMOOTH",
"164 518 OFFCURVE",
"204 529 OFFCURVE",
"263 529 CURVE SMOOTH",
"310 529 OFFCURVE",
"358 524 OFFCURVE",
"395 504 CURVE SMOOTH",
"432 483 OFFCURVE",
"469 447 OFFCURVE",
"469 387 CURVE SMOOTH"
);
},
{
closed = 1;
nodes = (
"384 267 LINE",
"363 251 OFFCURVE",
"326 245 OFFCURVE",
"288 241 CURVE SMOOTH",
"250 236 OFFCURVE",
"209 231 OFFCURVE",
"178 218 CURVE SMOOTH",
"147 205 OFFCURVE",
"126 182 OFFCURVE",
"126 139 CURVE SMOOTH",
"126 111 OFFCURVE",
"139 92 OFFCURVE",
"157 80 CURVE SMOOTH",
"175 68 OFFCURVE",
"199 63 OFFCURVE",
"226 63 CURVE SMOOTH",
"282 63 OFFCURVE",
"322 76 OFFCURVE",
"347 100 CURVE SMOOTH",
"372 123 OFFCURVE",
"384 152 OFFCURVE",
"384 180 CURVE SMOOTH"
);
}
);
width = 529;
}
);
note = uni0103;
unicode = 0103;
},
{
glyphname = Aogonek;
layers = (
{
layerId = "B170CD55-4C38-4AB6-AD9A-F7E1CB90D307";
name = Regular;
paths = (
{
closed = 1;
nodes = (
"473 215 LINE",
"171 215 LINE",
"91 0 LINE",
"-6 0 LINE",
"272 714 LINE",
"377 714 LINE",
"656 0 LINE",
"592 0 LINE",
"559 -28 OFFCURVE",
"538 -49 OFFCURVE",
"526 -68 CURVE SMOOTH",
"514 -88 OFFCURVE",
"510 -104 OFFCURVE",
"510 -117 CURVE SMOOTH",
"510 -138 OFFCURVE",
"521 -160 OFFCURVE",
"552 -160 CURVE SMOOTH",
"572 -160 OFFCURVE",
"600 -154 OFFCURVE",
"615 -146 CURVE",
"617 -184 LINE",
"598 -201 OFFCURVE",
"565 -209 OFFCURVE",
"534 -209 CURVE SMOOTH",
"477 -209 OFFCURVE",
"442 -181 OFFCURVE",
"442 -134 CURVE SMOOTH",
"442 -85 OFFCURVE",
"479 -44 OFFCURVE",
"551 0 CURVE"
);
},
{
closed = 1;
nodes = (
"443 295 LINE",
"324 628 LINE",
"322 628 LINE",
"201 295 LINE"
);
}
);
width = 648;
}
);
note = Aogonek;
unicode = 0104;
},
{
glyphname = aogonek;
layers = (
{
layerId = "B170CD55-4C38-4AB6-AD9A-F7E1CB90D307";
name = Regular;
paths = (
{
closed = 1;
nodes = (
"522 2 LINE",
"514 -2 OFFCURVE",
"507 -5 OFFCURVE",
"496 -8 CURVE SMOOTH",
"468 -16 OFFCURVE",
"442 -32 OFFCURVE",
"422 -52 CURVE SMOOTH",
"402 -72 OFFCURVE",
"390 -94 OFFCURVE",
"390 -117 CURVE SMOOTH",
"390 -138 OFFCURVE",
"401 -160 OFFCURVE",
"432 -160 CURVE SMOOTH",
"452 -160 OFFCURVE",
"480 -154 OFFCURVE",
"495 -146 CURVE",
"497 -184 LINE",
"478 -201 OFFCURVE",
"445 -209 OFFCURVE",
"414 -209 CURVE SMOOTH",
"357 -209 OFFCURVE",
"322 -181 OFFCURVE",
"322 -134 CURVE SMOOTH",
"322 -85 OFFCURVE",
"368 -37 OFFCURVE",
"429 -5 CURVE",
"402 4 OFFCURVE",
"389 29 OFFCURVE",
"389 68 CURVE",
"342 12 OFFCURVE",
"279 -11 OFFCURVE",
"207 -11 CURVE SMOOTH",
"160 -11 OFFCURVE",
"117 -1 OFFCURVE",
"86 22 CURVE SMOOTH",
"55 45 OFFCURVE",
"36 81 OFFCURVE",
"36 133 CURVE SMOOTH",
"36 192 OFFCURVE",
"58 227 OFFCURVE",
"91 251 CURVE SMOOTH",
"123 274 OFFCURVE",
"167 284 OFFCURVE",
"211 292 CURVE SMOOTH",
"234 297 OFFCURVE",
"257 300 OFFCURVE",
"278 303 CURVE",
"320 307 OFFCURVE",
"352 315 OFFCURVE",
"371 332 CURVE SMOOTH",
"380 340 OFFCURVE",
"385 352 OFFCURVE",
"385 368 CURVE SMOOTH",
"385 405 OFFCURVE",
"370 427 OFFCURVE",
"348 439 CURVE SMOOTH",
"326 451 OFFCURVE",
"297 454 OFFCURVE",
"270 454 CURVE SMOOTH",
"198 454 OFFCURVE",
"145 432 OFFCURVE",
"141 356 CURVE",
"56 356 LINE",
"59 420 OFFCURVE",
"84 463 OFFCURVE",
"124 491 CURVE SMOOTH",
"164 518 OFFCURVE",
"216 529 OFFCURVE",
"275 529 CURVE SMOOTH",
"322 529 OFFCURVE",
"370 524 OFFCURVE",
"407 504 CURVE SMOOTH",
"444 483 OFFCURVE",
"469 447 OFFCURVE",
"469 387 CURVE SMOOTH",
"469 121 LINE SMOOTH",
"469 81 OFFCURVE",
"469 63 OFFCURVE",
"496 63 CURVE SMOOTH",
"503 63 OFFCURVE",
"512 65 OFFCURVE",
"522 68 CURVE"
);
},
{
closed = 1;
nodes = (
"384 267 LINE",
"363 251 OFFCURVE",
"326 245 OFFCURVE",
"288 241 CURVE SMOOTH",
"250 236 OFFCURVE",
"209 231 OFFCURVE",
"178 218 CURVE SMOOTH",
"147 205 OFFCURVE",
"126 182 OFFCURVE",
"126 139 CURVE SMOOTH",
"126 111 OFFCURVE",
"139 92 OFFCURVE",
"157 80 CURVE SMOOTH",
"175 68 OFFCURVE",
"199 63 OFFCURVE",
"226 63 CURVE SMOOTH",
"282 63 OFFCURVE",
"322 80 OFFCURVE",
"347 104 CURVE SMOOTH",
"372 127 OFFCURVE",
"384 156 OFFCURVE",
"384 180 CURVE SMOOTH"
);
}
);
width = 537;
}
);
note = aogonek;
unicode = 0105;
},
{
glyphname = Cacute;
layers = (
{
layerId = "B170CD55-4C38-4AB6-AD9A-F7E1CB90D307";
name = Regular;
paths = (
{
closed = 1;
nodes = (
"675 499 LINE",
"664 575 OFFCURVE",
"628 633 OFFCURVE",
"576 672 CURVE SMOOTH",
"524 711 OFFCURVE",
"456 731 OFFCURVE",
"381 731 CURVE SMOOTH",
"272 731 OFFCURVE",
"186 689 OFFCURVE",
"130 621 CURVE SMOOTH",
"73 553 OFFCURVE",
"43 459 OFFCURVE",
"43 355 CURVE SMOOTH",
"43 251 OFFCURVE",
"70 158 OFFCURVE",
"125 91 CURVE SMOOTH",
"180 24 OFFCURVE",
"262 -16 OFFCURVE",
"373 -16 CURVE SMOOTH",
"556 -16 OFFCURVE",
"663 89 OFFCURVE",
"682 269 CURVE",
"587 269 LINE",
"583 210 OFFCURVE",
"563 158 OFFCURVE",
"528 122 CURVE SMOOTH",
"492 85 OFFCURVE",
"444 63 OFFCURVE",
"381 63 CURVE SMOOTH",
"296 63 OFFCURVE",
"235 98 OFFCURVE",
"196 152 CURVE SMOOTH",
"156 206 OFFCURVE",
"138 281 OFFCURVE",
"138 362 CURVE SMOOTH",
"138 437 OFFCURVE",
"156 509 OFFCURVE",
"196 563 CURVE SMOOTH",
"235 617 OFFCURVE",
"295 651 OFFCURVE",
"380 651 CURVE SMOOTH",
"480 651 OFFCURVE",
"559 600 OFFCURVE",
"580 499 CURVE"
);
},
{
closed = 1;
nodes = (
"508 927 LINE",
"367 765 LINE",
"303 765 LINE",
"399 927 LINE"
);
}
);
width = 722;
}
);
note = Cacute;
unicode = 0106;
},
{
glyphname = cacute;
layers = (
{
layerId = "B170CD55-4C38-4AB6-AD9A-F7E1CB90D307";
name = Regular;
paths = (
{
closed = 1;
nodes = (
"503 351 LINE",
"496 412 OFFCURVE",
"470 457 OFFCURVE",
"431 486 CURVE SMOOTH",
"391 515 OFFCURVE",
"339 529 OFFCURVE",
"280 529 CURVE SMOOTH",
"199 529 OFFCURVE",
"137 499 OFFCURVE",
"97 449 CURVE SMOOTH",
"56 399 OFFCURVE",
"36 329 OFFCURVE",
"36 252 CURVE SMOOTH",
"36 175 OFFCURVE",
"57 109 OFFCURVE",
"98 62 CURVE SMOOTH",
"138 15 OFFCURVE",
"199 -11 OFFCURVE",
"278 -11 CURVE SMOOTH",
"410 -11 OFFCURVE",
"487 61 OFFCURVE",
"506 189 CURVE",
"419 189 LINE",
"408 109 OFFCURVE",
"361 63 OFFCURVE",
"277 63 CURVE SMOOTH",
"224 63 OFFCURVE",
"185 86 OFFCURVE",
"161 122 CURVE SMOOTH",
"137 157 OFFCURVE",
"126 204 OFFCURVE",
"126 252 CURVE SMOOTH",
"126 304 OFFCURVE",
"136 355 OFFCURVE",
"161 392 CURVE SMOOTH",
"185 429 OFFCURVE",
"226 454 OFFCURVE",
"287 454 CURVE SMOOTH",
"359 454 OFFCURVE",
"402 416 OFFCURVE",
"415 351 CURVE"
);
},
{
closed = 1;
nodes = (
"424 770 LINE",
"283 608 LINE",
"219 608 LINE",
"315 770 LINE"
);
}
);
width = 537;
}
);
note = cacute;
unicode = 0107;
},
{
glyphname = uni0108;
layers = (
{
layerId = "B170CD55-4C38-4AB6-AD9A-F7E1CB90D307";
name = Regular;
paths = (
{
closed = 1;
nodes = (
"43 459 OFFCURVE",
"73 553 OFFCURVE",
"130 621 CURVE SMOOTH",
"186 689 OFFCURVE",
"270 731 OFFCURVE",
"381 731 CURVE SMOOTH",
"456 731 OFFCURVE",
"524 711 OFFCURVE",
"576 672 CURVE SMOOTH",
"628 633 OFFCURVE",
"664 575 OFFCURVE",
"675 499 CURVE",
"580 499 LINE",
"559 600 OFFCURVE",
"480 651 OFFCURVE",
"380 651 CURVE SMOOTH",
"295 651 OFFCURVE",
"235 617 OFFCURVE",
"196 563 CURVE SMOOTH",
"156 509 OFFCURVE",
"138 437 OFFCURVE",
"138 362 CURVE SMOOTH",
"138 281 OFFCURVE",
"156 206 OFFCURVE",
"196 152 CURVE SMOOTH",
"235 98 OFFCURVE",
"296 63 OFFCURVE",
"381 63 CURVE SMOOTH",
"442 63 OFFCURVE",
"492 85 OFFCURVE",
"528 122 CURVE SMOOTH",
"563 158 OFFCURVE",
"583 210 OFFCURVE",
"587 269 CURVE",
"682 269 LINE",
"663 89 OFFCURVE",
"556 -17 OFFCURVE",
"373 -17 CURVE SMOOTH",
"262 -17 OFFCURVE",
"180 24 OFFCURVE",
"125 91 CURVE SMOOTH",
"70 158 OFFCURVE",
"43 251 OFFCURVE",
"43 355 CURVE SMOOTH"
);
},
{
closed = 1;
nodes = (
"334 922 LINE",
"427 922 LINE",
"531 779 LINE",
"447 779 LINE",
"378 875 LINE",
"308 779 LINE",
"231 779 LINE"
);
}
);
width = 722;
}
);
note = uni0108;
unicode = 0108;
},
{
glyphname = uni0109;
layers = (
{
layerId = "B170CD55-4C38-4AB6-AD9A-F7E1CB90D307";
name = Regular;
paths = (
{
closed = 1;
nodes = (
"415 351 LINE",
"402 416 OFFCURVE",
"359 454 OFFCURVE",
"287 454 CURVE SMOOTH",
"226 454 OFFCURVE",
"185 429 OFFCURVE",
"161 392 CURVE SMOOTH",
"136 355 OFFCURVE",
"126 304 OFFCURVE",
"126 252 CURVE SMOOTH",
"126 204 OFFCURVE",
"137 157 OFFCURVE",
"161 122 CURVE SMOOTH",
"185 86 OFFCURVE",
"222 63 OFFCURVE",
"277 63 CURVE SMOOTH",
"361 63 OFFCURVE",
"408 109 OFFCURVE",
"419 189 CURVE",
"506 189 LINE",
"487 61 OFFCURVE",
"410 -12 OFFCURVE",
"278 -12 CURVE SMOOTH",
"199 -12 OFFCURVE",
"138 15 OFFCURVE",
"98 62 CURVE SMOOTH",
"57 109 OFFCURVE",
"36 175 OFFCURVE",
"36 252 CURVE SMOOTH",
"36 329 OFFCURVE",
"56 399 OFFCURVE",
"97 449 CURVE SMOOTH",
"137 499 OFFCURVE",
"197 529 OFFCURVE",
"280 529 CURVE SMOOTH",
"339 529 OFFCURVE",
"391 515 OFFCURVE",
"431 486 CURVE SMOOTH",
"470 457 OFFCURVE",
"496 412 OFFCURVE",
"503 351 CURVE"
);
},
{
closed = 1;
nodes = (
"238 732 LINE",
"331 732 LINE",
"435 589 LINE",
"351 589 LINE",
"282 685 LINE",
"212 589 LINE",
"135 589 LINE"
);
}
);
width = 537;
}
);
note = uni0109;
unicode = 0109;
},
{
glyphname = uni010A;
layers = (
{
layerId = "B170CD55-4C38-4AB6-AD9A-F7E1CB90D307";
name = Regular;
paths = (
{
closed = 1;
nodes = (
"43 459 OFFCURVE",
"73 553 OFFCURVE",
"130 621 CURVE SMOOTH",
"186 689 OFFCURVE",
"270 731 OFFCURVE",
"381 731 CURVE SMOOTH",
"456 731 OFFCURVE",
"524 711 OFFCURVE",
"576 672 CURVE SMOOTH",
"628 633 OFFCURVE",
"664 575 OFFCURVE",
"675 499 CURVE",
"580 499 LINE",
"559 600 OFFCURVE",
"480 651 OFFCURVE",
"380 651 CURVE SMOOTH",
"295 651 OFFCURVE",
"235 617 OFFCURVE",
"196 563 CURVE SMOOTH",
"156 509 OFFCURVE",
"138 437 OFFCURVE",
"138 362 CURVE SMOOTH",
"138 281 OFFCURVE",
"156 206 OFFCURVE",
"196 152 CURVE SMOOTH",
"235 98 OFFCURVE",
"296 63 OFFCURVE",
"381 63 CURVE SMOOTH",
"442 63 OFFCURVE",
"492 85 OFFCURVE",
"528 122 CURVE SMOOTH",
"563 158 OFFCURVE",
"583 210 OFFCURVE",
"587 269 CURVE",
"682 269 LINE",
"663 89 OFFCURVE",
"556 -17 OFFCURVE",
"373 -17 CURVE SMOOTH",
"262 -17 OFFCURVE",
"180 24 OFFCURVE",
"125 91 CURVE SMOOTH",
"70 158 OFFCURVE",
"43 251 OFFCURVE",
"43 355 CURVE SMOOTH"
);
},
{
closed = 1;
nodes = (
"425 793 LINE",
"335 793 LINE",
"335 897 LINE",
"425 897 LINE"
);
}
);
width = 722;
}
);
note = uni010A;
unicode = 010A;
},
{
glyphname = uni010B;
layers = (
{
layerId = "B170CD55-4C38-4AB6-AD9A-F7E1CB90D307";
name = Regular;
paths = (
{
closed = 1;
nodes = (
"415 351 LINE",
"402 416 OFFCURVE",
"359 454 OFFCURVE",
"287 454 CURVE SMOOTH",
"226 454 OFFCURVE",
"185 429 OFFCURVE",
"161 392 CURVE SMOOTH",
"136 355 OFFCURVE",
"126 304 OFFCURVE",
"126 252 CURVE SMOOTH",
"126 204 OFFCURVE",
"137 157 OFFCURVE",
"161 122 CURVE SMOOTH",
"185 86 OFFCURVE",
"222 63 OFFCURVE",
"277 63 CURVE SMOOTH",
"361 63 OFFCURVE",
"408 109 OFFCURVE",
"419 189 CURVE",
"506 189 LINE",
"487 61 OFFCURVE",
"410 -12 OFFCURVE",
"278 -12 CURVE SMOOTH",
"199 -12 OFFCURVE",
"138 15 OFFCURVE",
"98 62 CURVE SMOOTH",
"57 109 OFFCURVE",
"36 175 OFFCURVE",
"36 252 CURVE SMOOTH",
"36 329 OFFCURVE",
"56 399 OFFCURVE",
"97 449 CURVE SMOOTH",
"137 499 OFFCURVE",
"197 529 OFFCURVE",
"280 529 CURVE SMOOTH",
"339 529 OFFCURVE",
"391 515 OFFCURVE",
"431 486 CURVE SMOOTH",
"470 457 OFFCURVE",
"496 412 OFFCURVE",
"503 351 CURVE"
);
},
{
closed = 1;
nodes = (
"329 604 LINE",
"239 604 LINE",
"239 708 LINE",
"329 708 LINE"
);
}
);
width = 537;
}
);
note = uni010B;
unicode = 010B;
},
{
glyphname = uni010C;
layers = (
{
layerId = "B170CD55-4C38-4AB6-AD9A-F7E1CB90D307";
name = Regular;
paths = (
{
closed = 1;
nodes = (
"43 459 OFFCURVE",
"73 553 OFFCURVE",
"130 621 CURVE SMOOTH",
"186 689 OFFCURVE",
"270 731 OFFCURVE",
"381 731 CURVE SMOOTH",
"456 731 OFFCURVE",
"524 711 OFFCURVE",
"576 672 CURVE SMOOTH",
"628 633 OFFCURVE",
"664 575 OFFCURVE",
"675 499 CURVE",
"580 499 LINE",
"559 600 OFFCURVE",
"480 651 OFFCURVE",
"380 651 CURVE SMOOTH",
"295 651 OFFCURVE",
"235 617 OFFCURVE",
"196 563 CURVE SMOOTH",
"156 509 OFFCURVE",
"138 437 OFFCURVE",
"138 362 CURVE SMOOTH",
"138 281 OFFCURVE",
"156 206 OFFCURVE",
"196 152 CURVE SMOOTH",
"235 98 OFFCURVE",
"296 63 OFFCURVE",
"381 63 CURVE SMOOTH",
"442 63 OFFCURVE",
"492 85 OFFCURVE",
"528 122 CURVE SMOOTH",
"563 158 OFFCURVE",
"583 210 OFFCURVE",
"587 269 CURVE",
"682 269 LINE",
"663 89 OFFCURVE",
"556 -17 OFFCURVE",
"373 -17 CURVE SMOOTH",
"262 -17 OFFCURVE",
"180 24 OFFCURVE",
"125 91 CURVE SMOOTH",
"70 158 OFFCURVE",
"43 251 OFFCURVE",
"43 355 CURVE SMOOTH"
);
},
{
closed = 1;
nodes = (
"427 779 LINE",
"334 779 LINE",
"230 922 LINE",
"314 922 LINE",
"383 826 LINE",
"453 922 LINE",
"530 922 LINE"
);
}
);
width = 722;
}
);
note = uni010C;
unicode = 010C;
},
{
glyphname = uni010D;
layers = (
{
layerId = "B170CD55-4C38-4AB6-AD9A-F7E1CB90D307";
name = Regular;
paths = (
{
closed = 1;
nodes = (
"415 351 LINE",
"402 416 OFFCURVE",
"359 454 OFFCURVE",
"287 454 CURVE SMOOTH",
"226 454 OFFCURVE",
"185 429 OFFCURVE",
"161 392 CURVE SMOOTH",
"136 355 OFFCURVE",
"126 304 OFFCURVE",
"126 252 CURVE SMOOTH",
"126 204 OFFCURVE",
"137 157 OFFCURVE",
"161 122 CURVE SMOOTH",
"185 86 OFFCURVE",
"222 63 OFFCURVE",
"277 63 CURVE SMOOTH",
"361 63 OFFCURVE",
"408 109 OFFCURVE",
"419 189 CURVE",
"506 189 LINE",
"487 61 OFFCURVE",
"410 -12 OFFCURVE",
"278 -12 CURVE SMOOTH",
"199 -12 OFFCURVE",
"138 15 OFFCURVE",
"98 62 CURVE SMOOTH",
"57 109 OFFCURVE",
"36 175 OFFCURVE",
"36 252 CURVE SMOOTH",
"36 329 OFFCURVE",
"56 399 OFFCURVE",
"97 449 CURVE SMOOTH",
"137 499 OFFCURVE",
"197 529 OFFCURVE",
"280 529 CURVE SMOOTH",
"339 529 OFFCURVE",
"391 515 OFFCURVE",
"431 486 CURVE SMOOTH",
"470 457 OFFCURVE",
"496 412 OFFCURVE",
"503 351 CURVE"
);
},
{
closed = 1;
nodes = (
"327 589 LINE",
"234 589 LINE",
"130 732 LINE",
"214 732 LINE",
"283 636 LINE",
"353 732 LINE",
"430 732 LINE"
);
}
);
width = 537;
}
);
note = uni010D;
unicode = 010D;
},
{
glyphname = uni010E;
layers = (
{
layerId = "B170CD55-4C38-4AB6-AD9A-F7E1CB90D307";
name = Regular;
paths = (
{
closed = 1;
nodes = (
"78 714 LINE",
"323 714 LINE SMOOTH",
"543 714 OFFCURVE",
"666 603 OFFCURVE",
"666 374 CURVE SMOOTH",
"666 254 OFFCURVE",
"640 161 OFFCURVE",
"584 98 CURVE SMOOTH",
"528 34 OFFCURVE",
"442 0 OFFCURVE",
"323 0 CURVE SMOOTH",
"78 0 LINE"
);
},
{
closed = 1;
nodes = (
"331 80 LINE SMOOTH",
"352 80 OFFCURVE",
"386 82 OFFCURVE",
"422 95 CURVE SMOOTH",
"458 107 OFFCURVE",
"495 130 OFFCURVE",
"523 171 CURVE SMOOTH",
"551 212 OFFCURVE",
"571 273 OFFCURVE",
"571 361 CURVE SMOOTH",
"571 446 OFFCURVE",
"556 514 OFFCURVE",
"518 561 CURVE SMOOTH",
"480 608 OFFCURVE",
"421 634 OFFCURVE",
"333 634 CURVE SMOOTH",
"173 634 LINE",
"173 80 LINE"
);
},
{
closed = 1;
nodes = (
"362 779 LINE",
"269 779 LINE",
"165 922 LINE",
"249 922 LINE",
"318 826 LINE",
"388 922 LINE",
"465 922 LINE"
);
}
);
width = 704;
}
);
note = uni010E;
unicode = 010E;
},
{
glyphname = uni010F;
layers = (
{
layerId = "B170CD55-4C38-4AB6-AD9A-F7E1CB90D307";
name = Regular;
paths = (
{
closed = 1;
nodes = (
"526 0 LINE",
"441 0 LINE",
"441 70 LINE",
"439 70 LINE",
"411 13 OFFCURVE",
"346 -12 OFFCURVE",
"274 -12 CURVE SMOOTH",
"194 -12 OFFCURVE",
"135 20 OFFCURVE",
"96 70 CURVE SMOOTH",
"56 120 OFFCURVE",
"36 187 OFFCURVE",
"36 260 CURVE SMOOTH",
"36 333 OFFCURVE",
"55 400 OFFCURVE",
"95 449 CURVE SMOOTH",
"134 498 OFFCURVE",
"193 529 OFFCURVE",
"272 529 CURVE SMOOTH",
"297 529 OFFCURVE",
"330 524 OFFCURVE",
"361 512 CURVE SMOOTH",
"392 499 OFFCURVE",
"420 479 OFFCURVE",
"439 448 CURVE",
"441 448 LINE",
"441 714 LINE",
"526 714 LINE"
);
},
{
closed = 1;
nodes = (
"126 206 OFFCURVE",
"139 158 OFFCURVE",
"165 122 CURVE SMOOTH",
"191 86 OFFCURVE",
"231 63 OFFCURVE",
"286 63 CURVE SMOOTH",
"343 63 OFFCURVE",
"383 88 OFFCURVE",
"408 125 CURVE SMOOTH",
"433 161 OFFCURVE",
"444 210 OFFCURVE",
"444 258 CURVE SMOOTH",
"444 309 OFFCURVE",
"433 358 OFFCURVE",
"407 394 CURVE SMOOTH",
"381 430 OFFCURVE",
"340 454 OFFCURVE",
"281 454 CURVE SMOOTH",
"222 454 OFFCURVE",
"184 429 OFFCURVE",
"160 392 CURVE SMOOTH",
"136 355 OFFCURVE",
"126 305 OFFCURVE",
"126 254 CURVE SMOOTH"
);
},
{
closed = 1;
nodes = (
"602 714 LINE",
"711 714 LINE",
"636 571 LINE",
"576 571 LINE"
);
}
);
width = 593;
}
);
note = uni010F;
unicode = 010F;
},
{
glyphname = uni0110;
layers = (
{
layerId = "B170CD55-4C38-4AB6-AD9A-F7E1CB90D307";
name = Regular;
paths = (
{
closed = 1;
nodes = (
"78 341 LINE",
"8 341 LINE",
"8 405 LINE",
"78 405 LINE",
"78 714 LINE",
"323 714 LINE SMOOTH",
"543 714 OFFCURVE",
"666 603 OFFCURVE",
"666 374 CURVE SMOOTH",
"666 254 OFFCURVE",
"640 161 OFFCURVE",
"584 98 CURVE SMOOTH",
"528 34 OFFCURVE",
"442 0 OFFCURVE",
"323 0 CURVE SMOOTH",
"78 0 LINE"
);
},
{
closed = 1;
nodes = (
"173 405 LINE",
"387 405 LINE",
"387 341 LINE",
"173 341 LINE",
"173 80 LINE",
"331 80 LINE SMOOTH",
"352 80 OFFCURVE",
"386 82 OFFCURVE",
"422 95 CURVE SMOOTH",
"458 107 OFFCURVE",
"495 130 OFFCURVE",
"523 171 CURVE SMOOTH",
"551 212 OFFCURVE",
"571 273 OFFCURVE",
"571 361 CURVE SMOOTH",
"571 446 OFFCURVE",
"556 514 OFFCURVE",
"518 561 CURVE SMOOTH",
"480 608 OFFCURVE",
"421 634 OFFCURVE",
"333 634 CURVE SMOOTH",
"173 634 LINE"
);
}
);
width = 704;
}
);
note = uni0110;
unicode = 0110;
},
{
glyphname = uni0111;
layers = (
{
layerId = "B170CD55-4C38-4AB6-AD9A-F7E1CB90D307";
name = Regular;
paths = (
{
closed = 1;
nodes = (
"271 636 LINE",
"441 636 LINE",
"441 714 LINE",
"526 714 LINE",
"526 636 LINE",
"612 636 LINE",
"612 583 LINE",
"526 583 LINE",
"526 0 LINE",
"441 0 LINE",
"441 70 LINE",
"439 70 LINE",
"411 13 OFFCURVE",
"346 -12 OFFCURVE",
"274 -12 CURVE SMOOTH",
"194 -12 OFFCURVE",
"135 20 OFFCURVE",
"96 70 CURVE SMOOTH",
"56 120 OFFCURVE",
"36 187 OFFCURVE",
"36 260 CURVE SMOOTH",
"36 333 OFFCURVE",
"55 400 OFFCURVE",
"95 449 CURVE SMOOTH",
"134 498 OFFCURVE",
"193 529 OFFCURVE",
"272 529 CURVE SMOOTH",
"297 529 OFFCURVE",
"330 524 OFFCURVE",
"361 512 CURVE SMOOTH",
"392 499 OFFCURVE",
"420 479 OFFCURVE",
"439 448 CURVE",
"441 448 LINE",
"441 583 LINE",
"271 583 LINE"
);
},
{
closed = 1;
nodes = (
"126 206 OFFCURVE",
"139 158 OFFCURVE",
"165 122 CURVE SMOOTH",
"191 86 OFFCURVE",
"231 63 OFFCURVE",
"286 63 CURVE SMOOTH",
"343 63 OFFCURVE",
"383 88 OFFCURVE",
"408 125 CURVE SMOOTH",
"433 161 OFFCURVE",
"444 210 OFFCURVE",
"444 258 CURVE SMOOTH",
"444 309 OFFCURVE",
"433 358 OFFCURVE",
"407 394 CURVE SMOOTH",
"381 430 OFFCURVE",
"340 454 OFFCURVE",
"281 454 CURVE SMOOTH",
"222 454 OFFCURVE",
"184 429 OFFCURVE",
"160 392 CURVE SMOOTH",
"136 355 OFFCURVE",
"126 305 OFFCURVE",
"126 254 CURVE SMOOTH"
);
}
);
width = 598;
}
);
note = uni0111;
unicode = 0111;
},
{
glyphname = uni0112;
layers = (
{
layerId = "B170CD55-4C38-4AB6-AD9A-F7E1CB90D307";
name = Regular;
paths = (
{
closed = 1;
nodes = (
"78 714 LINE",
"571 714 LINE",
"571 634 LINE",
"173 634 LINE",
"173 407 LINE",
"544 407 LINE",
"544 327 LINE",
"173 327 LINE",
"173 80 LINE",
"574 80 LINE",
"574 0 LINE",
"78 0 LINE"
);
},
{
closed = 1;
nodes = (
"149 872 LINE",
"490 872 LINE",
"490 817 LINE",
"149 817 LINE"
);
}
);
width = 611;
}
);
note = uni0112;
unicode = 0112;
},
{
glyphname = uni0113;
lastChange = "2016-01-24 00:33:02 +0000";
layers = (
{
layerId = "B170CD55-4C38-4AB6-AD9A-F7E1CB90D307";
name = Regular;
paths = (
{
closed = 1;
nodes = (
"111 682 LINE",
"452 682 LINE",
"452 627 LINE",
"111 627 LINE"
);
},
{
closed = 1;
nodes = (
"126 309 LINE",
"129 349 OFFCURVE",
"144 384 OFFCURVE",
"169 411 CURVE SMOOTH",
"194 438 OFFCURVE",
"230 454 OFFCURVE",
"274 454 CURVE SMOOTH",
"317 454 OFFCURVE",
"353 438 OFFCURVE",
"379 412 CURVE SMOOTH",
"405 386 OFFCURVE",
"420 349 OFFCURVE",
"423 309 CURVE"
);
},
{
closed = 1;
nodes = (
"421 161 LINE",
"406 93 OFFCURVE",
"359 63 OFFCURVE",
"287 63 CURVE SMOOTH",
"231 63 OFFCURVE",
"190 83 OFFCURVE",
"163 115 CURVE SMOOTH",
"136 146 OFFCURVE",
"125 189 OFFCURVE",
"126 234 CURVE",
"513 234 LINE",
"516 297 OFFCURVE",
"503 369 OFFCURVE",
"467 428 CURVE SMOOTH",
"430 487 OFFCURVE",
"371 529 OFFCURVE",
"279 529 CURVE SMOOTH",
"208 529 OFFCURVE",
"148 501 OFFCURVE",
"105 453 CURVE SMOOTH",
"61 405 OFFCURVE",
"36 340 OFFCURVE",
"36 261 CURVE",
"39 182 OFFCURVE",
"59 113 OFFCURVE",
"100 65 CURVE SMOOTH",
"141 17 OFFCURVE",
"201 -11 OFFCURVE",
"284 -11 CURVE SMOOTH",
"401 -11 OFFCURVE",
"482 45 OFFCURVE",
"505 161 CURVE"
);
}
);
width = 537;
}
);
note = uni0113;
unicode = 0113;
},
{
glyphname = uni0114;
layers = (
{
layerId = "B170CD55-4C38-4AB6-AD9A-F7E1CB90D307";
name = Regular;
paths = (
{
closed = 1;
nodes = (
"78 714 LINE",
"571 714 LINE",
"571 634 LINE",
"173 634 LINE",
"173 407 LINE",
"544 407 LINE",
"544 327 LINE",
"173 327 LINE",
"173 80 LINE",
"574 80 LINE",
"574 0 LINE",
"78 0 LINE"
);
},
{
closed = 1;
nodes = (
"213 919 LINE",
"229 864 OFFCURVE",
"266 836 OFFCURVE",
"325 836 CURVE SMOOTH",
"382 836 OFFCURVE",
"404 868 OFFCURVE",
"424 919 CURVE",
"475 919 LINE",
"460 834 OFFCURVE",
"405 781 OFFCURVE",
"317 781 CURVE SMOOTH",
"225 781 OFFCURVE",
"176 830 OFFCURVE",
"163 919 CURVE"
);
}
);
width = 611;
}
);
note = uni0114;
unicode = 0114;
},
